<?xml version="1.0" standalone="no"?>
<!DOCTYPE svg PUBLIC "-//W3C//DTD SVG 1.1//EN" "http://www.w3.org/Graphics/SVG/1.1/DTD/svg11.dtd" >
<svg xmlns="http://www.w3.org/2000/svg" xmlns:xlink="http://www.w3.org/1999/xlink" version="1.1">
<metadata>
Created by FontForge 20170731 at Mon Oct 23 15:56:09 2017
 By Aleksey,,,
Copyright 2011 The Alegreya Project Authors (https://github.com/huertatipografica/Alegreya)
</metadata>
<defs>
<font id="Alegreya-BoldItalic" horiz-adv-x="0" >
  <font-face 
    font-family="Alegreya"
    font-weight="700"
    font-style="italic"
    font-stretch="normal"
    units-per-em="1000"
    panose-1="0 0 8 0 0 0 0 0 0 0"
    ascent="800"
    descent="-200"
    x-height="464"
    cap-height="649"
    bbox="-428 -316 1328 1058"
    underline-thickness="75"
    underline-position="-277"
    slope="-7"
    unicode-range="U+000D-FB02"
  />
<missing-glyph horiz-adv-x="641" 
d="M336 228l321 -321l-16 -16l-321 321l-321 -321l-16 16l321 321l-321 321l16 16l321 -321l321 321l16 -16z" />
    <glyph glyph-name="Idieresis" unicode="&#xa8;I" horiz-adv-x="352" 
d="M243.5 270q-21.5 -139 -21.5 -167q0 -23 7.5 -32t24.5 -9q16 0 27.5 1t14.5 2l4 -6l-16 -62q-16 0 -59 1.5t-83 1.5q-34 0 -78 -3.5t-57 -5.5l14 62q44 9 60.5 26t20.5 59l48 389q2 18 2 23q0 16 -6.5 22.5t-23.5 6.5l-34 -1l-4 8l14 57q28 0 48 -1l86 -1q27 0 74.5 3.5
t62.5 4.5l-14 -64q-37 -5 -50.5 -16t-18.5 -39q-21 -121 -42.5 -260zM115.5 721q-12.5 14 -12.5 37q0 33 20.5 54t53.5 21q24 0 37 -14t13 -37q0 -33 -20.5 -54t-53.5 -21q-25 0 -37.5 14zM288 721q-13 14 -13 37q0 32 21 53.5t53 21.5q24 0 37.5 -14t13.5 -37
q0 -32 -21 -53.5t-53 -21.5q-25 0 -38 14z" />
    <glyph glyph-name="Odieresis" unicode="&#xa8;O" horiz-adv-x="651" 
d="M155.5 21q-58.5 33 -90.5 93t-32 141q0 117 43 207.5t122 140.5t182 50q79 0 138 -32t91 -91.5t32 -140.5q0 -117 -44 -208t-123.5 -142t-183.5 -51q-76 0 -134.5 33zM442 150q48 79 48 220q0 90 -36 140.5t-98 50.5q-53 0 -92.5 -35.5t-61 -103t-21.5 -160.5
q0 -90 34.5 -140.5t95.5 -50.5q83 0 131 79zM256.5 721q-12.5 14 -12.5 37q0 33 20.5 54t53.5 21q24 0 37 -14t13 -37q0 -33 -20.5 -54t-53.5 -21q-25 0 -37.5 14zM429 721q-13 14 -13 37q0 32 21 53.5t53 21.5q24 0 37.5 -14t13.5 -37q0 -32 -21 -53.5t-53 -21.5
q-25 0 -38 14z" />
    <glyph glyph-name="Yacute" unicode="&#xb4;Y" horiz-adv-x="579" 
d="M277 454q23 -78 27 -90l7 -23h9l99 172q19 32 19 49q0 11 -9.5 16t-34.5 6l-2 5l14 56l47 -2q52 -2 80 -2t59 1.5t40 2.5l3 -7l-14 -59q-41 -12 -67 -38.5t-66 -89.5l-114 -178q-14 -22 -19.5 -43.5t-13.5 -76.5l-3 -23q-2 -20 -2 -27q0 -22 8.5 -30.5t30.5 -8.5
q17 0 30.5 1t17.5 2l3 -5l-16 -66q-18 1 -65.5 2.5t-92.5 1.5q-34 0 -84 -4.5t-66 -6.5l15 65q39 6 58 15.5t27.5 27.5t12.5 53l4 32q2 20 2 27q0 32 -17 77l-71 190q-18 51 -36.5 72.5t-60.5 29.5l-3 5l16 61q14 0 51 -1.5t72 -1.5q31 0 84.5 3.5t70.5 4.5l4 -9l-13 -55
q-37 -3 -50.5 -10t-13.5 -23q0 -20 23 -98zM404.5 732q-68.5 -19 -139.5 -42l-13 9l-13 45q67 30 134.5 62.5t87.5 42.5l12 -6l25 -75l-5 -12q-20 -5 -88.5 -24z" />
    <glyph glyph-name="idieresis" unicode="&#xa8;i" horiz-adv-x="282" 
d="M187 110q11 8 50 43l17 -2l16 -35q-64 -69 -103.5 -98.5t-67.5 -29.5q-24 0 -35 12t-11 37q48 291 48 320q0 20 -9 29t-29 9h-35l9 58q62 0 190 8l12 -15q-21 -71 -41 -167.5t-31 -172.5l3 -4q6 0 17 8zM52.5 560q-14.5 15 -14.5 39q0 31 19.5 51t49.5 20q25 0 39 -14.5
t14 -40.5q0 -31 -19.5 -50.5t-49.5 -19.5q-24 0 -38.5 15zM216.5 560q-14.5 15 -14.5 39q0 31 19.5 51t49.5 20q25 0 39 -14.5t14 -40.5q0 -31 -19.5 -50.5t-48.5 -19.5q-25 0 -39.5 15z" />
    <glyph glyph-name="odieresis" unicode="&#xa8;o" horiz-adv-x="442" 
d="M65 35.5q-38 47.5 -38 130.5q0 85 32.5 155.5t89 111t125.5 40.5q68 0 105.5 -43.5t37.5 -123.5q0 -89 -32 -161.5t-89 -114.5t-127 -42q-66 0 -104 47.5zM272 116q23 50 23 144q0 62 -15.5 94t-46.5 32q-40 0 -63 -46.5t-23 -131.5q0 -69 16.5 -105.5t45.5 -36.5
q40 0 63 50zM133.5 562q-14.5 15 -14.5 40q0 32 20 52t51 20q25 0 39 -15t14 -41q0 -31 -19.5 -51t-50.5 -20q-25 0 -39.5 15zM306.5 562q-14.5 15 -14.5 40q0 32 19.5 52t50.5 20q25 0 39.5 -15t14.5 -41q0 -31 -19.5 -51t-50.5 -20q-25 0 -39.5 15z" />
    <glyph glyph-name="yacute" unicode="&#xb4;y" horiz-adv-x="461" 
d="M420 473q14 -12 22 -35t8 -51q0 -107 -186 -375q-92 -132 -158 -191t-121 -59q-33 0 -58.5 13t-32.5 34q13 57 39 95l15 1q35 -41 69 -41q26 0 55 21.5t65 65.5q-25 264 -48 407q-4 20 -12 27.5t-24 7.5q-1 0 -40 -3l4 56l174 21l11 -10q14 -128 14 -330v-41h12
q49 86 77 154t28 103q0 23 -13 42.5t-36 32.5l7 31zM313 604q-57 -38 -115 -81l-15 4l-29 38q51 49 102 101.5t65 68.5l13 -1l53 -68l-1 -14q-16 -10 -73 -48z" />
    <glyph glyph-name="Itilde" unicode="&#x7e;I" horiz-adv-x="352" 
d="M249.5 270q-21.5 -139 -21.5 -167q0 -23 7.5 -32t24.5 -9q16 0 27.5 1t14.5 2l4 -6l-16 -62q-16 0 -59 1.5t-83 1.5q-34 0 -78 -3.5t-57 -5.5l14 62q44 9 60.5 26t20.5 59l48 389q2 18 2 23q0 16 -6.5 22.5t-23.5 6.5l-34 -1l-4 8l14 57q28 0 48 -1l86 -1q27 0 74.5 3.5
t62.5 4.5l-14 -64q-37 -5 -50.5 -16t-18.5 -39q-21 -121 -42.5 -260zM102 744l1 10l88 101l16 4q18 0 76 -18q52 -16 65 -16q10 0 25.5 12.5t28 26.5t15.5 18h11l35 -36l-2 -10l-88 -101l-16 -4q-18 0 -76 18q-52 16 -65 16q-10 0 -25.5 -12.5t-28 -26.5t-15.5 -18h-11z" />
    <glyph glyph-name="itilde" unicode="&#x7e;i" horiz-adv-x="282" 
d="M4 575l1 10l88 101l16 4q18 0 76 -18q52 -16 65 -16q10 0 25.5 12.5t28 26.5t15.5 18h11l35 -36l-2 -10l-88 -101l-16 -4q-18 0 -76 18q-52 16 -65 16q-10 0 -25.5 -12.5t-28 -26.5t-15.5 -18h-11zM188 110q11 8 50 43l17 -2l16 -35q-64 -69 -103.5 -98.5t-67.5 -29.5
q-24 0 -35 12t-11 37q48 291 48 320q0 20 -9 29t-29 9h-35l9 58q62 0 190 8l12 -15q-21 -71 -41 -167.5t-31 -172.5l3 -4q6 0 17 8z" />
    <glyph glyph-name="Utilde" unicode="&#x7e;U" horiz-adv-x="631" 
d="M208 198q0 -61 26 -92.5t78 -31.5q120 0 136 136q9 77 20 176t15 139q1 10 1 24q0 18 -5.5 24t-19.5 6q-9 0 -19 -1t-14 -1l-1 4l16 63q12 0 45 -1.5t66 -1.5q31 0 68 3t48 4l-14 -64q-37 -7 -48.5 -16.5t-14.5 -34.5l-39 -314q-14 -113 -83 -172t-188 -59
q-101 0 -152.5 44.5t-51.5 130.5q0 20 3 42l39 320q2 20 2 26q0 16 -6 22t-21 6q-9 0 -18.5 -1t-12.5 -1l-1 4l16 63q14 -1 53 -2t83 -1q25 0 64 3t51 4l-14 -65q-32 -5 -44.5 -16t-16.5 -38l-43 -291q-3 -21 -3 -40zM228 744l1 10l88 101l16 4q18 0 76 -18q52 -16 65 -16
q10 0 25.5 12.5t28 26.5t15.5 18h11l35 -36l-2 -10l-88 -101l-16 -4q-18 0 -76 18q-52 16 -65 16q-10 0 -25.5 -12.5t-28 -26.5t-15.5 -18h-11z" />
    <glyph glyph-name="utilde" unicode="&#x7e;u" horiz-adv-x="506" 
d="M495 116q-71 -73 -108 -100.5t-65 -27.5q-42 0 -42 37q0 21 36 177l-8 2q-77 -159 -153 -215q-52 0 -81.5 25.5t-29.5 69.5q0 19 9 53.5t26 95.5q31 105 31 127q0 18 -9 26.5t-29 8.5h-35l10 58q57 0 189 8l12 -15q-39 -117 -63 -203t-24 -106q0 -15 5 -22t18 -7
q22 0 64.5 69t91.5 185l15 95l14 7l100 -5l10 -14q-23 -73 -45 -166.5t-33 -163.5l3 -4q8 2 19.5 10.5t38.5 31.5l17 -2zM143 564l1 10l88 101l16 4q18 0 76 -18q52 -16 65 -16q10 0 25.5 12.5t28 26.5t15.5 18h11l35 -36l-2 -10l-88 -101l-16 -4q-18 0 -76 18
q-52 16 -65 16q-10 0 -25.5 -12.5t-28 -26.5t-15.5 -18h-11z" />
    <glyph glyph-name="uni1EBC" unicode="&#x7e;E" horiz-adv-x="576" 
d="M234.5 81q11.5 -7 45.5 -7q64 0 93 8t44 31t29 77l81 6l6 -9q-5 -15 -21 -70t-29 -114l-10 -10q-30 1 -127.5 4t-171.5 3q-53 0 -103 -4t-64 -6l15 65q41 6 58 24t22 62l48 384l2 25q0 17 -6 23t-21 6q-9 0 -17.5 -1t-11.5 -1l-5 8l14 59q17 -1 67.5 -2t108.5 -1
q205 0 295 12l6 -10q-2 -7 -9 -31t-17.5 -66t-17.5 -83l-88 -6q2 6 5.5 25t3.5 33q0 21 -9.5 30.5t-33.5 13t-74 3.5q-24 0 -34.5 -2t-14.5 -9t-7 -23l-26 -160l90 -1q20 0 60 4t53 5l6 -9l-23 -83q-13 1 -49.5 2t-76.5 1q-23 0 -74 -6q-11 -70 -11 -69q-2 -18 -7 -51.5
t-5 -48.5q0 -24 11.5 -31zM185 724l1 10l88 95l15 4q18 0 76 -18q7 -2 30.5 -8.5t34.5 -6.5q10 0 25.5 11.5t28 23.5t15.5 16h11l34 -36l-1 -10l-88 -95l-16 -4q-19 0 -75 18q-7 2 -30.5 8.5t-34.5 6.5t-26 -11.5t-27.5 -23.5t-15.5 -16h-11z" />
    <glyph glyph-name="uni1EBD" unicode="&#x7e;e" horiz-adv-x="391" 
d="M357.5 301.5q-24.5 -33.5 -77 -61.5t-141.5 -57q0 -46 17 -73t47 -27q28 0 54.5 20.5t46.5 58.5l18 -2l31 -39q-27 -57 -81 -95t-109 -38q-64 0 -101 47t-37 127q0 79 35.5 151t94 116t122.5 44q49 0 77 -25t28 -69t-24.5 -77.5zM181 346.5q-28 -40.5 -38 -103.5
q69 23 101 49t32 59q0 17 -8.5 26.5t-24.5 9.5q-34 0 -62 -40.5zM115 564l1 10l88 101l16 4q18 0 76 -18q52 -16 65 -16q10 0 25.5 12.5t28 26.5t15.5 18h11l35 -36l-2 -10l-88 -101l-16 -4q-18 0 -76 18q-52 16 -65 16q-10 0 -25.5 -12.5t-28 -26.5t-15.5 -18h-11z" />
    <glyph glyph-name="uni1EF8" unicode="&#x7e;Y" horiz-adv-x="574" 
d="M277 454q23 -78 27 -90l7 -23h9l99 172q19 32 19 49q0 11 -9.5 16t-34.5 6l-2 5l14 56l47 -2q52 -2 80 -2t59 1.5t40 2.5l3 -7l-14 -59q-41 -12 -67 -38.5t-66 -89.5l-114 -178q-14 -22 -19.5 -43.5t-13.5 -76.5l-3 -23q-2 -20 -2 -27q0 -22 8.5 -30.5t30.5 -8.5
q17 0 30.5 1t17.5 2l3 -5l-16 -66q-18 1 -65.5 2.5t-92.5 1.5q-34 0 -84 -4.5t-66 -6.5l15 65q39 6 58 15.5t27.5 27.5t12.5 53l4 32q2 20 2 27q0 32 -17 77l-71 190q-18 51 -36.5 72.5t-60.5 29.5l-3 5l16 61q14 0 51 -1.5t72 -1.5q31 0 84.5 3.5t70.5 4.5l4 -9l-13 -55
q-37 -3 -50.5 -10t-13.5 -23q0 -20 23 -98zM190 724l1 10l88 95l15 4q18 0 76 -18q7 -2 30.5 -8.5t34.5 -6.5q10 0 25.5 11.5t28 23.5t15.5 16h11l34 -36l-1 -10l-88 -95l-16 -4q-19 0 -75 18q-7 2 -30.5 8.5t-34.5 6.5t-26 -11.5t-27.5 -23.5t-15.5 -16h-11z" />
    <glyph glyph-name="uni1EF9" unicode="&#x7e;y" horiz-adv-x="461" 
d="M420 473q14 -12 22 -35t8 -51q0 -107 -186 -375q-92 -132 -158 -191t-121 -59q-33 0 -58.5 13t-32.5 34q13 57 39 95l15 1q35 -41 69 -41q26 0 55 21.5t65 65.5q-25 264 -48 407q-4 20 -12 27.5t-24 7.5q-1 0 -40 -3l4 56l174 21l11 -10q14 -128 14 -330v-41h12
q49 86 77 154t28 103q0 23 -13 42.5t-36 32.5l7 31zM118 564l1 10l88 101l16 4q18 0 76 -18q52 -16 65 -16q10 0 25.5 12.5t28 26.5t15.5 18h11l35 -36l-2 -10l-88 -101l-16 -4q-18 0 -76 18q-52 16 -65 16q-10 0 -25.5 -12.5t-28 -26.5t-15.5 -18h-11z" />
    <glyph glyph-name="fi" unicode="fi" horiz-adv-x="570" 
d="M475 110q11 8 50 43l17 -2l16 -35q-58 -63 -95 -92t-67 -34l-12 -1q-6 0 -14 2q-15 4 -22 15t-7 31q8 45 28 172.5t20 147.5t-9 29t-29 9h-126l-9 -5l-43 -394q-11 -103 -64.5 -170.5t-134.5 -67.5q-39 0 -70 15t-39 38q6 22 21.5 55.5t28.5 50.5h16q3 -81 71 -81
q28 0 47.5 21.5t21.5 57.5q2 18 3 39t1 29l2 34l27 367l-8 8l-72 1l-3 5l6 46l83 12l6 51q8 70 48 123.5t97.5 82.5t114.5 29q35 0 72.5 -7t61.5 -18l4 -11l-43 -94l-20 -3q-38 25 -66.5 36.5t-52.5 11.5q-47 0 -69.5 -28t-29.5 -89l-10 -86h105q38 0 109 2.5t78 4.5l12 -15
q-4 -13 -16.5 -63t-28.5 -125.5t-27 -151.5l3 -4q6 0 17 8z" />
    <glyph glyph-name="fl" unicode="fl" horiz-adv-x="557" 
d="M530 151l16 -35q-65 -69 -104.5 -98.5t-67.5 -29.5q-46 0 -46 46q13 83 50 317t41 277q-57 29 -102 29q-36 0 -55.5 -24t-26.5 -77l-12 -102l125 1l5 -5l-10 -56l-118 1l-9 -5l-47 -434q-6 -53 -34.5 -98.5t-71.5 -72.5t-89 -27q-39 0 -70 15t-39 38q6 22 21.5 55.5
t28.5 50.5h16q3 -81 71 -81q28 0 47.5 21.5t21.5 57.5q3 25 5 74q0 16 2 46l26 349l-8 8l-72 1l-3 5l6 46l83 12l7 66q7 58 44 109t91.5 81t112.5 30q50 0 94 -11l86 6l12 -16q-7 -31 -29 -139.5t-47.5 -245.5t-37.5 -230l3 -4q6 0 21 12t46 39z" />
    <glyph glyph-name="f_j" unicode="fj" horiz-adv-x="558" 
d="M534 446q-4 -17 -18.5 -79t-33 -157t-32.5 -192q-12 -90 -62.5 -155.5t-135.5 -106.5l-27 30l3 11q57 42 82 92t38 147q8 45 29 172.5t21 147.5t-9.5 29.5t-30.5 9.5h-133l-9 -6l-47 -433q-6 -53 -34.5 -98.5t-71.5 -72.5t-89 -27q-39 0 -70 15t-39 38q6 22 21.5 55.5
t28.5 50.5h16q3 -81 71 -81q28 0 47.5 21.5t21.5 57.5q3 25 5 74q0 16 2 46l26 349l-8 8l-72 1l-3 5l6 46l83 12l7 66q7 58 46 109t96 81t117 30q30 0 62.5 -5.5t53.5 -14.5l4 -11l-43 -94l-20 -3q-62 43 -105 43q-41 0 -63.5 -24.5t-29.5 -76.5l-12 -102h163q49 2 86 4
t49 3z" />
    <glyph glyph-name="T_h.liga" unicode="Th" horiz-adv-x="953" 
d="M935 117q-66 -70 -105 -99t-67 -29q-46 0 -46 43q0 17 8.5 49t25.5 87q13 43 24 84.5t11 59.5q0 16 -7.5 26t-19.5 10q-25 0 -67 -68.5t-86 -178.5l-9 -73q-2 -12 -35.5 -24t-65.5 -12l-13 15q52 333 82 533q-30 15 -69.5 20.5t-109.5 6.5q-19 -109 -42.5 -270
t-23.5 -185q0 -27 10.5 -37.5t36.5 -10.5q17 0 42 3l3 -5l-17 -66q-98 4 -158 4q-45 0 -161 -6l16 63q45 4 65 12.5t29 29t15 66.5l49 402q-56 -2 -79 -10.5t-34.5 -32.5t-25.5 -87l-81 -5q27 138 37 210l12 10l94 -11h358l49 4q5 32 8 68l13 18l104 6l12 -16
q-22 -98 -48.5 -231t-43.5 -243l6 -1q43 88 85 146t80 81q49 0 79.5 -28.5t30.5 -72.5q0 -22 -10.5 -58.5t-31.5 -99.5q-26 -77 -32 -107l3 -3q6 0 17.5 8.5t49.5 42.5l17 -3z" />
    <glyph glyph-name="gamma_gamma" unicode="&#x3b3;&#x3b3;" horiz-adv-x="820" 
d="M575 6q-7 -100 -26 -224l-62 -19l-20 3l-44 37q10 64 26.5 107t64.5 128q5 51 5 108q0 42 -2 62q-5 68 -18 96.5t-41 28.5q-13 0 -31 -6q-107 -156 -211 -321q-8 -112 -25 -224l-63 -19l-20 3l-43 37q9 64 25.5 107t64.5 127q6 60 6 104q0 34 -3 67q-6 68 -18.5 96.5
t-40.5 28.5q-21 0 -68 -21l-10 12q16 88 77 143q54 0 83.5 -61t36.5 -186l2 -44l10 -1q34 69 101 194q18 32 52 96l39 9q51 0 82 -24.5t48 -79.5t25 -150l2 -44l10 -1q29 60 108 209l45 84l16 1q42 -23 74 -76q-129 -184 -257 -387z" />
    <glyph glyph-name="lambda_lambda" unicode="&#x3bb;&#x3bb;" horiz-adv-x="807" 
d="M800 123q-12 -40 -34.5 -73.5t-52.5 -56.5q-44 0 -62.5 22t-26.5 83l-24 204h-10q-63 -134 -151 -302l-66 -9q-40 1 -60.5 10t-31 31t-15.5 66l-24 204h-9q-72 -151 -156 -309l-12 -3l-81 38l-2 10q130 220 242 418l-9 76q-5 38 -17.5 55.5t-35.5 17.5q-29 0 -84 -32
l-10 14q16 92 83 151q116 0 134 -178l41 -375q4 -35 14 -50.5t31 -15.5q6 0 18 2l14 25q91 156 179 311l-9 75q-5 38 -18 55.5t-35 17.5q-29 0 -84 -32l-10 14q17 94 83 151q114 0 134 -178l41 -375q4 -35 14 -50.5t31 -15.5q23 0 62 18z" />
    <glyph glyph-name="Gtilde" unicode="&#x7e;G" horiz-adv-x="630" 
d="M547 325.5q29 1.5 38 3.5l2 -37q-18 -12 -28.5 -31.5t-15.5 -51.5q-5 -31 -10.5 -76t-5.5 -59l1 -33l-10 -12q0 -1 -31.5 -12t-81 -20t-111.5 -9q-121 0 -191 71.5t-70 196.5q0 119 45.5 209t129.5 139t195 49q36 0 79.5 -5.5t75 -11t40.5 -7.5l4 -13q-2 -6 -10 -29.5
t-19 -63.5t-20 -87l-93 -6q1 7 5 28t4 33q0 70 -101 70q-86 0 -135 -74t-49 -211q0 -96 35 -147.5t100 -51.5q26 0 48 6t35 12.5t16 8.5l12 97q1 7 1 18q0 18 -8 24t-30 6h-51l-3 8l18 69q1 0 44 -1t90 -1q27 0 56 1.5zM222 724l1 10l88 95l15 4q18 0 76 -18q7 -2 30.5 -8.5
t34.5 -6.5q10 0 25.5 11.5t28 23.5t15.5 16h11l34 -36l-1 -10l-88 -95l-16 -4q-19 0 -75 18q-7 2 -30.5 8.5t-34.5 6.5t-26 -11.5t-27.5 -23.5t-15.5 -16h-11z" />
    <glyph glyph-name="gtilde" unicode="&#x7e;g" horiz-adv-x="470" 
d="M6.5 -222.5q-41.5 18.5 -64 49.5t-19.5 67l3 9q45 31 173 101l1 8q-29 15 -45.5 50.5t-16.5 84.5q0 75 35 149.5t90 122t110 47.5l88 -18l8 23l12 5l77 -13l11 -17q-25 -50 -41 -100t-21 -89q-2 -16 -4.5 -53.5t-3.5 -56.5q-6 -105 -10 -131q-6 -55 -54 -115.5
t-114.5 -101t-122.5 -40.5q-50 0 -91.5 18.5zM246 181q40 69 85 179q-56 28 -89 28q-21 0 -40.5 -27t-31.5 -70.5t-12 -88.5q0 -37 8.5 -63.5t19.5 -26.5q20 0 60 69zM240 -114q39 39 47 108l23 192l-9 3q-53 -91 -81.5 -128.5t-59.5 -59.5l-31 -21q-50 -34 -70 -49t-20 -22
q0 -15 15 -29.5t39 -23.5t49 -9q59 0 98 39zM126 587l1 10l88 101l16 4q18 0 76 -18q52 -16 65 -16q10 0 25.5 12.5t28 26.5t15.5 18h11l35 -36l-2 -10l-88 -101l-16 -4q-18 0 -76 18q-52 16 -65 16q-10 0 -25.5 -12.5t-28 -26.5t-15.5 -18h-11z" />
    <glyph glyph-name=".notdef" horiz-adv-x="641" 
d="M336 228l321 -321l-16 -16l-321 321l-321 -321l-16 16l321 321l-321 321l16 16l321 -321l321 321l16 -16z" />
    <glyph glyph-name="uni0000" 
 />
    <glyph glyph-name="uni0000" 
 />
    <glyph glyph-name="nonmarkingreturn" unicode="&#xd;" horiz-adv-x="150" 
 />
    <glyph glyph-name="space" unicode=" " horiz-adv-x="150" 
 />
    <glyph glyph-name="exclam" unicode="!" horiz-adv-x="274" 
d="M137 683l132 21l15 -17l-117 -455l-63 -11l-14 14l33 431zM43.5 6.5q-16.5 17.5 -16.5 46.5q0 40 25 65.5t65 25.5q30 0 47 -17t17 -47q0 -39 -25.5 -65t-64.5 -26q-31 0 -47.5 17.5z" />
    <glyph glyph-name="quotedbl" unicode="&#x22;" horiz-adv-x="316" 
d="M134 428l-49 -19l-14 4q16 113 21 227l100 14l6 -10q-28 -109 -64 -216zM276 428l-49 -19l-14 4q16 113 21 227l100 14l6 -10q-28 -109 -64 -216z" />
    <glyph glyph-name="numbersign" unicode="#" horiz-adv-x="508" 
d="M80 431l96 -1l43 140l72 7l10 -6l-47 -142h90l43 141l72 7l10 -6l-47 -141l94 1l4 -11l-22 -68h-100l-9 -29l-21 -66l93 2l4 -12l-21 -67h-98l-42 -136l-70 -11l-10 8l45 139l-54 1l-37 -1l-42 -136l-71 -11l-8 8l43 139l-92 -1l-4 12l22 67l98 -1l16 52l13 43h-91l-4 11
zM200 257h43l49 -1l16 53l14 44h-92l-9 -30z" />
    <glyph glyph-name="dollar" unicode="$" horiz-adv-x="450" 
d="M274 297q41 -20 67.5 -36t45 -41t18.5 -59q0 -71 -54.5 -116.5t-149.5 -52.5l-33 -143l-68 -8l-5 7l33 145q-29 3 -53.5 9.5t-39 11.5t-18.5 7l-6 11q4 12 14.5 52.5t16.5 79.5l74 6q-2 -13 -2 -35q0 -37 16.5 -53t55.5 -16q38 0 61.5 16.5t23.5 42.5q0 22 -21.5 38.5
t-63.5 37.5q-41 20 -66.5 36.5t-43.5 42t-18 59.5q0 68 51 113.5t137 55.5l32 142l69 8l4 -9l-32 -140q41 -3 78.5 -11t37.5 -9l5 -11q-4 -11 -15.5 -51t-20.5 -84l-68 -5l-7 6q1 4 3 16.5t2 19.5q0 27 -15.5 38.5t-50.5 11.5q-34 0 -56.5 -16t-22.5 -40q0 -18 14.5 -32
t43.5 -31q9 -4 27 -14z" />
    <glyph glyph-name="percent" unicode="%" horiz-adv-x="689" 
d="M488.5 453q-90.5 -138 -146.5 -225q-70 -111 -127 -201l-76 -120l-63 26l-6 14q20 31 87.5 132t121.5 186l261 413l60 -24l8 -19q-29 -44 -119.5 -182zM78.5 347q-33.5 37 -33.5 101q0 61 22.5 108t62 72.5t89.5 25.5q57 0 89 -37.5t32 -98.5q0 -59 -21 -106.5t-60 -74.5
t-90 -27q-57 0 -90.5 37zM276 484q0 32 -21 50.5t-60 18.5q-42 0 -64 -20.5t-22 -56.5q0 -35 21.5 -52t57.5 -17q88 0 88 77zM416 25q-33 37 -33 101q0 61 22 108t61.5 72.5t89.5 25.5q58 0 90 -37.5t32 -98.5q0 -59 -21 -106.5t-60.5 -74.5t-90.5 -27q-57 0 -90 37z
M612 162q0 32 -20.5 51t-59.5 19q-41 0 -63.5 -20.5t-22.5 -57.5q0 -35 22 -52t58 -17q86 0 86 77z" />
    <glyph glyph-name="ampersand" unicode="&#x26;" horiz-adv-x="571" 
d="M225.5 393.5q28.5 -27.5 76.5 -27.5l249 19q65 4 106 39l22 -16l-32 -63q-13 -26 -32.5 -37.5t-50.5 -11.5h-68l-5 -7q16 -24 16 -63q0 -69 -35 -123t-96.5 -84.5t-139.5 -30.5q-93 0 -148.5 43t-55.5 113q0 59 38.5 104.5t111.5 70.5q-92 45 -92 139q0 56 30 100.5
t83.5 70t122.5 25.5q70 0 158 -25l6 -10q-33 -87 -41 -153l-78 -5q1 5 4 21t3 27q0 58 -74 58q-51 0 -79 -25.5t-28 -73.5q0 -47 28.5 -74.5zM399.5 273.5q-13.5 22.5 -36.5 22.5h-113q-55 -26 -77.5 -53.5t-22.5 -68.5q0 -47 30 -74.5t82 -27.5q69 0 110 38t41 104
q0 37 -13.5 59.5z" />
    <glyph glyph-name="quotesingle" unicode="'" horiz-adv-x="174" 
d="M134 428l-49 -19l-14 4q16 113 21 227l100 14l6 -10q-28 -109 -64 -216z" />
    <glyph glyph-name="parenleft" unicode="(" horiz-adv-x="298" 
d="M140 514.5q47 69.5 98.5 105t51.5 29.5h11l26 -45l-2 -6q0 5 -32.5 -23t-62.5 -83t-40 -141l-21 -173q-5 -42 -5 -68q0 -69 18 -115t40 -71t22 -21l-1 -8l-45 -41h-8q0 -5 -37.5 24t-67.5 84.5t-30 142.5q0 30 4 58l21 173q13 109 60 178.5z" />
    <glyph glyph-name="parenright" unicode=")" horiz-adv-x="302" 
d="M164 -11.5q-47 -69.5 -99 -105t-52 -29.5h-10l-25 45l1 6q0 -5 32.5 23t62.5 83t41 141l21 173q4 32 4 66q0 70 -18 116.5t-40 71.5t-22 21l1 8l45 41h8q0 5 37.5 -24t67.5 -85t30 -144q0 -26 -3 -56l-22 -173q-13 -109 -60 -178.5z" />
    <glyph glyph-name="asterisk" unicode="*" horiz-adv-x="396" 
d="M285.5 691q-8.5 -34 -21.5 -73l-41 -5l-7 4q-1 35 -3 69t-3 44q7 2 31.5 8t47.5 6l7 -9q-2 -10 -10.5 -44zM141.5 649.5q30.5 -18.5 63.5 -42.5l-8 -41l-7 -5q-33 10 -66 18.5t-43 10.5q0 11 2.5 34.5t9.5 44.5l9 4q9 -5 39.5 -23.5zM369.5 567q-35.5 -3 -76.5 -2l-17 36
l2 10q33 11 64.5 23.5t40.5 16.5q5 -6 18 -28t20 -43l-6 -9q-10 -1 -45.5 -4zM278 448.5q-14 32.5 -26 71.5l29 29h10q20 -28 41.5 -54t28.5 -33q0 -2 -18.5 -23.5t-37.5 -34.5l-9 3q-4 9 -18 41.5zM136 499.5q27 23.5 61 46.5l36 -19l3 -8q-20 -28 -38 -57t-23 -38
q-7 2 -30.5 12t-41.5 23l-1 10q7 7 34 30.5z" />
    <glyph glyph-name="plus" unicode="+" horiz-adv-x="488" 
d="M315.5 419.5q-8.5 -52.5 -17.5 -114.5q60 1 110.5 3t67.5 3l5 -12l-22 -89l-173 -1l-20 -170l-88 -14l-9 7l23 177q-60 -1 -108 -1h-63l-6 11l25 87l164 -1l23 182l89 10l11 -7q-3 -18 -11.5 -70.5z" />
    <glyph glyph-name="comma" unicode="," horiz-adv-x="229" 
d="M60.5 130q20.5 10 38.5 10q29 0 47.5 -24t18.5 -65q0 -52 -43.5 -103t-108.5 -89l-36 29v16q32 23 52 54.5t20 60.5q0 20 -8.5 39.5t-21.5 32.5l2 14q19 15 39.5 25z" />
    <glyph glyph-name="hyphen" unicode="-" horiz-adv-x="312" 
d="M270 221l-231 -26l-8 12l17 77l160 18q34 4 51 6.5t21 3.5l8 -13z" />
    <glyph glyph-name="period" unicode="." horiz-adv-x="271" 
d="M54.5 6.5q-16.5 17.5 -16.5 46.5q0 40 25 65.5t65 25.5q30 0 47 -17t17 -47q0 -39 -25.5 -65t-64.5 -26q-31 0 -47.5 17.5z" />
    <glyph glyph-name="slash" unicode="/" horiz-adv-x="317" 
d="M292.5 483.5q-50.5 -130.5 -102.5 -268.5l-121 -325h-83l-8 11q12 29 52.5 129.5t75.5 195.5l166 449h79l10 -14q-18 -47 -68.5 -177.5z" />
    <glyph glyph-name="zero" unicode="0" horiz-adv-x="483" 
d="M70 43.5q-47 55.5 -47 152.5q0 91 34.5 162.5t95 111.5t136.5 40q83 0 129.5 -55.5t46.5 -151.5q0 -91 -34 -162.5t-94 -112t-136 -40.5q-84 0 -131 55.5zM342 154.5q40 38.5 40 103.5q0 54 -34 86.5t-94 32.5q-69 0 -109 -39t-40 -104q0 -54 33.5 -86t93.5 -32
q70 0 110 38.5z" />
    <glyph glyph-name="one" unicode="1" horiz-adv-x="352" 
d="M235.5 227.5q-11.5 -68.5 -11.5 -117.5q0 -25 8.5 -35.5t27.5 -10.5q17 0 30.5 1t17.5 1l2 -5l-19 -65q-15 1 -55.5 2.5t-83.5 1.5q-44 0 -95 -5.5t-56 -5.5l14 62q51 5 71.5 24t25.5 69l27 216q1 8 1 20q0 22 -9.5 29.5t-33.5 7.5q-11 0 -27.5 -2t-21.5 -3l-4 6l12 57
q51 5 119 15q70 10 100.5 15t33.5 5l7 -29q-19 -14 -29 -31t-18 -48q-22 -106 -33.5 -174.5z" />
    <glyph glyph-name="two" unicode="2" horiz-adv-x="466" 
d="M71 106q93 97 133 154.5t40 94.5q0 51 -53 51q-28 0 -59 -20.5t-58 -56.5h-13l-9 71q44 51 98 80.5t105 29.5q61 0 98.5 -31.5t37.5 -83.5q0 -35 -15.5 -67t-60 -83.5t-139.5 -145.5l3 -8h91q45 0 65.5 18.5t37.5 72.5l75 7q-6 -18 -22.5 -77t-26.5 -109l-16 -12
q-38 1 -154 5t-173 4l-64 -9l-3 32z" />
    <glyph glyph-name="three" unicode="3" horiz-adv-x="417" 
d="M79 1q64 0 108 30.5t44 76.5q0 36 -32.5 53.5t-99.5 18.5l-8 9l1 60l64 15q37 17 60.5 45t23.5 58q0 22 -14.5 35.5t-38.5 13.5t-53 -13.5t-58 -36.5h-12l-12 69q37 25 92 50t98 25q59 0 94.5 -28.5t35.5 -75.5q0 -45 -34 -86t-91 -64l-1 -7q58 -16 88.5 -47t30.5 -72
q0 -53 -48.5 -107t-122.5 -89t-145 -35q-37 0 -52 18t-15 60q0 15 1 23l15 14q33 -13 81 -13z" />
    <glyph glyph-name="four" unicode="4" horiz-adv-x="452" 
d="M-12 107l6 32l301 369l6 2l81 -11l-42 -342h78l7 -12l-19 -81l-77 3q-5 -54 -7.5 -94t-3.5 -53l-9 -9l-114 -12l-7 11q3 15 10 60t16 100q-152 4 -231 4q1 11 5 33zM225 157l22 180h-10l-141 -180h129z" />
    <glyph glyph-name="five" unicode="5" horiz-adv-x="412" 
d="M309.5 27q-49.5 -57 -124.5 -92.5t-147 -35.5q-34 0 -50 17.5t-16 59.5q0 15 1 24l14 14q36 -13 82 -13q66 0 111 30t45 76q0 36 -38 57t-131 35l-8 11q18 81 33.5 163t19.5 106l8 8l188 7q28 2 41.5 10t23.5 30l55 4l-44 -145l-13 -12q-15 1 -70.5 4.5t-120.5 3.5
l-19 -95q104 -19 156.5 -54t52.5 -95q0 -61 -49.5 -118z" />
    <glyph glyph-name="six" unicode="6" horiz-adv-x="447" 
d="M379 516.5q-50 -26.5 -103.5 -73.5t-87.5 -115l3 -6l21 10q46 26 66 28q68 0 105.5 -43t37.5 -106t-30 -113.5t-84 -80t-122 -29.5q-76 0 -119.5 50.5t-43.5 133.5q0 145 86 239.5t193 145t107 41.5l8 -5l13 -53q0 3 -50 -23.5zM185.5 264q-21.5 -9 -35.5 -19
q-4 -19 -7.5 -37t-3.5 -35q0 -50 19 -78t54 -28q43 0 66.5 31t23.5 85q0 40 -19 65t-53 25q-23 0 -44.5 -9z" />
    <glyph glyph-name="seven" unicode="7" horiz-adv-x="413" 
d="M53 -74l-8 25l270 445l-129 -8q-32 -2 -48.5 -9.5t-26 -25t-20.5 -53.5l-59 -6q5 19 19 83t24 120l7 5q10 -1 45 -2.5t72 -1.5h209l32 -47q-72 -124 -118 -207.5t-111 -206.5l-13 -26l-44 -112h-16z" />
    <glyph glyph-name="eight" unicode="8" horiz-adv-x="462" 
d="M61.5 216.5q38.5 39.5 88.5 62.5q-36 25 -56.5 57t-20.5 75q0 50 29 93t79 68.5t108 25.5q64 0 107.5 -34.5t43.5 -91.5q0 -53 -31 -90.5t-74 -58.5q39 -25 61 -56.5t22 -76.5q0 -55 -31 -101t-84.5 -73.5t-115.5 -27.5q-71 0 -117.5 35t-46.5 93q0 61 38.5 100.5z
M212 397.5q22 -19.5 68 -45.5q49 38 49 97q0 34 -17 53t-46 19q-33 0 -54.5 -22t-21.5 -52t22 -49.5zM275 85q26 25 26 62q0 22 -13.5 39t-31 28.5t-57.5 34.5q-66 -42 -66 -104q0 -36 22 -60.5t57 -24.5q37 0 63 25z" />
    <glyph glyph-name="nine" unicode="9" horiz-adv-x="447" 
d="M73 -19q50 26 103.5 73t88.5 115l-4 7q-7 -3 -38 -19.5t-48 -18.5q-68 0 -106 42.5t-38 106.5q0 63 30 113.5t84 80t122 29.5q77 0 120.5 -51t43.5 -134q0 -144 -86 -239t-193 -145.5t-107 -41.5l-8 6l-14 53q0 -3 50 23zM303 252q10 39 10 72q0 50 -18.5 78t-53.5 28
q-44 0 -67 -31t-23 -86q0 -39 19 -64t53 -25q33 0 80 28z" />
    <glyph glyph-name="colon" unicode=":" horiz-adv-x="229" 
d="M34.5 6.5q-16.5 17.5 -16.5 46.5q0 40 25 65.5t65 25.5q30 0 47 -17t17 -47q0 -39 -25.5 -65t-64.5 -26q-31 0 -47.5 17.5zM67.5 279.5q-16.5 17.5 -16.5 46.5q0 40 25 65.5t65 25.5q30 0 47 -17t17 -47q0 -39 -25.5 -65t-64.5 -26q-31 0 -47.5 17.5z" />
    <glyph glyph-name="semicolon" unicode=";" horiz-adv-x="229" 
d="M59.5 130q20.5 10 38.5 10q29 0 47.5 -24t18.5 -65q0 -52 -43.5 -103t-108.5 -89l-36 29v16q32 23 52 54.5t20 60.5q0 20 -8.5 39.5t-21.5 32.5l2 14q19 15 39.5 25zM87.5 279.5q-16.5 17.5 -16.5 46.5q0 40 25 65.5t65 25.5q30 0 47 -17t17 -47q0 -39 -25.5 -65
t-64.5 -26q-31 0 -47.5 17.5z" />
    <glyph glyph-name="less" unicode="&#x3c;" horiz-adv-x="453" 
d="M40 322l194 82l179 76l12 -8l10 -75q-17 -6 -75 -27.5t-107 -42.5l-124 -51l-1 -7l123 -60q53 -26 94.5 -46.5t54.5 -26.5l3 -15l-50 -64q-13 7 -54 28.5t-94 47.5l-172 81l-6 13z" />
    <glyph glyph-name="equal" unicode="=" horiz-adv-x="488" 
d="M471 299l-220 -1l-219 -1l-6 11l25 87l225 -1q48 0 118.5 2.5t92.5 3.5l5 -12zM449 123l-219 -1l-220 -1l-6 10l25 88l225 -1q49 0 119 2.5t92 3.5l5 -12z" />
    <glyph glyph-name="greater" unicode="&#x3e;" horiz-adv-x="453" 
d="M423 215l-194 -82l-180 -76l-11 8l-11 75q18 6 76 28t107 43l124 50l1 7l-124 61l-148 72l-3 15l49 64q13 -7 54 -28t94 -47t103.5 -50t68.5 -32l6 -13z" />
    <glyph glyph-name="question" unicode="?" horiz-adv-x="357" 
d="M93 360l112 63q60 36 60 82q0 43 -43 67t-122 29l-6 14l47 83l15 6q66 -2 118.5 -23.5t82 -57.5t29.5 -79q0 -46 -21.5 -79.5t-54.5 -58t-108 -72.5l-3 -8l3 -83l-7 -11l-88 -18l-11 6l-7 126zM69.5 6.5q-16.5 17.5 -16.5 46.5q0 40 25 65.5t65 25.5q31 0 47.5 -17
t16.5 -47q0 -39 -25 -65t-65 -26q-31 0 -47.5 17.5z" />
    <glyph glyph-name="at" unicode="@" horiz-adv-x="833" 
d="M452 -1.5q-12 10.5 -12 29.5q0 11 12.5 68.5t22.5 98.5l-8 1q-44 -82 -83.5 -131t-79.5 -77q-53 0 -82.5 39t-29.5 106q0 80 36 157.5t92 126t112 48.5l88 -17l7 22l11 6l78 -13l8 -17q-4 -16 -18.5 -73.5t-31.5 -138.5t-28 -152l6 -5q89 0 140 59.5t51 157.5
q0 83 -36.5 143.5t-104 92.5t-158.5 32q-99 0 -176.5 -47.5t-120.5 -129.5t-43 -180q0 -106 42 -186.5t127 -127t209 -49.5v-16l-31 -49q-136 3 -234.5 55t-149.5 142t-51 205q0 120 60 226t164.5 170.5t231.5 64.5q106 0 187 -40t125.5 -111.5t44.5 -163.5q0 -95 -41 -172
t-119 -121t-185 -44q-20 0 -32 10.5zM376 137q27 35 58 94.5t57 127.5q-51 29 -89 29q-21 0 -42 -29t-34 -75.5t-13 -95.5q0 -36 6 -61t16 -25q14 0 41 35z" />
    <glyph glyph-name="A" unicode="A" horiz-adv-x="603" 
d="M539.5 79q14.5 -15 46.5 -19l4 -6l-14 -57q-13 1 -47.5 2t-70.5 1q-51 0 -100 -3.5l-63 -4.5l-4 8l11 57q49 4 65 12.5t16 30.5q0 7 -1 14.5t-2 14.5l-10 80l-87 1q-16 0 -94 -6l-33 -80q-10 -24 -10 -37q0 -14 9.5 -20.5t29.5 -6.5h43l3 -6l-13 -60q-13 1 -57 3.5
t-83 2.5q-40 0 -73 -1t-44 -2l15 64q24 4 40.5 19t31.5 49l232 507l151 17l10 -6q8 -56 33 -231.5t45 -285.5q6 -36 20.5 -51zM291 285q30 0 72 4l-28 225h-14l-98 -229h68z" />
    <glyph glyph-name="B" unicode="B" horiz-adv-x="605" 
d="M67.5 -4q-46.5 -4 -60.5 -6l14 64q43 8 60 24.5t22 56.5l48 394q2 16 2 21q0 16 -6 22.5t-20 6.5q-10 0 -20 -1t-13 -1l-6 8l16 59q16 0 56.5 -1.5t75.5 -1.5t75.5 2t56.5 3q94 0 148 -35.5t54 -99.5q0 -108 -124 -172q58 -18 89 -53.5t31 -83.5q0 -62 -32.5 -110
t-93 -75t-139.5 -27q-13 0 -61 4q-66 6 -92 6q-34 0 -80.5 -4zM302.5 362q32.5 -4 43.5 -4q0 -3 24 11.5t43.5 42t19.5 70.5q0 87 -123 87q-10 0 -14 -3.5t-6 -15.5q-12 -64 -24 -140l-7 -43q11 -1 43.5 -5zM224 131q-4 -32 15.5 -45.5t69.5 -13.5q53 0 83.5 31t30.5 84
q0 37 -22 61.5t-65 34.5l-88 -1z" />
    <glyph glyph-name="C" unicode="C" horiz-adv-x="593" 
d="M103 59.5q-70 71.5 -70 196.5q0 119 45.5 209t129.5 139t195 49q36 0 79.5 -5.5t75 -11t40.5 -7.5l4 -13q-2 -7 -10 -32t-19 -66.5t-20 -87.5l-93 -6q1 8 5 31t4 35q0 71 -101 71q-86 0 -135 -74t-49 -211q0 -96 35 -147.5t100 -51.5q54 0 86.5 32.5t54.5 107.5l94 7
q-5 -17 -19.5 -75t-22.5 -109l-10 -12q0 -1 -31 -11.5t-77.5 -19.5t-99.5 -9q-121 0 -191 71.5z" />
    <glyph glyph-name="D" unicode="D" horiz-adv-x="668" 
d="M217.5 -5q-49.5 5 -83.5 5q-32 0 -72.5 -4t-53.5 -6l15 65q42 8 58.5 25t22.5 60l47 384q2 20 2 25q0 16 -5.5 22.5t-19.5 6.5q-11 0 -20.5 -1t-12.5 -1l-4 9l14 59q14 0 50.5 -1.5t71.5 -1.5q28 0 78 2t66 3q88 0 152.5 -31t99.5 -89t35 -138q0 -113 -49 -204
t-134.5 -143.5t-191.5 -52.5q-16 2 -65.5 7zM297 560q-6 -5 -9 -20q-63 -387 -63 -416q0 -31 16.5 -42.5t58.5 -11.5q64 0 110.5 37t72 106t25.5 162q0 190 -190 190q-15 0 -21 -5z" />
    <glyph glyph-name="E" unicode="E" horiz-adv-x="576" 
d="M234.5 81q11.5 -7 45.5 -7q64 0 93 8t44 31t29 77l81 6l6 -9q-5 -15 -21 -70t-29 -114l-10 -10q-30 1 -127.5 4t-171.5 3q-53 0 -103 -4t-64 -6l15 65q41 6 58 24t22 62l48 384l2 25q0 17 -6 23t-21 6q-9 0 -17.5 -1t-11.5 -1l-5 8l14 59q17 -1 67.5 -2t108.5 -1
q205 0 295 12l6 -10q-2 -7 -9 -31t-17.5 -66t-17.5 -83l-88 -6q2 6 5.5 25t3.5 33q0 21 -9.5 30.5t-33.5 13t-74 3.5q-24 0 -34.5 -2t-14.5 -9t-7 -23l-26 -160l90 -1q20 0 60 4t53 5l6 -9l-23 -83q-13 1 -49.5 2t-76.5 1q-23 0 -74 -6q-11 -70 -11 -69q-2 -18 -7 -51.5
t-5 -48.5q0 -24 11.5 -31z" />
    <glyph glyph-name="F" unicode="F" horiz-adv-x="513" 
d="M224 110q0 -19 8 -27.5t27 -8.5q16 0 37 2t27 3l6 -10l-18 -73q-17 1 -61.5 2.5t-88.5 1.5q-45 0 -92.5 -4.5t-61.5 -6.5l14 65q42 7 58.5 25t22.5 62l48 384l2 25q0 17 -6 23t-21 6q-9 0 -17.5 -1t-11.5 -1l-5 8l14 59q17 -1 67.5 -2t108.5 -1q188 0 272 12l6 -10
q-5 -15 -18.5 -69t-23.5 -112l-86 -6q1 6 4.5 25.5t3.5 33.5q0 20 -8.5 30t-28.5 13.5t-60 3.5q-24 0 -34.5 -2t-14.5 -9t-7 -23l-28 -177l90 -1q18 0 54 4t48 5l6 -9l-23 -83q-12 1 -45 2t-70 1q-34 0 -74 -7l-18 -125q-2 -11 -2 -28z" />
    <glyph glyph-name="G" unicode="G" horiz-adv-x="630" 
d="M547 325.5q29 1.5 38 3.5l2 -37q-18 -12 -28.5 -31.5t-15.5 -51.5q-5 -31 -10.5 -76t-5.5 -59l1 -33l-10 -12q0 -1 -31.5 -12t-81 -20t-111.5 -9q-121 0 -191 71.5t-70 196.5q0 119 45.5 209t129.5 139t195 49q36 0 79.5 -5.5t75 -11t40.5 -7.5l4 -13q-2 -6 -10 -29.5
t-19 -63.5t-20 -87l-93 -6q1 7 5 28t4 33q0 70 -101 70q-86 0 -135 -74t-49 -211q0 -96 35 -147.5t100 -51.5q26 0 48 6t35 12.5t16 8.5l12 97q1 7 1 18q0 18 -8 24t-30 6h-51l-3 8l18 69q1 0 44 -1t90 -1q27 0 56 1.5z" />
    <glyph glyph-name="H" unicode="H" horiz-adv-x="720" 
d="M734 649l-12 -64q-37 -5 -50 -15.5t-18 -39.5q-25 -147 -43.5 -273.5t-18.5 -150.5t7.5 -33.5t26.5 -9.5q21 0 36 3q1 -2 2 -3.5t1 -3.5l-15 -62q-81 3 -119 3h-40l-68 -1q-19 -1 -47 -1l16 63q40 1 56.5 20t23.5 74l16 130l-105 1q-20 0 -57 -3t-81 -7l-15 -111l-3 -25
q-4 -28 -4 -39q0 -8 1 -11q1 -16 7.5 -22t22.5 -6q12 0 36 3l4 -6l-17 -62q-69 3 -115 3q-34 0 -81 -3t-73 -6l14 62q32 7 47.5 16.5t23 29t11.5 57.5l46 371q2 18 2 23q0 17 -6.5 23t-23.5 6l-29 -1l-5 8l15 57l115 -2q40 0 144 8l-13 -64q-26 -5 -38 -11.5t-18 -20
t-11 -42.5l-23 -145q84 -2 124 -2q47 0 116 6l20 157q2 16 2 22q0 17 -7 23.5t-24 6.5l-30 -1l-4 8l15 57l133 -2q48 0 130 8z" />
    <glyph glyph-name="I" unicode="I" horiz-adv-x="352" 
d="M243.5 270q-21.5 -139 -21.5 -167q0 -23 7.5 -32t24.5 -9q16 0 27.5 1t14.5 2l4 -6l-16 -62q-16 0 -59 1.5t-83 1.5q-34 0 -78 -3.5t-57 -5.5l14 62q44 9 60.5 26t20.5 59l48 389q2 18 2 23q0 16 -6.5 22.5t-23.5 6.5l-34 -1l-4 8l14 57q28 0 48 -1l86 -1q27 0 74.5 3.5
t62.5 4.5l-14 -64q-37 -5 -50.5 -16t-18.5 -39q-21 -121 -42.5 -260z" />
    <glyph glyph-name="J" unicode="J" horiz-adv-x="320" 
d="M143 550q0 17 -6.5 23t-22.5 6q-12 0 -24 -1.5t-17 -1.5l-3 8l13 57h119q41 1 86.5 4.5t59.5 4.5l-13 -65q-32 -6 -42.5 -15.5t-15.5 -39.5q-12 -67 -33 -207t-32 -220q-13 -100 -68 -160.5t-162 -94.5l-22 39l3 11q44 28 68.5 55.5t38 66t21.5 102.5l50 405q2 18 2 23z
" />
    <glyph glyph-name="K" unicode="K" horiz-adv-x="635" 
d="M152 550q0 17 -6.5 23t-23.5 6l-29 -1l-5 8l15 58q16 0 56.5 -1.5t72.5 -1.5q26 0 72 3.5t61 4.5l-13 -64q-37 -7 -51 -19.5t-18 -39.5l-58 -396q-3 -19 -3 -33q0 -20 7.5 -27.5t24.5 -7.5q14 0 24.5 1t13.5 2l4 -6l-16 -62q-16 0 -57.5 1.5t-80.5 1.5q-44 0 -82.5 -1
t-51.5 -2l16 62q43 6 58.5 21.5t19.5 57.5l48 389q2 18 2 23zM432 497q35 33 35 56q0 13 -11 19.5t-36 8.5l-3 6l15 60q13 -1 54 -3.5t66 -2.5q33 0 66.5 1.5t45.5 2.5l5 -10l-14 -55q-33 -13 -60 -35t-71 -69l-128 -131l104 -202q23 -45 45.5 -65t53.5 -22l6 -8l-14 -51
q-15 -2 -57 -7t-53 -5q-30 0 -53.5 20.5t-43.5 63.5l-117 247l5 21z" />
    <glyph glyph-name="L" unicode="L" horiz-adv-x="511" 
d="M75 -4q-49 -4 -63 -6l16 65q37 6 53 24.5t21 61.5l48 386q1 8 1 21q0 18 -6.5 24.5t-23.5 6.5l-29 -1l-4 8l14 57q27 0 47 -1l83 -1q28 0 79.5 3.5t68.5 4.5l-15 -67q-33 -5 -47.5 -11t-22 -20t-13.5 -46q-16 -83 -37 -223.5t-21 -165.5t11.5 -33.5t43.5 -8.5
q48 0 73 11.5t40 42t31 97.5l81 8l6 -9q-5 -18 -21.5 -84t-32.5 -138l-10 -10q-26 1 -112 4.5t-157 3.5q-53 0 -102 -4z" />
    <glyph glyph-name="M" unicode="M" horiz-adv-x="811" 
d="M235 454h-8q-64 -356 -64 -366q0 -14 6.5 -20t20.5 -6l33 2l4 -6l-18 -62q-57 4 -114 4q-21 0 -50 -2.5t-47 -5.5l15 64q28 4 43 20t24 53q22 100 53 250.5t31 163.5q0 19 -15 28.5t-52 12.5l-5 6l15 56q105 -5 122 -5q20 0 104 4q14 -102 34.5 -220t38.5 -201h8
q69 155 175 419q14 1 53 -1l51 -1q18 0 111 6l4 -4l-13 -58q-41 -4 -57.5 -15t-19.5 -39q-4 -36 -9.5 -155t-9.5 -221q-2 -55 5.5 -73.5t29.5 -18.5l28 2q1 -1 2 -2.5t1 -3.5l-16 -62q-75 3 -97 3q-29 0 -73.5 -2.5t-67.5 -5.5l16 65q29 3 42.5 14.5t16.5 34.5
q4 45 10.5 140t12.5 208h-8q-36 -79 -206 -462l-69 -8q-42 222 -91 470z" />
    <glyph glyph-name="N" unicode="N" horiz-adv-x="702" 
d="M548 536q2 23 -4 33t-22 10l-34 -1l-3 7l15 60q13 -1 49.5 -2.5t73.5 -1.5q29 0 65.5 2.5t47.5 3.5l-12 -64q-33 -4 -48.5 -19t-20.5 -44l-79 -535l-100 -14q-75 159 -151.5 309.5t-76.5 148.5h-9l-42 -323q-1 -6 -1 -15q0 -16 7 -22.5t23 -6.5l41 2l5 -6l-17 -62
q-13 1 -49.5 2.5t-73.5 1.5q-33 0 -70.5 -3.5t-48.5 -4.5l16 64q30 4 45.5 18.5t19.5 44.5l61 401q1 6 1 15q0 23 -15.5 32.5t-56.5 14.5q-1 2 -2.5 4t-2.5 5l13 55q11 -1 46 -3t64 -2q26 0 54.5 1.5t37.5 2.5q44 -97 90.5 -190.5t77.5 -154t40 -76.5h9z" />
    <glyph glyph-name="O" unicode="O" horiz-adv-x="651" 
d="M155.5 21q-58.5 33 -90.5 93t-32 141q0 117 43 207.5t122 140.5t182 50q79 0 138 -32t91 -91.5t32 -140.5q0 -117 -44 -208t-123.5 -142t-183.5 -51q-76 0 -134.5 33zM442 150q48 79 48 220q0 90 -36 140.5t-98 50.5q-53 0 -92.5 -35.5t-61 -103t-21.5 -160.5
q0 -90 34.5 -140.5t95.5 -50.5q83 0 131 79z" />
    <glyph glyph-name="P" unicode="P" horiz-adv-x="556" 
d="M145 642l79 -1q35 0 75 2t56 3q112 0 168.5 -46.5t56.5 -117.5q0 -65 -36 -123.5t-95 -94t-123 -35.5h-87l-16 -106q-2 -18 -2 -23q0 -21 9.5 -29.5t31.5 -8.5q13 0 26 1t17 2l3 -6l-17 -62q-14 0 -50 1.5t-70 1.5q-33 0 -87.5 -3t-73.5 -5l16 65q40 7 56 24t21 59
l47 385l2 24q0 17 -6 23.5t-20 6.5q-11 0 -20.5 -1t-12.5 -1l-5 8l15 58q24 0 42 -1zM416.5 355q27.5 41 27.5 106q0 54 -32 79t-99 25q-15 0 -18 -2.5t-5 -14.5q-22 -117 -38 -233l83 -13q54 12 81.5 53z" />
    <glyph glyph-name="Q" unicode="Q" horiz-adv-x="655" 
d="M746 -145q-8 -6 -36 -25.5t-58 -37.5t-42 -18q-45 0 -83 16t-92.5 60t-153.5 138q-74 2 -130 35.5t-87 93t-31 138.5q0 117 43.5 207.5t122 140.5t181.5 50q78 0 137 -32.5t91.5 -92t32.5 -139.5q0 -141 -64 -243.5t-173 -139.5v-2q72 -59 132.5 -87t113.5 -28
q28 0 52.5 4t31.5 6l6 -6zM214 121.5q35 -51.5 96 -51.5q55 0 96 35.5t63 103t22 160.5q0 91 -36 142t-99 51q-53 0 -93 -35.5t-62 -103t-22 -160.5q0 -90 35 -141.5z" />
    <glyph glyph-name="R" unicode="R" horiz-adv-x="619" 
d="M226 139q-3 -22 -3 -36q0 -26 12.5 -33.5t50.5 -8.5l2 -5l-16 -60q-17 0 -61 1.5t-81 1.5q-35 0 -73.5 -2t-49.5 -3l17 65q42 5 58 21.5t21 59.5l48 389q1 8 1 20q0 17 -6 23.5t-20 6.5q-11 0 -20.5 -1t-12.5 -1l-5 8l16 59q13 0 49 -1.5t71 -1.5q24 0 70.5 2t61.5 3
q102 0 162.5 -39.5t60.5 -109.5q0 -67 -38 -121t-112 -91l67 -144q22 -46 44.5 -66.5t53.5 -20.5l5 -9l-13 -50l-114 -11q-64 0 -94 93l-62 177h-74zM407.5 374.5q33.5 33.5 33.5 98.5q0 96 -133 96q-10 0 -13.5 -4.5t-6.5 -18.5q-21 -108 -33 -206l87 -10q32 11 65.5 44.5z
" />
    <glyph glyph-name="S" unicode="S" horiz-adv-x="520" 
d="M109 -3.5q-39 8.5 -65 18.5t-26 11l-6 13q2 7 9 32t15 63t13 75l80 7q-4 -40 -4 -53q0 -51 21 -71t72 -20q50 0 81 24t31 63q0 31 -26 53.5t-78 50.5q-51 27 -81.5 48t-52.5 53t-22 75q0 61 35 109.5t97 76.5t140 28q42 0 80 -6t61.5 -12t29.5 -8l5 -12
q-5 -14 -18.5 -64.5t-24.5 -107.5l-73 -6l-8 7q1 6 4.5 23.5t3.5 29.5q0 36 -20.5 51.5t-65.5 15.5q-44 0 -73.5 -23t-29.5 -58q0 -25 18 -45t53 -40q12 -7 22.5 -12.5t18.5 -10.5q49 -27 79 -47.5t51.5 -51.5t21.5 -72q0 -64 -35 -113t-99.5 -76t-149.5 -27q-45 0 -84 8.5z
" />
    <glyph glyph-name="T" unicode="T" horiz-adv-x="548" 
d="M170.5 556.5q-23.5 -8.5 -34.5 -32.5t-25 -87l-81 -5q4 19 16 84t21 126l12 10l94 -11h301l99 11l10 -10q-7 -61 -11 -124t-5 -81l-80 -5q1 67 -4 91.5t-24.5 33t-72.5 10.5q-14 -77 -40 -252t-26 -201q0 -27 10.5 -38.5t34.5 -11.5q21 0 35 1t18 2l3 -5l-17 -66
q-19 1 -69 2.5t-98 1.5q-33 0 -88 -2.5t-73 -3.5l16 63q45 4 65 12.5t29 29t15 66.5l49 402q-56 -2 -79.5 -10.5z" />
    <glyph glyph-name="U" unicode="U" horiz-adv-x="633" 
d="M208 198q0 -61 26 -92.5t78 -31.5q120 0 136 136q9 77 20 176t15 139q1 10 1 24q0 18 -5.5 24t-19.5 6q-9 0 -19 -1t-14 -1l-1 4l16 63q12 0 45 -1.5t66 -1.5q31 0 68 3t48 4l-14 -64q-37 -7 -48.5 -16.5t-14.5 -34.5l-39 -314q-14 -113 -83 -172t-188 -59
q-101 0 -152.5 44.5t-51.5 130.5q0 20 3 42l39 320q2 20 2 26q0 16 -6 22t-21 6q-9 0 -18.5 -1t-12.5 -1l-1 4l16 63q14 -1 53 -2t83 -1q25 0 64 3t51 4l-14 -65q-32 -5 -44.5 -16t-16.5 -38l-43 -291q-3 -21 -3 -40z" />
    <glyph glyph-name="V" unicode="V" horiz-adv-x="602" 
d="M85 563.5q-15 14.5 -45 15.5l-3 7l15 58q13 -1 48.5 -2t71.5 -1q44 0 95.5 3.5t66.5 5.5l3 -8l-12 -58q-34 -3 -50.5 -8t-22.5 -14t-6 -26q0 -39 16.5 -196.5t22.5 -212.5h14q56 124 115.5 264t59.5 160q0 15 -10.5 22t-35.5 7h-39l-4 7l14 60q14 -1 60.5 -3.5t84.5 -2.5
q39 0 70.5 1t41.5 2l-14 -64q-24 -4 -35.5 -13.5t-24.5 -37.5l-237 -524l-158 -20q-8 56 -34.5 233t-47.5 300q-5 31 -20 45.5z" />
    <glyph glyph-name="W" unicode="W" horiz-adv-x="928" 
d="M483 345h-9l-144 -340l-154 -20q-7 56 -30 233.5t-42 299.5q-6 31 -20 45t-42 16l-4 7l15 58q12 -1 46.5 -2t69.5 -1q48 0 96 3.5t62 5.5l4 -8l-12 -58q-48 -5 -64.5 -15t-16.5 -33q0 -43 15.5 -199t21.5 -210h13q16 39 30.5 73.5t26.5 62.5q22 53 95 227l2 21q0 9 -2 14
t-3 8q-3 26 -16.5 35.5t-47.5 10.5l-3 7l15 58q14 0 53 -1.5t77 -1.5q45 0 94 3.5t64 5.5l3 -8l-12 -58q-49 -4 -65.5 -14t-16.5 -33q0 -41 16 -198t22 -212h13q56 130 113.5 270.5t57.5 157.5q0 14 -10 19.5t-35 5.5h-34l-4 7l15 60q13 -1 57 -3.5t80 -2.5q37 0 67.5 1
t40.5 2l-15 -64q-22 -4 -33 -13.5t-24 -37.5l-233 -524l-153 -20z" />
    <glyph glyph-name="X" unicode="X" horiz-adv-x="657" 
d="M312 0l13 58q60 3 60 32q0 12 -11 34l-68 129l-77 -94q-25 -31 -33.5 -46t-8.5 -27t9 -18.5t32 -7.5l3 -7l-13 -59q-15 1 -59 4t-65 3q-24 0 -61.5 -2t-49.5 -3l-3 10l12 57q60 21 157 135l113 132l-85 165q-20 39 -46 57t-67 26l-2 5l14 61q14 -1 56.5 -2t95.5 -1
q38 0 85.5 3.5t62.5 4.5l4 -9l-12 -55q-65 -3 -65 -33q0 -15 15.5 -50t51.5 -105q25 32 35 44q40 50 61 79.5t21 41.5q0 11 -9.5 16t-32.5 6l-1 5l12 56l45 -2q52 -2 82 -2q29 0 63 1.5t44 2.5l3 -7l-12 -59q-44 -14 -71.5 -35t-69.5 -70l-123 -150l93 -175q24 -42 50.5 -62
t66.5 -23l-13 -66q-14 0 -51 1.5t-74 1.5q-31 0 -92 -3.5t-81 -4.5z" />
    <glyph glyph-name="Y" unicode="Y" horiz-adv-x="574" 
d="M277 454q23 -78 27 -90l7 -23h9l99 172q19 32 19 49q0 11 -9.5 16t-34.5 6l-2 5l14 56l47 -2q52 -2 80 -2t59 1.5t40 2.5l3 -7l-14 -59q-41 -12 -67 -38.5t-66 -89.5l-114 -178q-14 -22 -19.5 -43.5t-13.5 -76.5l-3 -23q-2 -20 -2 -27q0 -22 8.5 -30.5t30.5 -8.5
q17 0 30.5 1t17.5 2l3 -5l-16 -66q-18 1 -65.5 2.5t-92.5 1.5q-34 0 -84 -4.5t-66 -6.5l15 65q39 6 58 15.5t27.5 27.5t12.5 53l4 32q2 20 2 27q0 32 -17 77l-71 190q-18 51 -36.5 72.5t-60.5 29.5l-3 5l16 61q14 0 51 -1.5t72 -1.5q31 0 84.5 3.5t70.5 4.5l4 -9l-13 -55
q-37 -3 -50.5 -10t-13.5 -23q0 -20 23 -98z" />
    <glyph glyph-name="Z" unicode="Z" horiz-adv-x="559" 
d="M88 3l-74 -8l-18 43l404 532l-125 -8q-43 -3 -66.5 -14.5t-37 -37t-22.5 -74.5l-82 -6q5 20 19.5 88t22.5 126l12 9l170 -11l281 -3l12 -40q-180 -218 -412 -528l151 11q49 4 79.5 39.5t52.5 113.5l81 7q-3 -10 -11.5 -43.5t-20.5 -86.5t-19 -96l-19 -19z" />
    <glyph glyph-name="bracketleft" unicode="[" horiz-adv-x="306" 
d="M63.5 58q21.5 135 28.5 197q8 63 20 198.5t16 180.5l211 11l4 -8l-14 -55l-102 -21l-75 -610l100 -21l3 -9l-13 -54l-207 11q7 45 28.5 180z" />
    <glyph glyph-name="backslash" unicode="\" horiz-adv-x="317" 
d="M157 675l56 -449q12 -95 27 -195.5t20 -129.5l-10 -11h-83l-41 325q-18 138 -36.5 268.5t-25.5 177.5l14 14h79z" />
    <glyph glyph-name="bracketright" unicode="]" horiz-adv-x="306" 
d="M250 455q-21 -134 -29 -197q-7 -63 -19.5 -199t-16.5 -181l-212 -11l-3 8l14 55l102 21l75 610l-100 21l-3 9l14 54l206 -11q-7 -45 -28 -179z" />
    <glyph glyph-name="asciicircum" unicode="^" horiz-adv-x="471" 
d="M375 282l52 -166l-67 -41l-16 4l-50 165l-40 138h-7l-63 -125q-26 -49 -54.5 -106.5t-36.5 -74.5l-72 19l-6 13l95 178l102 192l95 4l12 -8z" />
    <glyph glyph-name="underscore" unicode="_" horiz-adv-x="437" 
d="M386 -176l-269 -1q-68 -1 -167 -1l-7 14l20 74l233 -1q43 0 125 2q79 2 79 3l6 -14z" />
    <glyph glyph-name="grave" unicode="`" horiz-adv-x="384" 
d="M129 734l13 1q14 -16 65 -68.5t102 -101.5l-30 -38l-14 -4q-58 43 -115 81t-73 48l-1 14z" />
    <glyph glyph-name="a" unicode="a" horiz-adv-x="491" 
d="M404 112q13 10 47 41l17 -2l16 -35q-73 -76 -109 -102t-65 -26q-20 0 -30.5 9.5t-10.5 26.5q0 20 35 171l-8 1q-45 -80 -83.5 -129.5t-78.5 -78.5q-53 0 -82.5 38t-29.5 106q0 80 35.5 157.5t91 126.5t113.5 49l87 -17l8 22l11 6l77 -13l8 -17q-22 -84 -41.5 -178
t-30.5 -162l3 -4q7 0 20 10zM207 138.5q27 36.5 57.5 96t55.5 124.5q-21 13 -45 21t-42 8q-22 0 -43 -29t-34 -75.5t-13 -95.5q0 -37 6.5 -61.5t16.5 -24.5q14 0 41 36.5z" />
    <glyph glyph-name="b" unicode="b" horiz-adv-x="485" 
d="M100 439.5q27 178.5 27 194.5q0 19 -9 28t-29 9h-35l9 57q78 0 191 9l12 -16q-26 -114 -51.5 -245.5t-40.5 -228.5l6 -1q46 91 81 141.5t73 80.5q59 0 93.5 -43.5t34.5 -117.5q0 -81 -35 -154.5t-92 -118t-121 -44.5q-42 0 -88.5 11.5t-75.5 28.5l-11 23q34 208 61 386.5
zM249 285.5q-42 -74.5 -84 -186.5q19 -10 45 -17t42 -7q24 0 45 26t33.5 69t12.5 92q0 40 -9 69t-22 29q-21 0 -63 -74.5z" />
    <glyph glyph-name="c" unicode="c" horiz-adv-x="366" 
d="M191.5 359.5q-22.5 -26.5 -36 -71t-13.5 -95.5t15.5 -80.5t43.5 -29.5q26 0 51.5 22.5t42.5 59.5l17 -2l32 -40q-26 -57 -78.5 -96t-104.5 -39q-63 0 -99.5 46t-36.5 125q0 81 35 153.5t92.5 116.5t122.5 44q28 0 53.5 -6t42.5 -17l5 -14l-42 -95l-27 -2q-28 47 -67 47
q-26 0 -48.5 -26.5z" />
    <glyph glyph-name="d" unicode="d" horiz-adv-x="493" 
d="M403.5 113q13.5 11 47.5 40l17 -2l16 -35q-71 -74 -107.5 -101t-64.5 -27q-43 0 -43 38q0 17 35 169l-8 1q-44 -80 -82.5 -129.5t-79.5 -78.5q-53 0 -82.5 38.5t-29.5 106.5q0 79 35.5 156.5t91.5 126.5t113 49l70 -15l24 177q1 4 1 11q0 17 -9 25t-29 8h-35l8 57
q47 0 109.5 3.5t81.5 5.5l12 -16q-6 -31 -26 -130.5t-47 -246t-41 -238.5l3 -4q6 0 19.5 11zM233 179q46 77 86 180q-17 11 -42 20t-46 9t-41.5 -29t-33.5 -75.5t-13 -94.5q0 -38 6 -62.5t16 -24.5q22 0 68 77z" />
    <glyph glyph-name="e" unicode="e" horiz-adv-x="391" 
d="M357.5 301.5q-24.5 -33.5 -77 -61.5t-141.5 -57q0 -46 17 -73t47 -27q28 0 54.5 20.5t46.5 58.5l18 -2l31 -39q-27 -57 -81 -95t-109 -38q-64 0 -101 47t-37 127q0 79 35.5 151t94 116t122.5 44q49 0 77 -25t28 -69t-24.5 -77.5zM181 346.5q-28 -40.5 -38 -103.5
q69 23 101 49t32 59q0 17 -8.5 26.5t-24.5 9.5q-34 0 -62 -40.5z" />
    <glyph glyph-name="f" unicode="f" horiz-adv-x="288" 
d="M27 444l83 12l7 66q7 58 44 109t91.5 81t112.5 30q27 0 56.5 -4t48.5 -11l4 -11l-43 -94l-20 -3q-53 38 -94 38q-36 0 -55.5 -24t-26.5 -77l-12 -102l136 1l5 -5l-10 -56l-129 1l-9 -5l-47 -434q-6 -53 -34.5 -98.5t-71.5 -72.5t-89 -27q-39 0 -70 15t-39 38
q6 22 21.5 55.5t28.5 50.5h16q3 -81 71 -81q28 0 47.5 21.5t21.5 57.5q3 25 5 74q0 16 2 46l26 349l-8 8l-72 1l-3 5z" />
    <glyph glyph-name="g" unicode="g" horiz-adv-x="470" 
d="M6.5 -222.5q-41.5 18.5 -64 49.5t-19.5 67l3 9q45 31 173 101l1 8q-29 15 -45.5 50.5t-16.5 84.5q0 75 35 149.5t90 122t110 47.5l88 -18l8 23l12 5l77 -13l11 -17q-25 -50 -41 -100t-21 -89q-2 -16 -4.5 -53.5t-3.5 -56.5q-6 -105 -10 -131q-6 -55 -54 -115.5
t-114.5 -101t-122.5 -40.5q-50 0 -91.5 18.5zM246 181q40 69 85 179q-56 28 -89 28q-21 0 -40.5 -27t-31.5 -70.5t-12 -88.5q0 -37 8.5 -63.5t19.5 -26.5q20 0 60 69zM240 -114q39 39 47 108l23 192l-9 3q-53 -91 -81.5 -128.5t-59.5 -59.5l-31 -21q-50 -34 -70 -49t-20 -22
q0 -15 15 -29.5t39 -23.5t49 -9q59 0 98 39z" />
    <glyph glyph-name="h" unicode="h" horiz-adv-x="505" 
d="M405 113q12 9 49 42l17 -3l16 -35q-66 -70 -104.5 -99t-66.5 -29q-47 0 -47 43q0 17 8.5 49t25.5 87q13 43 24 84.5t11 59.5q0 17 -7 26.5t-20 9.5q-25 0 -67 -68.5t-86 -178.5l-9 -73q-2 -12 -35.5 -24t-65.5 -12l-13 15q14 89 53 337.5t42 285.5q2 22 -6.5 31.5
t-30.5 9.5h-35l9 57q46 0 109 3.5t82 5.5l11 -16q-5 -20 -20.5 -93t-36 -178.5t-35.5 -202.5l6 -1q43 88 85 146t80 81q49 0 80 -28.5t31 -72.5q0 -23 -11 -62t-32 -100q-24 -69 -32 -103l3 -3q6 0 18 9z" />
    <glyph glyph-name="i" unicode="i" horiz-adv-x="282" 
d="M187 110q11 8 50 43l17 -2l16 -35q-64 -69 -103.5 -98.5t-67.5 -29.5q-24 0 -35 12t-11 37q48 291 48 320q0 20 -9 29t-29 9h-35l9 58q62 0 190 8l12 -15q-21 -71 -41 -167.5t-31 -172.5l3 -4q6 0 17 8zM126.5 569.5q-15.5 16.5 -15.5 44.5q0 38 25 63.5t62 25.5
q29 0 45 -17t16 -44q0 -38 -25 -63.5t-63 -25.5q-29 0 -44.5 16.5z" />
    <glyph glyph-name="j" unicode="j" horiz-adv-x="270" 
d="M144.5 588q-15.5 16 -15.5 43q0 40 24.5 64.5t62.5 24.5q27 0 42 -15.5t15 -42.5q0 -39 -24.5 -64.5t-61.5 -25.5q-27 0 -42.5 16zM99.5 -137.5q-50.5 -65.5 -135.5 -106.5l-27 30l3 11q57 42 82 92t38 147q8 45 28.5 172.5t20.5 147.5t-9 29.5t-30 9.5h-35l10 58
q46 0 107.5 3.5t80.5 4.5l13 -15q-4 -17 -18.5 -79t-33 -157t-32.5 -192q-12 -90 -62.5 -155.5z" />
    <glyph glyph-name="k" unicode="k" horiz-adv-x="473" 
d="M229 204q48 24 79 51.5t31 61.5q0 15 -7 23t-20 8q-25 0 -69.5 -69.5t-88.5 -178.5l-9 -72q-2 -12 -35.5 -24t-65.5 -12l-13 15q15 93 55.5 348.5t40.5 278.5q0 19 -9 28t-29 9h-35l8 57q46 0 109 3.5t83 5.5l11 -16q-5 -20 -20.5 -93t-36 -178.5t-35.5 -202.5l6 -1
q89 182 165 227q51 0 82 -28t31 -72q0 -46 -34.5 -92.5t-100.5 -89.5q29 -53 61.5 -102.5t42.5 -63.5l-1 -17l-106 -27l-13 7l-83 199z" />
    <glyph glyph-name="l" unicode="l" horiz-adv-x="268" 
d="M179 114q15 12 46 39l17 -2l16 -35q-65 -69 -104.5 -98.5t-67.5 -29.5q-46 0 -46 46q0 14 40 264q51 310 51 336q0 19 -9 28t-29 9h-35l9 57q46 0 108.5 3.5t81.5 5.5l12 -16q-7 -31 -29 -139.5t-47.5 -245.5t-38.5 -230l4 -4q6 0 21 12z" />
    <glyph glyph-name="m" unicode="m" horiz-adv-x="763" 
d="M665 116q15 12 46 39l18 -3l15 -35q-67 -70 -106 -99t-66 -29q-47 0 -47 43q0 17 8.5 47t27.5 91q20 62 28.5 93t8.5 49q0 16 -7.5 26t-19.5 10q-26 0 -72 -73.5t-94 -189.5l-9 -57q-2 -12 -35.5 -24t-65.5 -12l-13 15q11 43 38.5 163.5t27.5 144.5q0 16 -7 24.5t-20 8.5
q-24 0 -65.5 -68.5t-84.5 -178.5l-9 -73q-2 -12 -35.5 -24t-65.5 -12l-13 15q8 48 30 184t24 163q2 22 -7 31.5t-31 9.5h-35l9 58q46 0 108 3.5t81 4.5l12 -16q-3 -8 -11.5 -37.5t-19.5 -73.5t-18 -87l5 -1q87 183 163 227q48 0 78 -27.5t30 -70.5q0 -19 -12 -65.5
t-17 -62.5l5 -1q41 86 84 145t83 82q49 0 78 -27.5t29 -71.5q0 -23 -11.5 -63.5t-31.5 -98.5q-24 -70 -32 -105l3 -3q6 0 21 12z" />
    <glyph glyph-name="n" unicode="n" horiz-adv-x="518" 
d="M501 117q-66 -70 -104.5 -99t-66.5 -29q-46 0 -46 43q0 17 8.5 49t25.5 87q13 43 24 84.5t11 59.5q0 17 -7 26.5t-19 9.5q-24 0 -66.5 -70t-85.5 -181l-8 -69q-2 -12 -35.5 -24t-65.5 -12l-13 15q18 108 32.5 203.5t21.5 143.5q2 22 -7 31.5t-31 9.5h-34l9 58q76 0 188 8
l11 -16q-13 -41 -26.5 -97t-21.5 -101l6 -1q42 88 83.5 146.5t78.5 80.5q49 0 78.5 -28t29.5 -72q0 -23 -11 -63.5t-31 -102.5q-25 -75 -30 -100l3 -3q7 0 18.5 9t47.5 42l18 -3z" />
    <glyph glyph-name="o" unicode="o" horiz-adv-x="442" 
d="M65 35.5q-38 47.5 -38 130.5q0 85 32.5 155.5t89 111t125.5 40.5q68 0 105.5 -43.5t37.5 -123.5q0 -89 -32 -161.5t-89 -114.5t-127 -42q-66 0 -104 47.5zM272 116q23 50 23 144q0 62 -15.5 94t-46.5 32q-40 0 -63 -46.5t-23 -131.5q0 -69 16.5 -105.5t45.5 -36.5
q40 0 63 50z" />
    <glyph glyph-name="p" unicode="p" horiz-adv-x="514" 
d="M18.5 -163q11.5 13 20.5 50q13 54 42.5 248t29.5 223q0 20 -9 28.5t-29 8.5h-36l10 58q63 0 189 8l12 -15q-30 -87 -49 -192l6 -2q44 87 79.5 138.5t73.5 82.5q59 0 93.5 -42.5t34.5 -114.5q0 -75 -34.5 -150t-88 -122.5t-107.5 -47.5l-96 16l-19 -132q-1 -6 -1 -17
q0 -19 9.5 -25.5t33.5 -6.5h43l1 -6l-10 -54q-118 0 -246 -7l10 57q26 3 37.5 16zM273.5 290.5q-42.5 -75.5 -83.5 -182.5q22 -12 50 -19.5t48 -7.5q19 0 37 28t30 72.5t12 88.5q0 38 -9.5 67t-21.5 29q-20 0 -62.5 -75.5z" />
    <glyph glyph-name="q" unicode="q" horiz-adv-x="471" 
d="M302 192l-8 1q-44 -80 -79.5 -128t-72.5 -77q-55 0 -87 41.5t-32 112.5q0 77 35.5 152t91 123t112.5 48l86 -17l18 50l12 6l78 -12l7 -17q-9 -17 -38 -149t-53 -270.5t-24 -187.5q0 -20 6 -28.5t21 -8.5l32 1l2 -5l-10 -55q-64 0 -118.5 -2.5t-86.5 -5.5t-40 -4l11 58
q31 3 46 8.5t23 19.5t13 43l29 160zM232 174.5q42 72.5 87 184.5q-53 29 -88 29q-21 0 -41.5 -28.5t-33.5 -73t-13 -91.5q0 -38 8 -65.5t19 -27.5q20 0 62 72.5z" />
    <glyph glyph-name="r" unicode="r" horiz-adv-x="378" 
d="M79.5 194q22.5 138 22.5 163q0 20 -8.5 29t-29.5 9h-35l9 58q46 0 108 3.5t81 4.5l12 -16q-5 -15 -19.5 -67.5t-23.5 -104.5h6q40 88 87 141.5t88 55.5q9 -5 17 -19t9 -28q-1 -24 -8 -53.5t-13.5 -51t-8.5 -27.5l-38 -2q1 35 -18 35q-29 0 -67.5 -53.5t-75.5 -146.5
l-12 -96q-2 -12 -35.5 -24t-65.5 -12l-13 15q9 49 31.5 187z" />
    <glyph glyph-name="s" unicode="s" horiz-adv-x="367" 
d="M93 90.5q24 -24.5 64 -24.5q25 0 41 13.5t16 33.5q0 19 -16 34.5t-48 37.5t-50 37.5t-31.5 38.5t-13.5 53q0 44 25 80.5t68 57.5t94 21q39 0 72 -11t52 -30q-21 -55 -47 -100h-19q-11 28 -31 43.5t-44 15.5q-20 0 -33.5 -12t-13.5 -30q0 -24 30 -47q9 -7 18 -13.5
t16 -11.5q45 -31 69 -58.5t24 -67.5q0 -44 -26.5 -81.5t-72 -59.5t-99.5 -22q-52 0 -89.5 16.5t-46.5 43.5q5 25 19.5 58t27.5 51l19 -1q2 -41 26 -65.5z" />
    <glyph glyph-name="t" unicode="t" horiz-adv-x="306" 
d="M297 121q-46 -58 -88.5 -95.5t-65.5 -37.5q-43 0 -67.5 21.5t-24.5 59.5q0 11 1 17l50 300l-7 6l-62 1l-3 5l6 46l76 12l15 116l125 35l10 -12q-3 -12 -14.5 -53.5t-21.5 -87.5l110 1l5 -5l-10 -56l-107 1l-12 -6l-49 -256l-1 -10q0 -22 22 -22q12 0 30.5 13t49.5 45
l17 -3z" />
    <glyph glyph-name="u" unicode="u" horiz-adv-x="507" 
d="M495 116q-71 -73 -108 -100.5t-65 -27.5q-42 0 -42 37q0 21 36 177l-8 2q-77 -159 -153 -215q-52 0 -81.5 25.5t-29.5 69.5q0 19 9 53.5t26 95.5q31 105 31 127q0 18 -9 26.5t-29 8.5h-35l10 58q57 0 189 8l12 -15q-39 -117 -63 -203t-24 -106q0 -15 5 -22t18 -7
q22 0 64.5 69t91.5 185l15 95l14 7l100 -5l10 -14q-23 -73 -45 -166.5t-33 -163.5l3 -4q8 2 19.5 10.5t38.5 31.5l17 -2z" />
    <glyph glyph-name="v" unicode="v" horiz-adv-x="448" 
d="M117 4q-4 83 -14.5 184.5t-23.5 169.5q-4 20 -11 27.5t-23 7.5q-12 0 -25 -1.5t-18 -1.5l4 56l175 21l11 -10q18 -151 18 -360h12q103 181 103 246q0 28 -17 48.5t-33 26.5l7 31l129 24q15 -13 23 -35.5t8 -50.5q0 -111 -199 -393l-109 -5z" />
    <glyph glyph-name="w" unicode="w" horiz-adv-x="680" 
d="M319 302l-20 133l8 14l99 24q15 -13 23.5 -35.5t8.5 -48.5q0 -16 -3 -31t-12 -39l20 -222h13q100 181 100 247q0 23 -13.5 43t-36.5 31l7 31l130 24q14 -13 22.5 -36.5t8.5 -51.5q0 -104 -197 -391l-96 -5l-17 15l-17 170h-8q-40 -81 -100 -180l-105 -5l-17 15
q-4 80 -15 181t-23 173q-4 20 -11 27.5t-23 7.5q-4 0 -43 -3l4 56l175 21l11 -10q18 -157 18 -360h12q68 121 97 205z" />
    <glyph glyph-name="x" unicode="x" horiz-adv-x="480" 
d="M499 439q-21 -55 -49 -110h-19q-13 55 -42 55q-22 0 -43 -29t-51 -101q24 -97 38 -132t28 -35q9 0 22.5 9t49.5 40l11 -1l19 -39q-60 -61 -95 -84.5t-67 -23.5q-19 0 -33.5 14t-28 48t-32.5 98q-38 -86 -74.5 -123t-82.5 -37q-24 0 -43 10t-29 27q17 55 49 114h20
q3 -65 36 -65q22 0 46.5 34t53.5 106q-20 69 -31 102.5t-19 45.5t-17 12q-8 0 -21.5 -10t-43.5 -39l-12 1l-18 39q54 58 91.5 83t70.5 25q18 0 31.5 -13t26.5 -45t31 -94q37 80 73 116t80 36q45 0 74 -34z" />
    <glyph glyph-name="y" unicode="y" horiz-adv-x="456" 
d="M420 473q14 -12 22 -35t8 -51q0 -107 -186 -375q-92 -132 -158 -191t-121 -59q-33 0 -58.5 13t-32.5 34q13 57 39 95l15 1q35 -41 69 -41q26 0 55 21.5t65 65.5q-25 264 -48 407q-4 20 -12 27.5t-24 7.5q-1 0 -40 -3l4 56l174 21l11 -10q14 -128 14 -330v-41h12
q49 86 77 154t28 103q0 23 -13 42.5t-36 32.5l7 31z" />
    <glyph glyph-name="z" unicode="z" horiz-adv-x="423" 
d="M62.5 358.5q13.5 54.5 21.5 104.5l27 10q25 -4 98.5 -15.5t103.5 -11.5q17 0 26 3.5t19 14.5l20 24l55 -33l4 -19q-163 -177 -286 -324l26 5q12 0 31.5 -3t26.5 -4q44 -8 63 -8q25 0 43.5 19.5t25.5 54.5l23 -1q13 -31 13 -65q0 -51 -32 -86.5t-78 -35.5q-19 0 -38 5.5
t-47 16.5q-33 12 -52 17.5t-41 5.5q-24 0 -51.5 -9t-53.5 -25l-19 30l277 331l-74 1q-42 0 -62.5 -14.5t-32.5 -52.5l-54 -6q4 16 17.5 70.5z" />
    <glyph glyph-name="braceleft" unicode="{" horiz-adv-x="310" 
d="M117 319.5q24 21.5 24 50.5q0 13 -3.5 32t-8.5 38q-1 6 -7 34t-6 50q0 36 20 65.5t56.5 47t83.5 17.5q20 0 41.5 -3.5t27.5 -5.5l5 -10l-18 -54q-4 1 -17 3t-23 2q-30 0 -46 -21t-16 -54q0 -24 5 -59q1 -9 3 -30.5t2 -34.5q0 -45 -23.5 -72.5t-60.5 -38.5l-1 -5
q60 -23 60 -85q0 -19 -6 -41.5t-19 -60.5q-11 -32 -17 -52.5t-6 -35.5q0 -24 12.5 -38.5t36.5 -14.5q11 0 23.5 2t16.5 3l7 -9l-17 -53q-2 -1 -12.5 -4.5t-28 -7t-39.5 -3.5q-53 0 -85.5 30t-32.5 75q0 24 10.5 51t28.5 61q15 28 22.5 47.5t7.5 33.5q0 53 -74 73l11 45
q39 11 63 32.5z" />
    <glyph glyph-name="bar" unicode="|" horiz-adv-x="321" 
d="M251 568q-23 -173 -36 -277l-67 -549l-86 -11l-10 10q7 58 27 217l40 318l64 520l85 11l14 -10q-8 -56 -31 -229z" />
    <glyph glyph-name="braceright" unicode="}" horiz-adv-x="310" 
d="M204 210.5q-25 -21.5 -25 -51.5q0 -19 12 -69q1 -5 7 -33.5t6 -51.5q0 -37 -20 -67.5t-56.5 -48.5t-83.5 -18q-21 0 -42.5 3.5t-27.5 5.5l-5 10l19 54q4 -1 16.5 -3t21.5 -2q30 0 46 21t16 55q0 17 -4 61q-4 46 -4 66q0 45 23 72.5t60 38.5l1 6q-60 22 -60 85
q0 18 5.5 38.5t19.5 61.5q23 61 23 85t-12.5 38.5t-36.5 14.5q-11 0 -24 -2t-17 -3l-6 9l17 53q2 1 12.5 4.5t28 7t39.5 3.5q53 0 85.5 -30t32.5 -75q0 -22 -9.5 -46.5t-28.5 -62.5q-15 -29 -22 -47t-7 -32q0 -29 19 -47.5t53 -25.5l-9 -46q-38 -10 -63 -31.5z" />
    <glyph glyph-name="asciitilde" unicode="~" horiz-adv-x="488" 
d="M24 216l1 10l101 100l19 4q27 0 111 -20q78 -18 98 -18q12 0 29.5 12.5t32 26t18.5 17.5h10l29 -37v-10l-101 -101l-19 -4q-27 0 -111 20q-74 19 -98 19q-12 0 -29.5 -12.5t-32 -26t-18.5 -17.5h-10z" />
    <glyph glyph-name="uni00A0" unicode="&#xa0;" horiz-adv-x="150" 
 />
    <glyph glyph-name="exclamdown" unicode="&#xa1;" horiz-adv-x="274" 
d="M232 456q16 -17 16 -46q0 -40 -25 -66t-64 -26q-31 0 -47.5 17.5t-16.5 46.5q0 39 25 65t65 26q31 0 47 -17zM138 -220l-132 -22l-14 18l116 454l64 11l13 -13l-32 -432z" />
    <glyph glyph-name="cent" unicode="&#xa2;" horiz-adv-x="384" 
d="M308 163l32 -40q-22 -47 -62 -82.5t-84 -47.5l-34 -144l-67 -8l-6 7l34 145q-47 12 -73.5 55.5t-26.5 110.5q0 72 28 138t76 111.5t104 59.5l41 182l69 8l5 -9l-41 -178q41 -7 64 -21l5 -14l-42 -95l-27 -2q-28 47 -67 47q-26 0 -48.5 -26.5t-36 -71t-13.5 -95.5
t15.5 -80.5t43.5 -29.5q26 0 51.5 22.5t42.5 59.5z" />
    <glyph glyph-name="sterling" unicode="&#xa3;" horiz-adv-x="505" 
d="M458 109q0 -52 -31 -86.5t-76 -34.5q-21 0 -43.5 6t-59.5 18q-41 13 -63.5 19t-44.5 6q-52 0 -111 -36l-10 5l-12 60q96 57 106 137l5 41q1 23 -10 31t-48 10l-3 6l14 50l60 10l3 22q7 61 44 113t91.5 82t113.5 30q31 0 61 -4t45 -11l4 -11l-43 -94l-19 -3
q-61 38 -100 38q-34 0 -52.5 -23.5t-26.5 -73.5l-11 -69q54 0 93.5 1t51.5 2l4 -4l-19 -68q-11 1 -48.5 2t-91.5 1l-9 -60q-5 -33 -21 -63.5t-38 -49.5l56 12q20 0 68 -10q46 -10 64 -10q28 0 46.5 19.5t25.5 55.5l23 -1q12 -24 12 -65z" />
    <glyph glyph-name="currency" unicode="&#xa4;" horiz-adv-x="472" 
d="M126 427l-63 71l4 17l76 49q9 -14 55 -73q35 19 73 19q36 0 68 -19l75 77l17 -4l42 -69l-78 -67q12 -27 12 -60q0 -44 -29 -90l63 -67l-5 -16l-76 -51l-54 69q-35 -19 -74 -19q-42 0 -72 21l-74 -73l-16 4l-40 69q8 5 49 40q9 7 27 23q-9 24 -9 56q0 48 29 93z
M188.5 286.5q20.5 -22.5 52.5 -22.5q37 0 66 29t29 68q0 33 -21 56t-53 23q-38 0 -66 -29t-28 -69q0 -33 20.5 -55.5z" />
    <glyph glyph-name="yen" unicode="&#xa5;" horiz-adv-x="559" 
d="M261 384l5 -21l35 -86l78 131q11 18 11 28q0 14 -36 15l-2 8l10 46l44 -1q44 -2 69 -2q29 0 52.5 1t31.5 2l4 -6l-13 -54q-34 -10 -51 -24.5t-40 -48.5l-29 -42l92 2l6 -9l-12 -55h-130l-31 -46q-6 -9 -12 -28q70 1 161 4l6 -10l-11 -55h-175q-2 -8 -3.5 -23t-2.5 -24
q0 -15 8 -21.5t27 -6.5q13 0 24.5 1t15.5 1l3 -6l-15 -57q-16 0 -57 1.5t-80 1.5q-29 0 -74.5 -3.5t-60.5 -5.5l13 59q33 5 48.5 12.5t22.5 22.5t12 48l-166 -1l-6 8l14 54h157q-1 4 -3.5 15.5t-7.5 22.5l-14 36q-53 -1 -122 -1l-6 7l14 54h85q-41 101 -100 117q2 14 4 23
q2 14 10 37q10 -1 39 -2t61 -1q29 1 74 3t67 4l4 -10l-11 -50q-29 -2 -38.5 -7.5t-9.5 -14.5q0 -12 11 -43z" />
    <glyph glyph-name="brokenbar" unicode="&#xa6;" horiz-adv-x="321" 
d="M130 370q36 284 53 426l85 11l14 -10q-6 -41 -24.5 -177t-32.5 -245l-88 -12zM198 164l-50 -422l-87 -11l-9 10l51 418l86 14z" />
    <glyph glyph-name="section" unicode="&#xa7;" horiz-adv-x="481" 
d="M429.5 172q-29.5 -43 -79.5 -73q4 -12 4 -30q0 -10 -1 -16q-4 -38 -33 -73.5t-74.5 -58t-96.5 -22.5t-87 22t-36 52q0 24 12 57t28 51l20 -1q2 -45 27 -73.5t62 -28.5q25 0 42 16t17 41q0 27 -20 48t-63 53q-37 27 -60 47t-39 48.5t-16 63.5q0 44 29.5 85t82.5 74
q-6 17 -6 37q0 43 26 80.5t69.5 60t93.5 22.5q45 0 79 -14.5t34 -33.5t-15.5 -56.5t-26.5 -46.5h-19q-7 30 -28 49t-44 19q-20 0 -34.5 -14.5t-14.5 -36.5q0 -26 19.5 -47t63.5 -56q55 -40 84.5 -75t29.5 -83q0 -44 -29.5 -87zM166.5 285.5q23.5 -25.5 73.5 -63.5
q58 -43 82 -72q27 29 27 63q0 31 -23 57t-71 64q-6 5 -34 28t-47 47q-31 -27 -31 -65q0 -33 23.5 -58.5z" />
    <glyph glyph-name="dieresis" unicode="&#xa8;" horiz-adv-x="384" 
d="M106.5 562q-14.5 15 -14.5 40q0 32 20 52t51 20q25 0 39 -15t14 -41q0 -31 -19.5 -51t-50.5 -20q-25 0 -39.5 15zM279.5 562q-14.5 15 -14.5 40q0 32 19.5 52t50.5 20q25 0 39.5 -15t14.5 -41q0 -31 -19.5 -51t-50.5 -20q-25 0 -39.5 15z" />
    <glyph glyph-name="copyright" unicode="&#xa9;" horiz-adv-x="671" 
d="M93.5 428q46.5 78 123.5 124t164 46q73 0 132.5 -36.5t93 -99t33.5 -137.5q0 -89 -46.5 -167t-124 -124t-163.5 -46q-74 0 -133 36.5t-92.5 99t-33.5 137.5q0 89 46.5 167zM124.5 150.5q27.5 -52.5 77 -83t110.5 -30.5q72 0 136 38.5t103 104t39 140.5q0 63 -28 115.5
t-77 83t-110 30.5q-72 0 -136 -38.5t-103 -104t-39 -140.5q0 -63 27.5 -115.5zM221.5 164.5q-37.5 36.5 -37.5 100.5q0 92 52.5 145.5t143.5 53.5q26 0 60.5 -5.5t45.5 -7.5l3 -7q-3 -8 -11.5 -36t-14.5 -62l-58 -4q1 4 3.5 16.5t2.5 18.5q0 34 -50 34q-42 0 -64.5 -34
t-22.5 -101q0 -95 64 -95q27 0 42.5 15t25.5 51l57 5q-2 -9 -9.5 -40t-11.5 -57l-6 -7q-4 -2 -18.5 -6.5t-39.5 -9t-54 -4.5q-65 0 -102.5 36.5z" />
    <glyph glyph-name="ordfeminine" unicode="&#xaa;" horiz-adv-x="354" 
d="M320 451l13 -2l11 -26q-50 -53 -76 -72t-48 -19q-30 0 -30 28q0 7 6.5 38t13.5 59h-6q-28 -49 -51.5 -78.5t-47.5 -46.5q-40 0 -62.5 26t-22.5 72q0 51 24 100.5t61.5 81t76.5 31.5l54 -11l4 14l10 5l66 -8l5 -13q-5 -19 -20 -83.5t-24 -124.5l3 -2q5 0 40 31zM169 463
q27 46 48 105q-28 18 -55 18q-17 0 -31.5 -37.5t-14.5 -79.5q0 -22 4 -37t9 -15q13 0 40 46z" />
    <glyph glyph-name="guillemotleft" unicode="&#xab;" horiz-adv-x="435" 
d="M414 370q-21 -29 -59.5 -83t-43.5 -64q2 -7 37 -77q20 -39 30 -61l-6 -16l-43 -25q-16 24 -67.5 87t-69.5 84l3 21q23 22 90.5 86.5t88.5 87.5l37 -24zM235 370q-21 -29 -59.5 -83t-43.5 -64q2 -7 37 -77q20 -39 30 -61l-6 -16l-43 -25q-16 24 -67.5 87t-69.5 84l3 21
q23 22 90.5 86.5t88.5 87.5l37 -24z" />
    <glyph glyph-name="logicalnot" unicode="&#xac;" horiz-adv-x="488" 
d="M441 258.5q-9 -42.5 -15 -87.5q-6 -51 -10.5 -87.5t-5.5 -47.5l-90 -15l-9 8l25 194l-94 -1l-219 -1l-7 11l26 88l225 -1q44 0 103.5 2.5t77.5 3.5l5 -12q-3 -12 -12 -54.5z" />
    <glyph glyph-name="uni00AD" unicode="&#xad;" horiz-adv-x="312" 
d="M270 221l-231 -26l-8 12l17 77l160 18q34 4 51 6.5t21 3.5l8 -13z" />
    <glyph glyph-name="registered" unicode="&#xae;" horiz-adv-x="451" 
d="M93 598q31 52 82.5 82.5t109.5 30.5q49 0 88.5 -24.5t62 -66t22.5 -91.5q0 -61 -31 -113t-82.5 -82.5t-109.5 -30.5q-49 0 -88.5 24.5t-62 66t-22.5 91.5q0 61 31 113zM117.5 414.5q18.5 -33.5 50.5 -53.5t71 -20q47 0 89 25t67.5 67.5t25.5 91.5q0 41 -18 74.5t-50 53.5
t-72 20q-47 0 -89 -25t-67.5 -67.5t-25.5 -91.5q0 -41 18.5 -74.5zM179 444.5q5 6.5 7 24.5l13 108l1 9q0 9 -8 9l-11 -1l-2 3l5 21l42 -1h10l35 2q77 0 77 -49q0 -43 -49 -68l19 -38q13 -30 30 -30l3 -4q-2 -10 -4.5 -13.5t-10 -5t-26.5 -2.5q-15 0 -23 6.5t-14 23.5
l-16 51h-20q-3 -9 -4.5 -20t-1.5 -18q0 -9 4.5 -11.5t16.5 -2.5l1 -4l-5 -21q-4 0 -15.5 1t-22.5 1h-11l-44 -3l5 24q14 2 19 8.5zM241 522q5 0 11.5 -1t13.5 -1q29 9 29 41q0 28 -38 28q-5 0 -6 -8z" />
    <glyph glyph-name="macron" unicode="&#xaf;" horiz-adv-x="384" 
d="M372 572l-136 -1l-134 -1l-9 11l23 74l148 -1q31 0 71.5 2.5t52.5 3.5l6 -14z" />
    <glyph glyph-name="degree" unicode="&#xb0;" horiz-adv-x="291" 
d="M75 582q20 33 53 52.5t70 19.5q48 0 79.5 -34t31.5 -83q0 -39 -20 -72t-53 -52.5t-70 -19.5q-48 0 -79.5 34t-31.5 83q0 39 20 72zM130 468.5q18 -18.5 45 -18.5q32 0 54.5 24t22.5 58q0 27 -18.5 46t-45.5 19q-31 0 -53.5 -24t-22.5 -58q0 -28 18 -46.5z" />
    <glyph glyph-name="plusminus" unicode="&#xb1;" horiz-adv-x="488" 
d="M317 434q-8 -51 -17 -112q60 1 110.5 3t67.5 3l5 -12l-22 -89l-172 -1l-20 -165l-88 -14l-9 8q2 15 8 62.5t14 108.5l-171 -1l-6 11l25 87l164 -1q8 66 23 176l88 10l11 -6q-3 -17 -11 -68zM414 -96l-423 -1l-5 13l19 75l223 -1q42 0 120 2q34 0 54.5 1t25.5 1l6 -14z
" />
    <glyph glyph-name="uni00B2" unicode="&#xb2;" horiz-adv-x="341" 
d="M96 467q91 99 91 143q0 32 -37 32q-44 0 -88 -53h-11l-5 61q29 35 67.5 56.5t74.5 21.5q48 0 78 -23t30 -61q0 -42 -33.5 -91.5t-122.5 -137.5l3 -5h53q28 0 41 12t23 46l61 5q-4 -13 -16 -54.5t-18 -75.5l-11 -9q-25 1 -100 3.5t-114 2.5l-54 -5l-1 46z" />
    <glyph glyph-name="uni00B3" unicode="&#xb3;" horiz-adv-x="301" 
d="M79 408q36 0 59.5 15.5t23.5 40.5q0 21 -19 30.5t-60 9.5l-7 8v47l44 9q23 10 36.5 26.5t13.5 34.5q0 13 -8.5 20.5t-22.5 7.5q-31 0 -72 -27h-9l-9 53q25 16 62.5 30.5t66.5 14.5q42 0 67.5 -19t25.5 -51q0 -30 -22.5 -56t-59.5 -40v-6q40 -14 59 -34.5t19 -49.5
q0 -34 -31 -66.5t-79.5 -53t-98.5 -20.5q-26 0 -37 13t-11 43l1 18l12 12q23 -10 56 -10z" />
    <glyph glyph-name="acute" unicode="&#xb4;" horiz-adv-x="384" 
d="M283 604q-57 -38 -115 -81l-15 4l-29 38q51 49 102 101.5t65 68.5l13 -1l53 -68l-1 -14q-16 -10 -73 -48z" />
    <glyph glyph-name="uni00B5" unicode="&#xb5;" horiz-adv-x="536" 
d="M519 125q-27 -83 -90 -134q-44 0 -63.5 22.5t-19.5 73.5q0 10 2 36l3 26l-11 3q-34 -75 -69 -116.5t-64 -41.5q-17 8 -28 21.5t-25 40.5l-10 -5q-4 -63 -4 -150q0 -79 2 -123q-55 -14 -118 -17l-16 11l91 426v37q0 121 17 223l22 13h12l92 -27l-76 -278q15 -33 38 -33
q28 0 66.5 47t81.5 133q11 86 25 135l26 21q53 -15 97 -41q-59 -130 -95 -197l-5 -27q-3 -19 -3 -35q0 -55 42 -55q29 0 69 23z" />
    <glyph glyph-name="paragraph" unicode="&#xb6;" horiz-adv-x="547" 
d="M360 567q0 7 -4.5 9t-20.5 2q-47 0 -72.5 -53t-25.5 -140q0 -45 10.5 -82.5t31.5 -73.5l-3 -24q-103 5 -166 58t-63 145q0 66 32 120.5t88 86t126 31.5q29 0 81 -2q46 -2 59 -2q36 0 79 1.5t60 1.5l-13 -61l-3 -4q-35 -2 -47.5 -11t-17.5 -35q-9 -34 -27 -153t-30 -211
q-15 -121 -82.5 -195.5t-175.5 -74.5q-51 0 -87 24.5t-36 64.5q0 23 16 57t38 58h16l-1 -20q0 -53 21 -82t58 -29q49 0 71.5 33t32.5 115l55 442v4z" />
    <glyph glyph-name="periodcentered" unicode="&#xb7;" horiz-adv-x="230" 
d="M56 179q-16 17 -16 46q0 40 25 66t64 26q31 0 47.5 -17.5t16.5 -46.5q0 -40 -25 -65.5t-65 -25.5q-31 0 -47 17z" />
    <glyph glyph-name="cedilla" unicode="&#xb8;" horiz-adv-x="387" 
d="M194 29l-29 -73q37 -24 60 -45.5t23 -46.5q0 -27 -21 -50.5t-54 -37.5t-68 -14q-26 0 -48.5 12t-22.5 30q0 10 14 29t31 36h8q-2 -27 9.5 -41.5t33.5 -14.5q18 0 30 9t12 24q0 24 -74 68l45 115h51z" />
    <glyph glyph-name="uni00B9" unicode="&#xb9;" horiz-adv-x="256" 
d="M182 531q-14 -93 -14 -113q0 -16 5.5 -23t17.5 -7l30 1l2 -3l-14 -49q-10 1 -38 2t-57 1q-28 0 -63.5 -3t-46.5 -4l11 46q31 2 45.5 12.5t17.5 34.5l24 198l1 13q0 14 -6 19t-22 5q-10 0 -19.5 -1t-12.5 -2l-3 5l9 42l81 10q42 5 67 8.5t32 4.5l7 -23q-12 -8 -19.5 -19.5
t-12.5 -29.5q-8 -32 -22 -125z" />
    <glyph glyph-name="ordmasculine" unicode="&#xba;" horiz-adv-x="323" 
d="M52.5 364q-27.5 32 -27.5 89q0 56 21.5 101t60 70.5t87.5 25.5q50 0 77 -29.5t27 -85.5q0 -58 -21.5 -104.5t-60 -72.5t-87.5 -26t-76.5 32zM189.5 421.5q12.5 30.5 12.5 88.5q0 39 -8.5 57t-26.5 18q-21 0 -34 -32t-13 -84q0 -38 8.5 -58t25.5 -20q23 0 35.5 30.5z" />
    <glyph glyph-name="guillemotright" unicode="&#xbb;" horiz-adv-x="435" 
d="M200 84q1 2 13 18q13 19 48.5 69.5t40.5 59.5q-2 6 -29 60q-31 61 -38 79l5 15l43 25q16 -24 68 -87t70 -84l-3 -20q-23 -22 -90.5 -86.5t-88.5 -88.5l-38 24zM21 84q1 2 13 18q13 19 48.5 69.5t40.5 59.5q-2 6 -29 60q-31 61 -38 79l5 15l43 25q16 -24 68 -87t70 -84
l-3 -20q-23 -22 -90.5 -86.5t-88.5 -88.5l-38 24z" />
    <glyph glyph-name="onequarter" unicode="&#xbc;" horiz-adv-x="735" 
d="M182 452q-14 -93 -14 -113q0 -16 5.5 -23t17.5 -7l30 1l2 -3l-14 -49q-10 1 -38 2t-57 1q-28 0 -63.5 -3t-46.5 -4l11 46q31 2 45.5 12.5t17.5 34.5l24 198l1 13q0 14 -6 18.5t-22 4.5q-10 0 -19.5 -1t-12.5 -1l-3 5l9 42l81 10q42 5 67 8.5t32 4.5l7 -23
q-12 -8 -19.5 -19.5t-12.5 -29.5q-8 -32 -22 -125zM460.5 453q-90.5 -138 -146.5 -225q-70 -111 -127 -201l-76 -120l-63 26l-6 14q20 31 87.5 132t121.5 186l261 413l60 -24l8 -19q-29 -44 -119.5 -182zM603 386l5 2l69 -8l-26 -220h48l5 -9l-14 -60l-47 1q-4 -32 -5.5 -55
t-1.5 -30l-6 -7l-89 -7l-6 6q2 9 7 38t9 58l-148 2l7 51zM560 160l13 105h-7l-81 -105h75z" />
    <glyph glyph-name="onehalf" unicode="&#xbd;" horiz-adv-x="750" 
d="M182 452q-14 -93 -14 -113q0 -16 5.5 -23t17.5 -7l30 1l2 -3l-14 -49q-10 1 -38 2t-57 1q-28 0 -63.5 -3t-46.5 -4l11 46q31 2 45.5 12.5t17.5 34.5l24 198l1 13q0 14 -6 18.5t-22 4.5q-10 0 -19.5 -1t-12.5 -1l-3 5l9 42l81 10q42 5 67 8.5t32 4.5l7 -23
q-12 -8 -19.5 -19.5t-12.5 -29.5q-8 -32 -22 -125zM460.5 453q-90.5 -138 -146.5 -225q-70 -111 -127 -201l-76 -120l-63 26l-6 14q20 31 87.5 132t121.5 186l261 413l60 -24l8 -19q-29 -44 -119.5 -182zM497 127q44 47 67.5 84t23.5 59q0 32 -37 32q-21 0 -44 -14t-44 -40
h-11l-6 62q30 35 68.5 56.5t74.5 21.5q48 0 78 -23t30 -61q0 -42 -33.5 -91.5t-122.5 -137.5l3 -6h53q27 0 40 12.5t24 46.5l60 5q-4 -13 -15.5 -54.5t-17.5 -75.5l-12 -9q-25 1 -100 3.5t-114 2.5l-53 -6l-2 47z" />
    <glyph glyph-name="threequarters" unicode="&#xbe;" horiz-adv-x="780" 
d="M79 329q36 0 59.5 15.5t23.5 40.5q0 21 -19 30.5t-60 9.5l-7 8v47l44 9q23 10 36.5 26.5t13.5 34.5q0 13 -8.5 20.5t-22.5 7.5q-31 0 -72 -27h-9l-9 53q25 16 62.5 30.5t66.5 14.5q42 0 67.5 -19t25.5 -51q0 -30 -22.5 -56t-59.5 -40v-7q40 -13 59 -33.5t19 -49.5
q0 -35 -31 -67.5t-79.5 -52.5t-98.5 -20q-26 0 -37 13t-11 43l1 18l12 12q23 -10 56 -10zM505.5 453q-90.5 -138 -146.5 -225q-70 -111 -127 -201l-76 -120l-63 26l-6 14q20 31 87.5 132t121.5 186l261 413l60 -24l8 -19q-29 -44 -119.5 -182zM648 386l5 2l69 -8l-26 -220
h48l5 -9l-14 -60l-47 1q-4 -32 -5.5 -55t-1.5 -30l-6 -7l-89 -7l-6 6q2 9 7 38t9 58l-148 2l7 51zM605 160l13 105h-7l-81 -105h75z" />
    <glyph glyph-name="questiondown" unicode="&#xbf;" horiz-adv-x="357" 
d="M288.5 456q16.5 -17 16.5 -46q0 -40 -25 -66t-65 -26q-31 0 -47.5 17.5t-16.5 46.5q0 39 25.5 65t64.5 26q31 0 47.5 -17zM265 102l-112 -63q-60 -34 -60 -82q0 -43 43 -67t122 -29l6 -14l-46 -82l-16 -7q-66 2 -118.5 23.5t-82 57.5t-29.5 80q0 43 19 75t50.5 56.5
t93.5 64.5l21 14l4 7l-4 83l7 11l88 19l11 -6l8 -126z" />
    <glyph glyph-name="Agrave" unicode="&#xc0;" horiz-adv-x="603" 
d="M539.5 79q14.5 -15 46.5 -19l4 -6l-14 -57q-13 1 -47.5 2t-70.5 1q-51 0 -100 -3.5l-63 -4.5l-4 8l11 57q49 4 65 12.5t16 30.5q0 7 -1 14.5t-2 14.5l-10 80l-87 1q-16 0 -94 -6l-33 -80q-10 -24 -10 -37q0 -14 9.5 -20.5t29.5 -6.5h43l3 -6l-13 -60q-13 1 -57 3.5
t-83 2.5q-40 0 -73 -1t-44 -2l15 64q24 4 40.5 19t31.5 49l232 507l151 17l10 -6q8 -56 33 -231.5t45 -285.5q6 -36 20.5 -51zM291 285q30 0 72 4l-28 225h-14l-98 -229h68zM263 844l12 5q19 -10 86.5 -42.5t134.5 -62.5l-12 -45l-13 -9q-71 22 -139.5 41.5t-88.5 24.5
l-5 13z" />
    <glyph glyph-name="Aacute" unicode="&#xc1;" horiz-adv-x="603" 
d="M539.5 79q14.5 -15 46.5 -19l4 -6l-14 -57q-13 1 -47.5 2t-70.5 1q-51 0 -100 -3.5l-63 -4.5l-4 8l11 57q49 4 65 12.5t16 30.5q0 7 -1 14.5t-2 14.5l-10 80l-87 1q-16 0 -94 -6l-33 -80q-10 -24 -10 -37q0 -14 9.5 -20.5t29.5 -6.5h43l3 -6l-13 -60q-13 1 -57 3.5
t-83 2.5q-40 0 -73 -1t-44 -2l15 64q24 4 40.5 19t31.5 49l232 507l151 17l10 -6q8 -56 33 -231.5t45 -285.5q6 -36 20.5 -51zM291 285q30 0 72 4l-28 225h-14l-98 -229h68zM403.5 732q-68.5 -19 -139.5 -42l-13 9l-13 45q67 30 134.5 62.5t87.5 42.5l12 -6l25 -75l-5 -12
q-20 -5 -88.5 -24z" />
    <glyph glyph-name="Acircumflex" unicode="&#xc2;" horiz-adv-x="603" 
d="M539.5 79q14.5 -15 46.5 -19l4 -6l-14 -57q-13 1 -47.5 2t-70.5 1q-51 0 -100 -3.5l-63 -4.5l-4 8l11 57q49 4 65 12.5t16 30.5q0 7 -1 14.5t-2 14.5l-10 80l-87 1q-16 0 -94 -6l-33 -80q-10 -24 -10 -37q0 -14 9.5 -20.5t29.5 -6.5h43l3 -6l-13 -60q-13 1 -57 3.5
t-83 2.5q-40 0 -73 -1t-44 -2l15 64q24 4 40.5 19t31.5 49l232 507l151 17l10 -6q8 -56 33 -231.5t45 -285.5q6 -36 20.5 -51zM291 285q30 0 72 4l-28 225h-14l-98 -229h68zM295 813.5q61 45.5 81 60.5h19q1 2 26 -21.5t33 -31.5q31 -29 78 -70l-29 -40l-16 -4l-38 20
q-72 37 -77 39q-12 -5 -75 -34l-54 -25l-15 4l-19 40q25 17 86 62.5z" />
    <glyph glyph-name="Atilde" unicode="&#xc3;" horiz-adv-x="603" 
d="M539.5 79q14.5 -15 46.5 -19l4 -6l-14 -57q-13 1 -47.5 2t-70.5 1q-51 0 -100 -3.5l-63 -4.5l-4 8l11 57q49 4 65 12.5t16 30.5q0 7 -1 14.5t-2 14.5l-10 80l-87 1q-16 0 -94 -6l-33 -80q-10 -24 -10 -37q0 -14 9.5 -20.5t29.5 -6.5h43l3 -6l-13 -60q-13 1 -57 3.5
t-83 2.5q-40 0 -73 -1t-44 -2l15 64q24 4 40.5 19t31.5 49l232 507l151 17l10 -6q8 -56 33 -231.5t45 -285.5q6 -36 20.5 -51zM291 285q30 0 72 4l-28 225h-14l-98 -229h68zM189 724l1 10l88 95l15 4q18 0 76 -18q7 -2 30.5 -8.5t34.5 -6.5q10 0 25.5 11.5t28 23.5t15.5 16
h11l34 -36l-1 -10l-88 -95l-16 -4q-19 0 -75 18q-7 2 -30.5 8.5t-34.5 6.5t-26 -11.5t-27.5 -23.5t-15.5 -16h-11z" />
    <glyph glyph-name="Adieresis" unicode="&#xc4;" horiz-adv-x="603" 
d="M539.5 79q14.5 -15 46.5 -19l4 -6l-14 -57q-13 1 -47.5 2t-70.5 1q-51 0 -100 -3.5l-63 -4.5l-4 8l11 57q49 4 65 12.5t16 30.5q0 7 -1 14.5t-2 14.5l-10 80l-87 1q-16 0 -94 -6l-33 -80q-10 -24 -10 -37q0 -14 9.5 -20.5t29.5 -6.5h43l3 -6l-13 -60q-13 1 -57 3.5
t-83 2.5q-40 0 -73 -1t-44 -2l15 64q24 4 40.5 19t31.5 49l232 507l151 17l10 -6q8 -56 33 -231.5t45 -285.5q6 -36 20.5 -51zM291 285q30 0 72 4l-28 225h-14l-98 -229h68zM232.5 721q-12.5 14 -12.5 37q0 33 20.5 54t53.5 21q24 0 37 -14t13 -37q0 -33 -20.5 -54
t-53.5 -21q-25 0 -37.5 14zM405 721q-13 14 -13 37q0 32 21 53.5t53 21.5q24 0 37.5 -14t13.5 -37q0 -32 -21 -53.5t-53 -21.5q-25 0 -38 14z" />
    <glyph glyph-name="Aring" unicode="&#xc5;" horiz-adv-x="603" 
d="M539.5 79q14.5 -15 46.5 -19l4 -6l-14 -57q-13 1 -47.5 2t-70.5 1q-51 0 -100 -3.5l-63 -4.5l-4 8l11 57q49 4 65 12.5t16 30.5q0 7 -1 14.5t-2 14.5l-10 80l-87 1q-16 0 -94 -6l-33 -80q-10 -24 -10 -37q0 -14 9.5 -20.5t29.5 -6.5h43l3 -6l-13 -60q-13 1 -57 3.5
t-83 2.5q-40 0 -73 -1t-44 -2l15 64q24 4 40.5 19t31.5 49l232 507l151 17l10 -6q8 -56 33 -231.5t45 -285.5q6 -36 20.5 -51zM291 285q30 0 72 4l-28 225h-14l-98 -229h68zM296.5 699q-19.5 21 -19.5 56q0 46 30 76.5t76 30.5q39 0 57.5 -21t18.5 -53q0 -44 -29.5 -77
t-77.5 -33q-36 0 -55.5 21zM395 739q14 9 14 33q0 17 -10.5 26.5t-29.5 9.5q-20 0 -31 -11t-11 -30q0 -18 12 -27.5t26 -9.5q16 0 30 9z" />
    <glyph glyph-name="AE" unicode="&#xc6;" horiz-adv-x="840" 
d="M351.5 77.5q20.5 15.5 22.5 45.5l1 34v94l-85 -10l-84 -16l-55 -100q-15 -30 -15 -42q0 -13 10 -17t40 -4l31 -5l-14 -63q-17 2 -69.5 4t-89.5 2q-24 0 -44.5 -1t-27.5 -2l3 58q9 2 28.5 22.5t38.5 52.5l250 427q-1 12 -6 17t-16 5q-9 0 -17.5 -1t-11.5 -1l-6 8l15 60
q20 -1 84 -2t149 -1q239 0 311 12l6 -11q-5 -15 -19 -68.5t-25 -111.5l-89 -7q1 6 4.5 25t3.5 32q0 21 -9.5 31t-34 13.5t-75.5 3.5q-31 0 -42 -6t-11 -22l4 -186l95 12l95 19l9 -10l-21 -81l-89 -7l-88 -10l4 -127q1 -36 15 -51.5t46 -15.5q56 0 82.5 8t40.5 31t28 76l83 7
l6 -10q-5 -15 -21 -70t-29 -114l-10 -11q1 1 -112.5 4t-206.5 3q-49 0 -95.5 -3.5t-59.5 -4.5l-3 8l11 58q44 4 64.5 19.5zM377 328l1 184h-15l-109 -196l62 5z" />
    <glyph glyph-name="Ccedilla" unicode="&#xc7;" horiz-adv-x="593" 
d="M103 59.5q-70 71.5 -70 196.5q0 119 45.5 209t129.5 139t195 49q36 0 79.5 -5.5t75 -11t40.5 -7.5l4 -13q-2 -7 -10 -32t-19 -66.5t-20 -87.5l-93 -6q1 8 5 31t4 35q0 71 -101 71q-86 0 -135 -74t-49 -211q0 -96 35 -147.5t100 -51.5q54 0 86.5 32.5t54.5 107.5l94 7
q-5 -17 -19.5 -75t-22.5 -109l-10 -12q0 -1 -31 -11.5t-77.5 -19.5t-99.5 -9q-121 0 -191 71.5zM346 29l-29 -73q37 -24 60 -45.5t23 -46.5q0 -27 -21 -50.5t-54 -37.5t-68 -14q-26 0 -48.5 12t-22.5 30q0 10 14 29t31 36h8q-2 -27 9.5 -41.5t33.5 -14.5q18 0 30 9t12 24
q0 24 -74 68l45 115h51z" />
    <glyph glyph-name="Egrave" unicode="&#xc8;" horiz-adv-x="576" 
d="M234.5 81q11.5 -7 45.5 -7q64 0 93 8t44 31t29 77l81 6l6 -9q-5 -15 -21 -70t-29 -114l-10 -10q-30 1 -127.5 4t-171.5 3q-53 0 -103 -4t-64 -6l15 65q41 6 58 24t22 62l48 384l2 25q0 17 -6 23t-21 6q-9 0 -17.5 -1t-11.5 -1l-5 8l14 59q17 -1 67.5 -2t108.5 -1
q205 0 295 12l6 -10q-2 -7 -9 -31t-17.5 -66t-17.5 -83l-88 -6q2 6 5.5 25t3.5 33q0 21 -9.5 30.5t-33.5 13t-74 3.5q-24 0 -34.5 -2t-14.5 -9t-7 -23l-26 -160l90 -1q20 0 60 4t53 5l6 -9l-23 -83q-13 1 -49.5 2t-76.5 1q-23 0 -74 -6q-11 -70 -11 -69q-2 -18 -7 -51.5
t-5 -48.5q0 -24 11.5 -31zM260 844l12 5q19 -10 86.5 -42.5t134.5 -62.5l-12 -45l-13 -9q-71 22 -139.5 41.5t-88.5 24.5l-5 13z" />
    <glyph glyph-name="Eacute" unicode="&#xc9;" horiz-adv-x="576" 
d="M234.5 81q11.5 -7 45.5 -7q64 0 93 8t44 31t29 77l81 6l6 -9q-5 -15 -21 -70t-29 -114l-10 -10q-30 1 -127.5 4t-171.5 3q-53 0 -103 -4t-64 -6l15 65q41 6 58 24t22 62l48 384l2 25q0 17 -6 23t-21 6q-9 0 -17.5 -1t-11.5 -1l-5 8l14 59q17 -1 67.5 -2t108.5 -1
q205 0 295 12l6 -10q-2 -7 -9 -31t-17.5 -66t-17.5 -83l-88 -6q2 6 5.5 25t3.5 33q0 21 -9.5 30.5t-33.5 13t-74 3.5q-24 0 -34.5 -2t-14.5 -9t-7 -23l-26 -160l90 -1q20 0 60 4t53 5l6 -9l-23 -83q-13 1 -49.5 2t-76.5 1q-23 0 -74 -6q-11 -70 -11 -69q-2 -18 -7 -51.5
t-5 -48.5q0 -24 11.5 -31zM399.5 732q-68.5 -19 -139.5 -42l-13 9l-13 45q67 30 134.5 62.5t87.5 42.5l12 -6l25 -75l-5 -12q-20 -5 -88.5 -24z" />
    <glyph glyph-name="Ecircumflex" unicode="&#xca;" horiz-adv-x="576" 
d="M234.5 81q11.5 -7 45.5 -7q64 0 93 8t44 31t29 77l81 6l6 -9q-5 -15 -21 -70t-29 -114l-10 -10q-30 1 -127.5 4t-171.5 3q-53 0 -103 -4t-64 -6l15 65q41 6 58 24t22 62l48 384l2 25q0 17 -6 23t-21 6q-9 0 -17.5 -1t-11.5 -1l-5 8l14 59q17 -1 67.5 -2t108.5 -1
q205 0 295 12l6 -10q-2 -7 -9 -31t-17.5 -66t-17.5 -83l-88 -6q2 6 5.5 25t3.5 33q0 21 -9.5 30.5t-33.5 13t-74 3.5q-24 0 -34.5 -2t-14.5 -9t-7 -23l-26 -160l90 -1q20 0 60 4t53 5l6 -9l-23 -83q-13 1 -49.5 2t-76.5 1q-23 0 -74 -6q-11 -70 -11 -69q-2 -18 -7 -51.5
t-5 -48.5q0 -24 11.5 -31zM291 813.5q61 45.5 81 60.5h19q1 2 26 -21.5t33 -31.5q31 -29 78 -70l-29 -40l-16 -4l-38 20q-72 37 -77 39q-12 -5 -75 -34l-54 -25l-15 4l-19 40q25 17 86 62.5z" />
    <glyph glyph-name="Edieresis" unicode="&#xcb;" horiz-adv-x="576" 
d="M234.5 81q11.5 -7 45.5 -7q64 0 93 8t44 31t29 77l81 6l6 -9q-5 -15 -21 -70t-29 -114l-10 -10q-30 1 -127.5 4t-171.5 3q-53 0 -103 -4t-64 -6l15 65q41 6 58 24t22 62l48 384l2 25q0 17 -6 23t-21 6q-9 0 -17.5 -1t-11.5 -1l-5 8l14 59q17 -1 67.5 -2t108.5 -1
q205 0 295 12l6 -10q-2 -7 -9 -31t-17.5 -66t-17.5 -83l-88 -6q2 6 5.5 25t3.5 33q0 21 -9.5 30.5t-33.5 13t-74 3.5q-24 0 -34.5 -2t-14.5 -9t-7 -23l-26 -160l90 -1q20 0 60 4t53 5l6 -9l-23 -83q-13 1 -49.5 2t-76.5 1q-23 0 -74 -6q-11 -70 -11 -69q-2 -18 -7 -51.5
t-5 -48.5q0 -24 11.5 -31zM228.5 721q-12.5 14 -12.5 37q0 33 20.5 54t53.5 21q24 0 37 -14t13 -37q0 -33 -20.5 -54t-53.5 -21q-25 0 -37.5 14zM401 721q-13 14 -13 37q0 32 21 53.5t53 21.5q24 0 37.5 -14t13.5 -37q0 -32 -21 -53.5t-53 -21.5q-25 0 -38 14z" />
    <glyph glyph-name="Igrave" unicode="&#xcc;" horiz-adv-x="352" 
d="M243.5 270q-21.5 -139 -21.5 -167q0 -23 7.5 -32t24.5 -9q16 0 27.5 1t14.5 2l4 -6l-16 -62q-16 0 -59 1.5t-83 1.5q-34 0 -78 -3.5t-57 -5.5l14 62q44 9 60.5 26t20.5 59l48 389q2 18 2 23q0 16 -6.5 22.5t-23.5 6.5l-34 -1l-4 8l14 57q28 0 48 -1l86 -1q27 0 74.5 3.5
t62.5 4.5l-14 -64q-37 -5 -50.5 -16t-18.5 -39q-21 -121 -42.5 -260zM146 844l12 5q19 -10 86.5 -42.5t134.5 -62.5l-12 -45l-13 -9q-71 22 -139.5 41.5t-88.5 24.5l-5 13z" />
    <glyph glyph-name="Iacute" unicode="&#xcd;" horiz-adv-x="352" 
d="M243.5 270q-21.5 -139 -21.5 -167q0 -23 7.5 -32t24.5 -9q16 0 27.5 1t14.5 2l4 -6l-16 -62q-16 0 -59 1.5t-83 1.5q-34 0 -78 -3.5t-57 -5.5l14 62q44 9 60.5 26t20.5 59l48 389q2 18 2 23q0 16 -6.5 22.5t-23.5 6.5l-34 -1l-4 8l14 57q28 0 48 -1l86 -1q27 0 74.5 3.5
t62.5 4.5l-14 -64q-37 -5 -50.5 -16t-18.5 -39q-21 -121 -42.5 -260zM286.5 732q-68.5 -19 -139.5 -42l-13 9l-13 45q67 30 134.5 62.5t87.5 42.5l12 -6l25 -75l-5 -12q-20 -5 -88.5 -24z" />
    <glyph glyph-name="Icircumflex" unicode="&#xce;" horiz-adv-x="352" 
d="M243.5 270q-21.5 -139 -21.5 -167q0 -23 7.5 -32t24.5 -9q16 0 27.5 1t14.5 2l4 -6l-16 -62q-16 0 -59 1.5t-83 1.5q-34 0 -78 -3.5t-57 -5.5l14 62q44 9 60.5 26t20.5 59l48 389q2 18 2 23q0 16 -6.5 22.5t-23.5 6.5l-34 -1l-4 8l14 57q28 0 48 -1l86 -1q27 0 74.5 3.5
t62.5 4.5l-14 -64q-37 -5 -50.5 -16t-18.5 -39q-21 -121 -42.5 -260zM178 813.5q61 45.5 81 60.5h19q1 2 26 -21.5t33 -31.5q31 -29 78 -70l-29 -40l-16 -4l-38 20q-72 37 -77 39q-12 -5 -75 -34l-54 -25l-15 4l-19 40q25 17 86 62.5z" />
    <glyph glyph-name="Eth" unicode="&#xd0;" horiz-adv-x="682" 
d="M538.5 615q64.5 -31 99.5 -89t35 -138q0 -113 -49 -204t-134.5 -143.5t-191.5 -52.5q-16 2 -65.5 7t-83.5 5q-32 0 -72.5 -4t-53.5 -6l15 65q42 8 58.5 25t22.5 60l18 147h-114l-7 7l17 58h112l21 172q2 20 2 25q0 16 -5.5 22.5t-19.5 6.5q-11 0 -20.5 -1t-12.5 -1l-4 9
l14 59q14 0 50.5 -1.5t71.5 -1.5q28 0 78 2t66 3q88 0 152.5 -31zM425.5 107q46.5 37 72 106t25.5 162q0 190 -190 190q-15 0 -21 -5t-9 -20l-21 -131l-9 -57l119 2l6 -9l-14 -58h-121q-23 -149 -23 -163q0 -31 16.5 -42.5t58.5 -11.5q64 0 110.5 37z" />
    <glyph glyph-name="Ntilde" unicode="&#xd1;" horiz-adv-x="702" 
d="M548 536q2 23 -4 33t-22 10l-34 -1l-3 7l15 60q13 -1 49.5 -2.5t73.5 -1.5q29 0 65.5 2.5t47.5 3.5l-12 -64q-33 -4 -48.5 -19t-20.5 -44l-79 -535l-100 -14q-75 159 -151.5 309.5t-76.5 148.5h-9l-42 -323q-1 -6 -1 -15q0 -16 7 -22.5t23 -6.5l41 2l5 -6l-17 -62
q-13 1 -49.5 2.5t-73.5 1.5q-33 0 -70.5 -3.5t-48.5 -4.5l16 64q30 4 45.5 18.5t19.5 44.5l61 401q1 6 1 15q0 23 -15.5 32.5t-56.5 14.5q-1 2 -2.5 4t-2.5 5l13 55q11 -1 46 -3t64 -2q26 0 54.5 1.5t37.5 2.5q44 -97 90.5 -190.5t77.5 -154t40 -76.5h9zM238 724l1 10l88 95
l15 4q18 0 76 -18q7 -2 30.5 -8.5t34.5 -6.5q10 0 25.5 11.5t28 23.5t15.5 16h11l34 -36l-1 -10l-88 -95l-16 -4q-19 0 -75 18q-7 2 -30.5 8.5t-34.5 6.5t-26 -11.5t-27.5 -23.5t-15.5 -16h-11z" />
    <glyph glyph-name="Ograve" unicode="&#xd2;" horiz-adv-x="650" 
d="M155.5 21q-58.5 33 -90.5 93t-32 141q0 117 43 207.5t122 140.5t182 50q79 0 138 -32t91 -91.5t32 -140.5q0 -117 -44 -208t-123.5 -142t-183.5 -51q-76 0 -134.5 33zM442 150q48 79 48 220q0 90 -36 140.5t-98 50.5q-53 0 -92.5 -35.5t-61 -103t-21.5 -160.5
q0 -90 34.5 -140.5t95.5 -50.5q83 0 131 79zM287 844l12 5q19 -10 86.5 -42.5t134.5 -62.5l-12 -45l-13 -9q-71 22 -139.5 41.5t-88.5 24.5l-5 13z" />
    <glyph glyph-name="Oacute" unicode="&#xd3;" horiz-adv-x="650" 
d="M155.5 21q-58.5 33 -90.5 93t-32 141q0 117 43 207.5t122 140.5t182 50q79 0 138 -32t91 -91.5t32 -140.5q0 -117 -44 -208t-123.5 -142t-183.5 -51q-76 0 -134.5 33zM442 150q48 79 48 220q0 90 -36 140.5t-98 50.5q-53 0 -92.5 -35.5t-61 -103t-21.5 -160.5
q0 -90 34.5 -140.5t95.5 -50.5q83 0 131 79zM427.5 732q-68.5 -19 -139.5 -42l-13 9l-13 45q67 30 134.5 62.5t87.5 42.5l12 -6l25 -75l-5 -12q-20 -5 -88.5 -24z" />
    <glyph glyph-name="Ocircumflex" unicode="&#xd4;" horiz-adv-x="650" 
d="M155.5 21q-58.5 33 -90.5 93t-32 141q0 117 43 207.5t122 140.5t182 50q79 0 138 -32t91 -91.5t32 -140.5q0 -117 -44 -208t-123.5 -142t-183.5 -51q-76 0 -134.5 33zM442 150q48 79 48 220q0 90 -36 140.5t-98 50.5q-53 0 -92.5 -35.5t-61 -103t-21.5 -160.5
q0 -90 34.5 -140.5t95.5 -50.5q83 0 131 79zM319 813.5q61 45.5 81 60.5h19q1 2 26 -21.5t33 -31.5q31 -29 78 -70l-29 -40l-16 -4l-38 20q-72 37 -77 39q-12 -5 -75 -34l-54 -25l-15 4l-19 40q25 17 86 62.5z" />
    <glyph glyph-name="Otilde" unicode="&#xd5;" horiz-adv-x="650" 
d="M155.5 21q-58.5 33 -90.5 93t-32 141q0 117 43 207.5t122 140.5t182 50q79 0 138 -32t91 -91.5t32 -140.5q0 -117 -44 -208t-123.5 -142t-183.5 -51q-76 0 -134.5 33zM442 150q48 79 48 220q0 90 -36 140.5t-98 50.5q-53 0 -92.5 -35.5t-61 -103t-21.5 -160.5
q0 -90 34.5 -140.5t95.5 -50.5q83 0 131 79zM213 724l1 10l88 95l15 4q18 0 76 -18q7 -2 30.5 -8.5t34.5 -6.5q10 0 25.5 11.5t28 23.5t15.5 16h11l34 -36l-1 -10l-88 -95l-16 -4q-19 0 -75 18q-7 2 -30.5 8.5t-34.5 6.5t-26 -11.5t-27.5 -23.5t-15.5 -16h-11z" />
    <glyph glyph-name="multiply" unicode="&#xd7;" horiz-adv-x="488" 
d="M451 378l-137 -128q29 -34 64 -73t46 -50l-6 -13l-77 -56l-104 124q-48 -44 -85.5 -79.5t-49.5 -46.5l-12 3l-42 70l130 119l-109 130l3 13l79 52q9 -12 38 -47t66 -79q47 45 86 83.5t52 51.5l12 -5z" />
    <glyph glyph-name="Oslash" unicode="&#xd8;" horiz-adv-x="650" 
d="M615.5 515q25.5 -55 25.5 -126q0 -117 -44 -208t-123.5 -142t-183.5 -51q-52 0 -98 16l-68 -111l-58 28l-3 10l66 107q-46 35 -71 90.5t-25 126.5q0 117 43 207.5t122 140.5t182 50q54 0 98 -15l53 90l60 -28l2 -13l-49 -83q46 -34 71.5 -89zM263.5 525.5
q-39.5 -35.5 -61 -103t-21.5 -160.5q0 -62 17 -107l224 387q-30 19 -66 19q-53 0 -92.5 -35.5zM442 150q48 79 48 220q0 64 -19 111l-227 -389q29 -21 67 -21q83 0 131 79z" />
    <glyph glyph-name="Ugrave" unicode="&#xd9;" horiz-adv-x="631" 
d="M208 198q0 -61 26 -92.5t78 -31.5q120 0 136 136q9 77 20 176t15 139q1 10 1 24q0 18 -5.5 24t-19.5 6q-9 0 -19 -1t-14 -1l-1 4l16 63q12 0 45 -1.5t66 -1.5q31 0 68 3t48 4l-14 -64q-37 -7 -48.5 -16.5t-14.5 -34.5l-39 -314q-14 -113 -83 -172t-188 -59
q-101 0 -152.5 44.5t-51.5 130.5q0 20 3 42l39 320q2 20 2 26q0 16 -6 22t-21 6q-9 0 -18.5 -1t-12.5 -1l-1 4l16 63q14 -1 53 -2t83 -1q25 0 64 3t51 4l-14 -65q-32 -5 -44.5 -16t-16.5 -38l-43 -291q-3 -21 -3 -40zM278 844l12 5q19 -10 86.5 -42.5t134.5 -62.5l-12 -45
l-13 -9q-71 22 -139.5 41.5t-88.5 24.5l-5 13z" />
    <glyph glyph-name="Uacute" unicode="&#xda;" horiz-adv-x="631" 
d="M208 198q0 -61 26 -92.5t78 -31.5q120 0 136 136q9 77 20 176t15 139q1 10 1 24q0 18 -5.5 24t-19.5 6q-9 0 -19 -1t-14 -1l-1 4l16 63q12 0 45 -1.5t66 -1.5q31 0 68 3t48 4l-14 -64q-37 -7 -48.5 -16.5t-14.5 -34.5l-39 -314q-14 -113 -83 -172t-188 -59
q-101 0 -152.5 44.5t-51.5 130.5q0 20 3 42l39 320q2 20 2 26q0 16 -6 22t-21 6q-9 0 -18.5 -1t-12.5 -1l-1 4l16 63q14 -1 53 -2t83 -1q25 0 64 3t51 4l-14 -65q-32 -5 -44.5 -16t-16.5 -38l-43 -291q-3 -21 -3 -40zM418.5 732q-68.5 -19 -139.5 -42l-13 9l-13 45
q67 30 134.5 62.5t87.5 42.5l12 -6l25 -75l-5 -12q-20 -5 -88.5 -24z" />
    <glyph glyph-name="Ucircumflex" unicode="&#xdb;" horiz-adv-x="633" 
d="M208 198q0 -61 26 -92.5t78 -31.5q120 0 136 136q9 77 20 176t15 139q1 10 1 24q0 18 -5.5 24t-19.5 6q-9 0 -19 -1t-14 -1l-1 4l16 63q12 0 45 -1.5t66 -1.5q31 0 68 3t48 4l-14 -64q-37 -7 -48.5 -16.5t-14.5 -34.5l-39 -314q-14 -113 -83 -172t-188 -59
q-101 0 -152.5 44.5t-51.5 130.5q0 20 3 42l39 320q2 20 2 26q0 16 -6 22t-21 6q-9 0 -18.5 -1t-12.5 -1l-1 4l16 63q14 -1 53 -2t83 -1q25 0 64 3t51 4l-14 -65q-32 -5 -44.5 -16t-16.5 -38l-43 -291q-3 -21 -3 -40zM315 813.5q61 45.5 81 60.5h19q1 2 26 -21.5t33 -31.5
q31 -29 78 -70l-29 -40l-16 -4l-38 20q-72 37 -77 39q-12 -5 -75 -34l-54 -25l-15 4l-19 40q25 17 86 62.5z" />
    <glyph glyph-name="Udieresis" unicode="&#xdc;" horiz-adv-x="633" 
d="M208 198q0 -61 26 -92.5t78 -31.5q120 0 136 136q9 77 20 176t15 139q1 10 1 24q0 18 -5.5 24t-19.5 6q-9 0 -19 -1t-14 -1l-1 4l16 63q12 0 45 -1.5t66 -1.5q31 0 68 3t48 4l-14 -64q-37 -7 -48.5 -16.5t-14.5 -34.5l-39 -314q-14 -113 -83 -172t-188 -59
q-101 0 -152.5 44.5t-51.5 130.5q0 20 3 42l39 320q2 20 2 26q0 16 -6 22t-21 6q-9 0 -18.5 -1t-12.5 -1l-1 4l16 63q14 -1 53 -2t83 -1q25 0 64 3t51 4l-14 -65q-32 -5 -44.5 -16t-16.5 -38l-43 -291q-3 -21 -3 -40zM252.5 721q-12.5 14 -12.5 37q0 33 20.5 54t53.5 21
q24 0 37 -14t13 -37q0 -33 -20.5 -54t-53.5 -21q-25 0 -37.5 14zM425 721q-13 14 -13 37q0 32 21 53.5t53 21.5q24 0 37.5 -14t13.5 -37q0 -32 -21 -53.5t-53 -21.5q-25 0 -38 14z" />
    <glyph glyph-name="Thorn" unicode="&#xde;" horiz-adv-x="553" 
d="M357 513q99 0 149.5 -38t50.5 -113q0 -61 -35.5 -110.5t-95 -77.5t-129.5 -28h-68l-4 -32q-1 -7 -1 -19q0 -19 7 -25.5t25 -6.5t30.5 1t16.5 2l3 -6l-16 -63q-17 0 -61.5 1.5t-86.5 1.5q-34 0 -78 -3.5t-58 -5.5l14 64q43 8 59.5 25t21.5 59l47 387q2 18 2 23
q0 16 -6.5 22.5t-23.5 6.5l-33 -1l-5 8l15 58l135 -1q27 0 75 3l64 4l-14 -66q-38 -6 -50.5 -15t-17.5 -32l-5 -23h73zM256 336q-14 -97 -15 -104q17 -5 40 -9t38 -5q48 8 72.5 40.5t24.5 85.5q0 47 -30 69t-93 22q-13 0 -18 -3.5t-6 -11.5z" />
    <glyph glyph-name="germandbls" unicode="&#xdf;" horiz-adv-x="606" 
d="M432 355q17 -16 55 -41q34 -22 55.5 -39.5t37 -43.5t15.5 -61q0 -50 -28.5 -91.5t-76.5 -66t-105 -24.5q-50 0 -87.5 17t-40.5 41q5 22 22.5 56.5t33.5 52.5l20 -1q-4 -40 15.5 -64.5t54.5 -24.5q26 0 45.5 21t19.5 48q0 25 -18 43t-56 42q-33 22 -53 38.5t-34 41
t-14 56.5q0 37 18 64t54 63q31 30 45.5 50.5t14.5 46.5q0 34 -25 56t-70 22q-40 0 -64 -24.5t-31 -76.5l-66 -600q-6 -53 -34.5 -99t-71.5 -72.5t-89 -26.5q-39 0 -70 15t-39 38q6 22 21.5 55.5t28.5 50.5h16q3 -81 71 -81q23 0 40.5 14t24.5 39q-1 1 6 81l5 65l26 349l-8 8
l-72 1l-3 5l6 46l83 12l7 66q7 58 44 109t92.5 81t114.5 30q51 0 91.5 -16t63.5 -45t23 -66q0 -42 -19.5 -71.5t-56.5 -64.5q-29 -28 -42 -45.5t-13 -40.5q0 -22 17 -38zM71 -85l-4 -24q2 10 4 24z" />
    <glyph glyph-name="agrave" unicode="&#xe0;" horiz-adv-x="491" 
d="M404 112q13 10 47 41l17 -2l16 -35q-73 -76 -109 -102t-65 -26q-20 0 -30.5 9.5t-10.5 26.5q0 20 35 171l-8 1q-45 -80 -83.5 -129.5t-78.5 -78.5q-53 0 -82.5 38t-29.5 106q0 80 35.5 157.5t91 126.5t113.5 49l87 -17l8 22l11 6l77 -13l8 -17q-22 -84 -41.5 -178
t-30.5 -162l3 -4q7 0 20 10zM207 138.5q27 36.5 57.5 96t55.5 124.5q-21 13 -45 21t-42 8q-22 0 -43 -29t-34 -75.5t-13 -95.5q0 -37 6.5 -61.5t16.5 -24.5q14 0 41 36.5zM205 736l13 1q14 -16 65 -68.5t102 -101.5l-30 -38l-14 -4q-58 43 -115 81t-73 48l-1 14z" />
    <glyph glyph-name="aacute" unicode="&#xe1;" horiz-adv-x="498" 
d="M411 112q13 10 47 41l17 -2l16 -35q-73 -76 -109 -102t-65 -26q-20 0 -30.5 9.5t-10.5 26.5q0 20 35 171l-8 1q-45 -80 -83.5 -129.5t-78.5 -78.5q-53 0 -82.5 38t-29.5 106q0 80 35.5 157.5t91 126.5t113.5 49l87 -17l8 22l11 6l77 -13l8 -17q-22 -84 -41.5 -178
t-30.5 -162l3 -4q7 0 20 10zM214 138.5q27 36.5 57.5 96t55.5 124.5q-21 13 -45 21t-42 8q-22 0 -43 -29t-34 -75.5t-13 -95.5q0 -37 6.5 -61.5t16.5 -24.5q14 0 41 36.5zM340 617q-57 -38 -115 -81l-15 4l-29 38q51 49 102 101.5t65 68.5l13 -1l53 -68l-1 -14
q-16 -10 -73 -48z" />
    <glyph glyph-name="acircumflex" unicode="&#xe2;" horiz-adv-x="491" 
d="M404 112q13 10 47 41l17 -2l16 -35q-73 -76 -109 -102t-65 -26q-20 0 -30.5 9.5t-10.5 26.5q0 20 35 171l-8 1q-45 -80 -83.5 -129.5t-78.5 -78.5q-53 0 -82.5 38t-29.5 106q0 80 35.5 157.5t91 126.5t113.5 49l87 -17l8 22l11 6l77 -13l8 -17q-22 -84 -41.5 -178
t-30.5 -162l3 -4q7 0 20 10zM207 138.5q27 36.5 57.5 96t55.5 124.5q-21 13 -45 21t-42 8q-22 0 -43 -29t-34 -75.5t-13 -95.5q0 -37 6.5 -61.5t16.5 -24.5q14 0 41 36.5zM225.5 653q60.5 58 80.5 78h20q16 -20 62.5 -78t65.5 -77l-33 -40l-16 -3l-29 24q-50 43 -74 60
q-16 -9 -77 -53l-45 -31l-16 3l-23 40q24 19 84.5 77z" />
    <glyph glyph-name="atilde" unicode="&#xe3;" horiz-adv-x="491" 
d="M404 112q13 10 47 41l17 -2l16 -35q-73 -76 -109 -102t-65 -26q-20 0 -30.5 9.5t-10.5 26.5q0 20 35 171l-8 1q-45 -80 -83.5 -129.5t-78.5 -78.5q-53 0 -82.5 38t-29.5 106q0 80 35.5 157.5t91 126.5t113.5 49l87 -17l8 22l11 6l77 -13l8 -17q-22 -84 -41.5 -178
t-30.5 -162l3 -4q7 0 20 10zM207 138.5q27 36.5 57.5 96t55.5 124.5q-21 13 -45 21t-42 8q-22 0 -43 -29t-34 -75.5t-13 -95.5q0 -37 6.5 -61.5t16.5 -24.5q14 0 41 36.5zM139 577l1 10l88 101l16 4q18 0 76 -18q52 -16 65 -16q10 0 25.5 12.5t28 26.5t15.5 18h11l35 -36
l-2 -10l-88 -101l-16 -4q-18 0 -76 18q-52 16 -65 16q-10 0 -25.5 -12.5t-28 -26.5t-15.5 -18h-11z" />
    <glyph glyph-name="adieresis" unicode="&#xe4;" horiz-adv-x="491" 
d="M404 112q13 10 47 41l17 -2l16 -35q-73 -76 -109 -102t-65 -26q-20 0 -30.5 9.5t-10.5 26.5q0 20 35 171l-8 1q-45 -80 -83.5 -129.5t-78.5 -78.5q-53 0 -82.5 38t-29.5 106q0 80 35.5 157.5t91 126.5t113.5 49l87 -17l8 22l11 6l77 -13l8 -17q-22 -84 -41.5 -178
t-30.5 -162l3 -4q7 0 20 10zM207 138.5q27 36.5 57.5 96t55.5 124.5q-21 13 -45 21t-42 8q-22 0 -43 -29t-34 -75.5t-13 -95.5q0 -37 6.5 -61.5t16.5 -24.5q14 0 41 36.5zM162.5 575q-14.5 15 -14.5 40q0 32 20 52t51 20q25 0 39 -15t14 -41q0 -31 -19.5 -51t-50.5 -20
q-25 0 -39.5 15zM335.5 575q-14.5 15 -14.5 40q0 32 19.5 52t50.5 20q25 0 39.5 -15t14.5 -41q0 -31 -19.5 -51t-50.5 -20q-25 0 -39.5 15z" />
    <glyph glyph-name="aring" unicode="&#xe5;" horiz-adv-x="491" 
d="M404 112q13 10 47 41l17 -2l16 -35q-73 -76 -109 -102t-65 -26q-20 0 -30.5 9.5t-10.5 26.5q0 20 35 171l-8 1q-45 -80 -83.5 -129.5t-78.5 -78.5q-53 0 -82.5 38t-29.5 106q0 80 35.5 157.5t91 126.5t113.5 49l87 -17l8 22l11 6l77 -13l8 -17q-22 -84 -41.5 -178
t-30.5 -162l3 -4q7 0 20 10zM207 138.5q27 36.5 57.5 96t55.5 124.5q-21 13 -45 21t-42 8q-22 0 -43 -29t-34 -75.5t-13 -95.5q0 -37 6.5 -61.5t16.5 -24.5q14 0 41 36.5zM255.5 566q-19.5 21 -19.5 57q0 45 30 76t76 31q39 0 57.5 -21.5t18.5 -53.5q0 -44 -29.5 -77
t-77.5 -33q-36 0 -55.5 21zM353.5 606.5q13.5 8.5 13.5 32.5q0 18 -10 27.5t-29 9.5q-21 0 -32 -11t-11 -30t12 -28t27 -9q16 0 29.5 8.5z" />
    <glyph glyph-name="ae" unicode="&#xe6;" horiz-adv-x="632" 
d="M563 160l31 -39q-27 -57 -81 -95t-109 -38q-59 0 -96 42.5t-42 114.5q-66 -110 -132 -157q-53 0 -82.5 38.5t-29.5 106.5q0 79 35.5 156.5t91.5 126.5t113 49l153 -23q50 31 103 31q49 0 77 -25t28 -69t-24.5 -77.5t-77 -61.5t-141.5 -57q0 -46 17 -73t47 -27
q28 0 54.5 20.5t46.5 58.5zM234 182.5q47 80.5 86 186.5q-47 19 -89 19q-21 0 -41.5 -29t-33.5 -75.5t-13 -94.5q0 -37 6 -62t16 -25q22 0 69 80.5zM508.5 377.5q-8.5 9.5 -24.5 9.5q-34 0 -62 -40.5t-38 -103.5q69 23 101 49t32 59q0 17 -8.5 26.5z" />
    <glyph glyph-name="ccedilla" unicode="&#xe7;" horiz-adv-x="366" 
d="M191.5 359.5q-22.5 -26.5 -36 -71t-13.5 -95.5t15.5 -80.5t43.5 -29.5q26 0 51.5 22.5t42.5 59.5l17 -2l32 -40q-26 -57 -78.5 -96t-104.5 -39q-63 0 -99.5 46t-36.5 125q0 81 35 153.5t92.5 116.5t122.5 44q28 0 53.5 -6t42.5 -17l5 -14l-42 -95l-27 -2q-28 47 -67 47
q-26 0 -48.5 -26.5zM223 29l-29 -73q37 -24 60 -45.5t23 -46.5q0 -27 -21 -50.5t-54 -37.5t-68 -14q-26 0 -48.5 12t-22.5 30q0 10 14 29t31 36h8q-2 -27 9.5 -41.5t33.5 -14.5q18 0 30 9t12 24q0 24 -74 68l45 115h51z" />
    <glyph glyph-name="egrave" unicode="&#xe8;" horiz-adv-x="391" 
d="M357.5 301.5q-24.5 -33.5 -77 -61.5t-141.5 -57q0 -46 17 -73t47 -27q28 0 54.5 20.5t46.5 58.5l18 -2l31 -39q-27 -57 -81 -95t-109 -38q-64 0 -101 47t-37 127q0 79 35.5 151t94 116t122.5 44q49 0 77 -25t28 -69t-24.5 -77.5zM181 346.5q-28 -40.5 -38 -103.5
q69 23 101 49t32 59q0 17 -8.5 26.5t-24.5 9.5q-34 0 -62 -40.5zM181 723l13 1q14 -16 65 -68.5t102 -101.5l-30 -38l-14 -4q-58 43 -115 81t-73 48l-1 14z" />
    <glyph glyph-name="eacute" unicode="&#xe9;" horiz-adv-x="391" 
d="M357.5 301.5q-24.5 -33.5 -77 -61.5t-141.5 -57q0 -46 17 -73t47 -27q28 0 54.5 20.5t46.5 58.5l18 -2l31 -39q-27 -57 -81 -95t-109 -38q-64 0 -101 47t-37 127q0 79 35.5 151t94 116t122.5 44q49 0 77 -25t28 -69t-24.5 -77.5zM181 346.5q-28 -40.5 -38 -103.5
q69 23 101 49t32 59q0 17 -8.5 26.5t-24.5 9.5q-34 0 -62 -40.5zM310 604q-57 -38 -115 -81l-15 4l-29 38q51 49 102 101.5t65 68.5l13 -1l53 -68l-1 -14q-16 -10 -73 -48z" />
    <glyph glyph-name="ecircumflex" unicode="&#xea;" horiz-adv-x="372" 
d="M357.5 301.5q-24.5 -33.5 -77 -61.5t-141.5 -57q0 -46 17 -73t47 -27q28 0 54.5 20.5t46.5 58.5l18 -2l31 -39q-27 -57 -81 -95t-109 -38q-64 0 -101 47t-37 127q0 79 35.5 151t94 116t122.5 44q49 0 77 -25t28 -69t-24.5 -77.5zM181 346.5q-28 -40.5 -38 -103.5
q69 23 101 49t32 59q0 17 -8.5 26.5t-24.5 9.5q-34 0 -62 -40.5zM201.5 640q60.5 58 80.5 78h20q16 -20 62.5 -78t65.5 -77l-33 -40l-16 -3l-29 24q-50 43 -74 60q-16 -9 -77 -53l-45 -31l-16 3l-23 40q24 19 84.5 77z" />
    <glyph glyph-name="edieresis" unicode="&#xeb;" horiz-adv-x="391" 
d="M357.5 301.5q-24.5 -33.5 -77 -61.5t-141.5 -57q0 -46 17 -73t47 -27q28 0 54.5 20.5t46.5 58.5l18 -2l31 -39q-27 -57 -81 -95t-109 -38q-64 0 -101 47t-37 127q0 79 35.5 151t94 116t122.5 44q49 0 77 -25t28 -69t-24.5 -77.5zM181 346.5q-28 -40.5 -38 -103.5
q69 23 101 49t32 59q0 17 -8.5 26.5t-24.5 9.5q-34 0 -62 -40.5zM138.5 562q-14.5 15 -14.5 40q0 32 20 52t51 20q25 0 39 -15t14 -41q0 -31 -19.5 -51t-50.5 -20q-25 0 -39.5 15zM311.5 562q-14.5 15 -14.5 40q0 32 19.5 52t50.5 20q25 0 39.5 -15t14.5 -41
q0 -31 -19.5 -51t-50.5 -20q-25 0 -39.5 15z" />
    <glyph glyph-name="igrave" unicode="&#xec;" horiz-adv-x="312" 
d="M126 734l13 1q14 -16 65 -68.5t102 -101.5l-30 -38l-14 -4q-58 43 -115 81t-73 48l-1 14zM217 110q11 8 50 43l17 -2l16 -35q-64 -69 -103.5 -98.5t-67.5 -29.5q-24 0 -35 12t-11 37q48 291 48 320q0 20 -9 29t-29 9h-35l9 58q62 0 190 8l12 -15q-21 -71 -41 -167.5
t-31 -172.5l3 -4q6 0 17 8z" />
    <glyph glyph-name="iacute" unicode="&#xed;" horiz-adv-x="282" 
d="M187 110q11 8 50 43l17 -2l16 -35q-64 -69 -103.5 -98.5t-67.5 -29.5q-24 0 -35 12t-11 37q48 291 48 320q0 20 -9 29t-29 9h-35l9 58q62 0 190 8l12 -15q-21 -71 -41 -167.5t-31 -172.5l3 -4q6 0 17 8zM219 601q-57 -38 -115 -81l-15 4l-29 38q51 49 102 101.5t65 68.5
l13 -1l53 -68l-1 -14q-16 -10 -73 -48z" />
    <glyph glyph-name="icircumflex" unicode="&#xee;" horiz-adv-x="282" 
d="M187 110q11 8 50 43l17 -2l16 -35q-64 -69 -103.5 -98.5t-67.5 -29.5q-24 0 -35 12t-11 37q48 291 48 320q0 20 -9 29t-29 9h-35l9 58q62 0 190 8l12 -15q-21 -71 -41 -167.5t-31 -172.5l3 -4q6 0 17 8zM110.5 637q60.5 58 80.5 78h20q16 -20 62.5 -78t65.5 -77l-33 -40
l-16 -3l-29 24q-50 43 -74 60q-16 -9 -77 -53l-45 -31l-16 3l-23 40q24 19 84.5 77z" />
    <glyph glyph-name="eth" unicode="&#xf0;" horiz-adv-x="453" 
d="M390.5 459q30.5 -78 30.5 -158q0 -87 -32.5 -159t-89 -113t-126.5 -41q-66 0 -104 47t-38 129q0 81 31 148.5t84.5 108.5t119.5 44q-20 43 -57 87l-128 -64l-8 2l-12 59l97 50q-44 47 -102 82l37 55l13 5q79 -39 146 -97l140 71l7 -5l11 -58l-105 -53q55 -62 85.5 -140z
M275 117q23 52 23 142q0 60 -16 90.5t-46 30.5q-38 0 -61.5 -51t-23.5 -133q0 -61 16 -96t45 -35q40 0 63 52z" />
    <glyph glyph-name="ntilde" unicode="&#xf1;" horiz-adv-x="518" 
d="M501 117q-66 -70 -104.5 -99t-66.5 -29q-46 0 -46 43q0 17 8.5 49t25.5 87q13 43 24 84.5t11 59.5q0 17 -7 26.5t-19 9.5q-24 0 -66.5 -70t-85.5 -181l-8 -69q-2 -12 -35.5 -24t-65.5 -12l-13 15q18 108 32.5 203.5t21.5 143.5q2 22 -7 31.5t-31 9.5h-34l9 58q76 0 188 8
l11 -16q-13 -41 -26.5 -97t-21.5 -101l6 -1q42 88 83.5 146.5t78.5 80.5q49 0 78.5 -28t29.5 -72q0 -23 -11 -63.5t-31 -102.5q-25 -75 -30 -100l3 -3q7 0 18.5 9t47.5 42l18 -3zM152 564l1 10l88 101l16 4q18 0 76 -18q52 -16 65 -16q10 0 25.5 12.5t28 26.5t15.5 18h11
l35 -36l-2 -10l-88 -101l-16 -4q-18 0 -76 18q-52 16 -65 16q-10 0 -25.5 -12.5t-28 -26.5t-15.5 -18h-11z" />
    <glyph glyph-name="ograve" unicode="&#xf2;" horiz-adv-x="444" 
d="M67 35.5q-38 47.5 -38 130.5q0 85 32.5 155.5t89 111t125.5 40.5q68 0 105.5 -43.5t37.5 -123.5q0 -89 -32 -161.5t-89 -114.5t-127 -42q-66 0 -104 47.5zM274 116q23 50 23 144q0 62 -15.5 94t-46.5 32q-40 0 -63 -46.5t-23 -131.5q0 -69 16.5 -105.5t45.5 -36.5
q40 0 63 50zM178 723l13 1q14 -16 65 -68.5t102 -101.5l-30 -38l-14 -4q-58 43 -115 81t-73 48l-1 14z" />
    <glyph glyph-name="oacute" unicode="&#xf3;" horiz-adv-x="442" 
d="M65 35.5q-38 47.5 -38 130.5q0 85 32.5 155.5t89 111t125.5 40.5q68 0 105.5 -43.5t37.5 -123.5q0 -89 -32 -161.5t-89 -114.5t-127 -42q-66 0 -104 47.5zM272 116q23 50 23 144q0 62 -15.5 94t-46.5 32q-40 0 -63 -46.5t-23 -131.5q0 -69 16.5 -105.5t45.5 -36.5
q40 0 63 50zM305 604q-57 -38 -115 -81l-15 4l-29 38q51 49 102 101.5t65 68.5l13 -1l53 -68l-1 -14q-16 -10 -73 -48z" />
    <glyph glyph-name="ocircumflex" unicode="&#xf4;" horiz-adv-x="444" 
d="M67 35.5q-38 47.5 -38 130.5q0 85 32.5 155.5t89 111t125.5 40.5q68 0 105.5 -43.5t37.5 -123.5q0 -89 -32 -161.5t-89 -114.5t-127 -42q-66 0 -104 47.5zM274 116q23 50 23 144q0 62 -15.5 94t-46.5 32q-40 0 -63 -46.5t-23 -131.5q0 -69 16.5 -105.5t45.5 -36.5
q40 0 63 50zM199.5 640q60.5 58 80.5 78h20q16 -20 62.5 -78t65.5 -77l-33 -40l-16 -3l-29 24q-50 43 -74 60q-16 -9 -77 -53l-45 -31l-16 3l-23 40q24 19 84.5 77z" />
    <glyph glyph-name="otilde" unicode="&#xf5;" horiz-adv-x="441" 
d="M65 35.5q-38 47.5 -38 130.5q0 85 32.5 155.5t89 111t125.5 40.5q68 0 105.5 -43.5t37.5 -123.5q0 -89 -32 -161.5t-89 -114.5t-127 -42q-66 0 -104 47.5zM272 116q23 50 23 144q0 62 -15.5 94t-46.5 32q-40 0 -63 -46.5t-23 -131.5q0 -69 16.5 -105.5t45.5 -36.5
q40 0 63 50zM110 564l1 10l88 101l16 4q18 0 76 -18q52 -16 65 -16q10 0 25.5 12.5t28 26.5t15.5 18h11l35 -36l-2 -10l-88 -101l-16 -4q-18 0 -76 18q-52 16 -65 16q-10 0 -25.5 -12.5t-28 -26.5t-15.5 -18h-11z" />
    <glyph glyph-name="divide" unicode="&#xf7;" horiz-adv-x="488" 
d="M210 379q-15 16 -15 42q0 37 22.5 60.5t59.5 23.5q28 0 43 -16t15 -42q0 -37 -22.5 -60.5t-59.5 -23.5q-28 0 -43 16zM459 210l-218 -1l-220 -1l-6 11l25 87l225 -1q49 0 119 2.5t92 3.5l5 -12zM167 24q-15 16 -15 43q0 37 22.5 60.5t58.5 23.5q28 0 43 -16t15 -43
q0 -37 -22.5 -60.5t-58.5 -23.5q-28 0 -43 16z" />
    <glyph glyph-name="oslash" unicode="&#xf8;" horiz-adv-x="442" 
d="M381 427q36 -44 36 -121q0 -89 -32 -161.5t-89 -114.5t-127 -42q-22 0 -42 6l-67 -110l-58 28l-3 10l68 112q-40 46 -40 132q0 85 32.5 155.5t89 111t125.5 40.5q25 0 46 -6l61 103l60 -29l2 -12zM170 339.5q-23 -46.5 -23 -131.5q0 -26 1 -37l117 202q-12 13 -32 13
q-40 0 -63 -46.5zM272 116q23 50 23 144v20l-117 -200q14 -14 31 -14q40 0 63 50z" />
    <glyph glyph-name="ugrave" unicode="&#xf9;" horiz-adv-x="506" 
d="M495 116q-71 -73 -108 -100.5t-65 -27.5q-42 0 -42 37q0 21 36 177l-8 2q-77 -159 -153 -215q-52 0 -81.5 25.5t-29.5 69.5q0 19 9 53.5t26 95.5q31 105 31 127q0 18 -9 26.5t-29 8.5h-35l10 58q57 0 189 8l12 -15q-39 -117 -63 -203t-24 -106q0 -15 5 -22t18 -7
q22 0 64.5 69t91.5 185l15 95l14 7l100 -5l10 -14q-23 -73 -45 -166.5t-33 -163.5l3 -4q8 2 19.5 10.5t38.5 31.5l17 -2zM209 723l13 1q14 -16 65 -68.5t102 -101.5l-30 -38l-14 -4q-58 43 -115 81t-73 48l-1 14z" />
    <glyph glyph-name="uacute" unicode="&#xfa;" horiz-adv-x="506" 
d="M495 116q-71 -73 -108 -100.5t-65 -27.5q-42 0 -42 37q0 21 36 177l-8 2q-77 -159 -153 -215q-52 0 -81.5 25.5t-29.5 69.5q0 19 9 53.5t26 95.5q31 105 31 127q0 18 -9 26.5t-29 8.5h-35l10 58q57 0 189 8l12 -15q-39 -117 -63 -203t-24 -106q0 -15 5 -22t18 -7
q22 0 64.5 69t91.5 185l15 95l14 7l100 -5l10 -14q-23 -73 -45 -166.5t-33 -163.5l3 -4q8 2 19.5 10.5t38.5 31.5l17 -2zM337 604q-57 -38 -115 -81l-15 4l-29 38q51 49 102 101.5t65 68.5l13 -1l53 -68l-1 -14q-16 -10 -73 -48z" />
    <glyph glyph-name="ucircumflex" unicode="&#xfb;" horiz-adv-x="507" 
d="M495 116q-71 -73 -108 -100.5t-65 -27.5q-42 0 -42 37q0 21 36 177l-8 2q-77 -159 -153 -215q-52 0 -81.5 25.5t-29.5 69.5q0 19 9 53.5t26 95.5q31 105 31 127q0 18 -9 26.5t-29 8.5h-35l10 58q57 0 189 8l12 -15q-39 -117 -63 -203t-24 -106q0 -15 5 -22t18 -7
q22 0 64.5 69t91.5 185l15 95l14 7l100 -5l10 -14q-23 -73 -45 -166.5t-33 -163.5l3 -4q8 2 19.5 10.5t38.5 31.5l17 -2zM229.5 640q60.5 58 80.5 78h20q16 -20 62.5 -78t65.5 -77l-33 -40l-16 -3l-29 24q-50 43 -74 60q-16 -9 -77 -53l-45 -31l-16 3l-23 40q24 19 84.5 77z
" />
    <glyph glyph-name="udieresis" unicode="&#xfc;" horiz-adv-x="507" 
d="M495 116q-71 -73 -108 -100.5t-65 -27.5q-42 0 -42 37q0 21 36 177l-8 2q-77 -159 -153 -215q-52 0 -81.5 25.5t-29.5 69.5q0 19 9 53.5t26 95.5q31 105 31 127q0 18 -9 26.5t-29 8.5h-35l10 58q57 0 189 8l12 -15q-39 -117 -63 -203t-24 -106q0 -15 5 -22t18 -7
q22 0 64.5 69t91.5 185l15 95l14 7l100 -5l10 -14q-23 -73 -45 -166.5t-33 -163.5l3 -4q8 2 19.5 10.5t38.5 31.5l17 -2zM166.5 562q-14.5 15 -14.5 40q0 32 20 52t51 20q25 0 39 -15t14 -41q0 -31 -19.5 -51t-50.5 -20q-25 0 -39.5 15zM339.5 562q-14.5 15 -14.5 40
q0 32 19.5 52t50.5 20q25 0 39.5 -15t14.5 -41q0 -31 -19.5 -51t-50.5 -20q-25 0 -39.5 15z" />
    <glyph glyph-name="thorn" unicode="&#xfe;" horiz-adv-x="485" 
d="M79 308.5q48 308.5 48 325.5q0 19 -9 28t-29 9h-35l9 57q47 0 109.5 3.5t81.5 5.5l12 -16q-4 -20 -20 -93t-36 -178.5t-36 -202.5l6 -1q45 90 80.5 141t73.5 81q59 0 93.5 -43.5t34.5 -117.5q0 -81 -35 -154.5t-92 -118t-121 -44.5q-41 0 -82 9l-17 -119q-1 -6 -1 -17
q0 -19 9.5 -25.5t33.5 -6.5h44l1 -6l-11 -54q-75 0 -149.5 -3t-96.5 -4l11 57q27 3 39 16.5t18 49.5q18 113 66 421.5zM250 286q-41 -74 -85 -187q6 -2 36 -13t51 -11q24 0 45 26t33.5 69t12.5 92q0 39 -9 68.5t-22 29.5q-21 0 -62 -74z" />
    <glyph glyph-name="ydieresis" unicode="&#xff;" horiz-adv-x="456" 
d="M420 473q14 -12 22 -35t8 -51q0 -107 -186 -375q-92 -132 -158 -191t-121 -59q-33 0 -58.5 13t-32.5 34q13 57 39 95l15 1q35 -41 69 -41q26 0 55 21.5t65 65.5q-25 264 -48 407q-4 20 -12 27.5t-24 7.5q-1 0 -40 -3l4 56l174 21l11 -10q14 -128 14 -330v-41h12
q49 86 77 154t28 103q0 23 -13 42.5t-36 32.5l7 31zM141.5 562q-14.5 15 -14.5 40q0 32 20 52t51 20q25 0 39 -15t14 -41q0 -31 -19.5 -51t-50.5 -20q-25 0 -39.5 15zM314.5 562q-14.5 15 -14.5 40q0 32 19.5 52t50.5 20q25 0 39.5 -15t14.5 -41q0 -31 -19.5 -51t-50.5 -20
q-25 0 -39.5 15z" />
    <glyph glyph-name="Amacron" unicode="&#x100;" horiz-adv-x="603" 
d="M539.5 79q14.5 -15 46.5 -19l4 -6l-14 -57q-13 1 -47.5 2t-70.5 1q-51 0 -100 -3.5l-63 -4.5l-4 8l11 57q49 4 65 12.5t16 30.5q0 7 -1 14.5t-2 14.5l-10 80l-87 1q-16 0 -94 -6l-33 -80q-10 -24 -10 -37q0 -14 9.5 -20.5t29.5 -6.5h43l3 -6l-13 -60q-13 1 -57 3.5
t-83 2.5q-40 0 -73 -1t-44 -2l15 64q24 4 40.5 19t31.5 49l232 507l151 17l10 -6q8 -56 33 -231.5t45 -285.5q6 -36 20.5 -51zM291 285q30 0 72 4l-28 225h-14l-98 -229h68zM495 710l-136 -1l-134 -1l-9 11l23 74l148 -1q30 0 70.5 2.5t52.5 3.5l7 -13z" />
    <glyph glyph-name="amacron" unicode="&#x101;" horiz-adv-x="491" 
d="M404 112q13 10 47 41l17 -2l16 -35q-73 -76 -109 -102t-65 -26q-20 0 -30.5 9.5t-10.5 26.5q0 20 35 171l-8 1q-45 -80 -83.5 -129.5t-78.5 -78.5q-53 0 -82.5 38t-29.5 106q0 80 35.5 157.5t91 126.5t113.5 49l87 -17l8 22l11 6l77 -13l8 -17q-22 -84 -41.5 -178
t-30.5 -162l3 -4q7 0 20 10zM207 138.5q27 36.5 57.5 96t55.5 124.5q-21 13 -45 21t-42 8q-22 0 -43 -29t-34 -75.5t-13 -95.5q0 -37 6.5 -61.5t16.5 -24.5q14 0 41 36.5zM426 585l-136 -1l-134 -1l-9 11l23 74l148 -1q31 0 71.5 2.5t52.5 3.5l6 -14z" />
    <glyph glyph-name="Abreve" unicode="&#x102;" horiz-adv-x="603" 
d="M539.5 79q14.5 -15 46.5 -19l4 -6l-14 -57q-13 1 -47.5 2t-70.5 1q-51 0 -100 -3.5l-63 -4.5l-4 8l11 57q49 4 65 12.5t16 30.5q0 7 -1 14.5t-2 14.5l-10 80l-87 1q-16 0 -94 -6l-33 -80q-10 -24 -10 -37q0 -14 9.5 -20.5t29.5 -6.5h43l3 -6l-13 -60q-13 1 -57 3.5
t-83 2.5q-40 0 -73 -1t-44 -2l15 64q24 4 40.5 19t31.5 49l232 507l151 17l10 -6q8 -56 33 -231.5t45 -285.5q6 -36 20.5 -51zM291 285q30 0 72 4l-28 225h-14l-98 -229h68zM427.5 806q28.5 15 45.5 44l16 -3l23 -33q-20 -49 -60 -82t-98 -33q-57 0 -89 33t-40 82l31 33
l17 3q10 -29 34.5 -44t57.5 -15q34 0 62.5 15z" />
    <glyph glyph-name="abreve" unicode="&#x103;" horiz-adv-x="491" 
d="M404 112q13 10 47 41l17 -2l16 -35q-73 -76 -109 -102t-65 -26q-20 0 -30.5 9.5t-10.5 26.5q0 20 35 171l-8 1q-45 -80 -83.5 -129.5t-78.5 -78.5q-53 0 -82.5 38t-29.5 106q0 80 35.5 157.5t91 126.5t113.5 49l87 -17l8 22l11 6l77 -13l8 -17q-22 -84 -41.5 -178
t-30.5 -162l3 -4q7 0 20 10zM207 138.5q27 36.5 57.5 96t55.5 124.5q-21 13 -45 21t-42 8q-22 0 -43 -29t-34 -75.5t-13 -95.5q0 -37 6.5 -61.5t16.5 -24.5q14 0 41 36.5zM354.5 646q28.5 17 45.5 51l17 -3l22 -34q-20 -53 -60.5 -88.5t-97.5 -35.5q-58 0 -89 35.5t-39 88.5
l30 34l17 3q10 -34 34 -51t58 -17t62.5 17z" />
    <glyph glyph-name="Aogonek" unicode="&#x104;" horiz-adv-x="603" 
d="M539.5 79q14.5 -15 46.5 -19l4 -6l-14 -57q-13 1 -47.5 2t-70.5 1q-51 0 -100 -3.5l-63 -4.5l-4 8l11 57q49 4 65 12.5t16 30.5q0 7 -1 14.5t-2 14.5l-10 80l-87 1q-16 0 -94 -6l-33 -80q-10 -24 -10 -37q0 -14 9.5 -20.5t29.5 -6.5h43l3 -6l-13 -60q-13 1 -57 3.5
t-83 2.5q-40 0 -73 -1t-44 -2l15 64q24 4 40.5 19t31.5 49l232 507l151 17l10 -6q8 -56 33 -231.5t45 -285.5q6 -36 20.5 -51zM291 285q30 0 72 4l-28 225h-14l-98 -229h68zM502.5 -215.5q-25.5 -17.5 -50.5 -25.5q-51 0 -80.5 22.5t-29.5 63.5q0 38 32 78t113 119h64
q-64 -65 -90 -102t-26 -66q0 -17 10.5 -27.5t28.5 -10.5t37.5 7.5t31.5 15.5l18 -32q-33 -25 -58.5 -42.5z" />
    <glyph glyph-name="aogonek" unicode="&#x105;" horiz-adv-x="491" 
d="M372.5 -156q20.5 8 30.5 15l18 -32q-69 -55 -108 -68q-51 0 -80.5 22.5t-29.5 62.5q0 31 21 64t70 82q-25 6 -25 34q0 14 12.5 73t22.5 98l-8 1q-45 -81 -83.5 -130.5t-78.5 -77.5q-53 0 -82.5 38t-29.5 106q0 80 35.5 157.5t91.5 126.5t113 49l87 -17l8 22l11 6l77 -13
l8 -17l-8 -33q-45 -175 -64 -307l3 -4q6 0 22 12.5t45 38.5l17 -2l18 -38q-102 -93 -146 -147t-44 -91q0 -19 10.5 -29t28.5 -10q17 0 37.5 8zM206.5 138q26.5 36 57.5 95.5t56 125.5q-22 13 -46 21t-41 8q-23 0 -44 -29t-33.5 -75.5t-12.5 -95.5q0 -36 6 -61t17 -25
q14 0 40.5 36z" />
    <glyph glyph-name="Cacute" unicode="&#x106;" horiz-adv-x="593" 
d="M103 59.5q-70 71.5 -70 196.5q0 119 45.5 209t129.5 139t195 49q36 0 79.5 -5.5t75 -11t40.5 -7.5l4 -13q-2 -7 -10 -32t-19 -66.5t-20 -87.5l-93 -6q1 8 5 31t4 35q0 71 -101 71q-86 0 -135 -74t-49 -211q0 -96 35 -147.5t100 -51.5q54 0 86.5 32.5t54.5 107.5l94 7
q-5 -17 -19.5 -75t-22.5 -109l-10 -12q0 -1 -31 -11.5t-77.5 -19.5t-99.5 -9q-121 0 -191 71.5zM411.5 732q-68.5 -19 -139.5 -42l-13 9l-13 45q67 30 134.5 62.5t87.5 42.5l12 -6l25 -75l-5 -12q-20 -5 -88.5 -24z" />
    <glyph glyph-name="cacute" unicode="&#x107;" horiz-adv-x="366" 
d="M191.5 359.5q-22.5 -26.5 -36 -71t-13.5 -95.5t15.5 -80.5t43.5 -29.5q26 0 51.5 22.5t42.5 59.5l17 -2l32 -40q-26 -57 -78.5 -96t-104.5 -39q-63 0 -99.5 46t-36.5 125q0 81 35 153.5t92.5 116.5t122.5 44q28 0 53.5 -6t42.5 -17l5 -14l-42 -95l-27 -2q-28 47 -67 47
q-26 0 -48.5 -26.5zM304 604q-57 -38 -115 -81l-15 4l-29 38q51 49 102 101.5t65 68.5l13 -1l53 -68l-1 -14q-16 -10 -73 -48z" />
    <glyph glyph-name="Ccircumflex" unicode="&#x108;" horiz-adv-x="593" 
d="M103 59.5q-70 71.5 -70 196.5q0 119 45.5 209t129.5 139t195 49q36 0 79.5 -5.5t75 -11t40.5 -7.5l4 -13q-2 -7 -10 -32t-19 -66.5t-20 -87.5l-93 -6q1 8 5 31t4 35q0 71 -101 71q-86 0 -135 -74t-49 -211q0 -96 35 -147.5t100 -51.5q54 0 86.5 32.5t54.5 107.5l94 7
q-5 -17 -19.5 -75t-22.5 -109l-10 -12q0 -1 -31 -11.5t-77.5 -19.5t-99.5 -9q-121 0 -191 71.5zM307.5 820q60.5 58 80.5 78h20q16 -20 62.5 -78t65.5 -77l-33 -40l-16 -3l-29 24q-50 43 -74 60q-16 -9 -77 -53l-45 -31l-16 3l-23 40q24 19 84.5 77z" />
    <glyph glyph-name="ccircumflex" unicode="&#x109;" horiz-adv-x="366" 
d="M191.5 359.5q-22.5 -26.5 -36 -71t-13.5 -95.5t15.5 -80.5t43.5 -29.5q26 0 51.5 22.5t42.5 59.5l17 -2l32 -40q-26 -57 -78.5 -96t-104.5 -39q-63 0 -99.5 46t-36.5 125q0 81 35 153.5t92.5 116.5t122.5 44q28 0 53.5 -6t42.5 -17l5 -14l-42 -95l-27 -2q-28 47 -67 47
q-26 0 -48.5 -26.5zM195.5 640q60.5 58 80.5 78h20q16 -20 62.5 -78t65.5 -77l-33 -40l-16 -3l-29 24q-50 43 -74 60q-16 -9 -77 -53l-45 -31l-16 3l-23 40q24 19 84.5 77z" />
    <glyph glyph-name="Cdotaccent" unicode="&#x10a;" horiz-adv-x="593" 
d="M103 59.5q-70 71.5 -70 196.5q0 119 45.5 209t129.5 139t195 49q36 0 79.5 -5.5t75 -11t40.5 -7.5l4 -13q-2 -7 -10 -32t-19 -66.5t-20 -87.5l-93 -6q1 8 5 31t4 35q0 71 -101 71q-86 0 -135 -74t-49 -211q0 -96 35 -147.5t100 -51.5q54 0 86.5 32.5t54.5 107.5l94 7
q-5 -17 -19.5 -75t-22.5 -109l-10 -12q0 -1 -31 -11.5t-77.5 -19.5t-99.5 -9q-121 0 -191 71.5zM318.5 719.5q-15.5 16.5 -15.5 44.5q0 39 24.5 64t63.5 25q28 0 44 -17t16 -44q0 -39 -24.5 -64t-62.5 -25q-30 0 -45.5 16.5z" />
    <glyph glyph-name="cdotaccent" unicode="&#x10b;" horiz-adv-x="366" 
d="M191.5 359.5q-22.5 -26.5 -36 -71t-13.5 -95.5t15.5 -80.5t43.5 -29.5q26 0 51.5 22.5t42.5 59.5l17 -2l32 -40q-26 -57 -78.5 -96t-104.5 -39q-63 0 -99.5 46t-36.5 125q0 81 35 153.5t92.5 116.5t122.5 44q28 0 53.5 -6t42.5 -17l5 -14l-42 -95l-27 -2q-28 47 -67 47
q-26 0 -48.5 -26.5zM211.5 572.5q-15.5 16.5 -15.5 44.5q0 38 25 63.5t62 25.5q29 0 45 -17t16 -44q0 -38 -25 -63.5t-63 -25.5q-29 0 -44.5 16.5z" />
    <glyph glyph-name="Ccaron" unicode="&#x10c;" horiz-adv-x="593" 
d="M103 59.5q-70 71.5 -70 196.5q0 119 45.5 209t129.5 139t195 49q36 0 79.5 -5.5t75 -11t40.5 -7.5l4 -13q-2 -7 -10 -32t-19 -66.5t-20 -87.5l-93 -6q1 8 5 31t4 35q0 71 -101 71q-86 0 -135 -74t-49 -211q0 -96 35 -147.5t100 -51.5q54 0 86.5 32.5t54.5 107.5l94 7
q-5 -17 -19.5 -75t-22.5 -109l-10 -12q0 -1 -31 -11.5t-77.5 -19.5t-99.5 -9q-121 0 -191 71.5zM451 757.5q-61 -45.5 -81 -60.5h-19q-16 15 -65.5 60.5t-70.5 62.5l28 40l16 4q2 -1 54 -28l61 -31q12 5 75 34l54 25l15 -4l20 -40q-26 -17 -87 -62.5z" />
    <glyph glyph-name="ccaron" unicode="&#x10d;" horiz-adv-x="366" 
d="M191.5 359.5q-22.5 -26.5 -36 -71t-13.5 -95.5t15.5 -80.5t43.5 -29.5q26 0 51.5 22.5t42.5 59.5l17 -2l32 -40q-26 -57 -78.5 -96t-104.5 -39q-63 0 -99.5 46t-36.5 125q0 81 35 153.5t92.5 116.5t122.5 44q28 0 53.5 -6t42.5 -17l5 -14l-42 -95l-27 -2q-28 47 -67 47
q-26 0 -48.5 -26.5zM158 724q42 -39 105 -87q77 50 126 87l14 -4l25 -41q-50 -44 -102.5 -93.5t-67.5 -64.5h-19q-12 15 -52 64.5t-79 93.5l34 41z" />
    <glyph glyph-name="Dcaron" unicode="&#x10e;" horiz-adv-x="668" 
d="M217.5 -5q-49.5 5 -83.5 5q-32 0 -72.5 -4t-53.5 -6l15 65q42 8 58.5 25t22.5 60l47 384q2 20 2 25q0 16 -5.5 22.5t-19.5 6.5q-11 0 -20.5 -1t-12.5 -1l-4 9l14 59q14 0 50.5 -1.5t71.5 -1.5q28 0 78 2t66 3q88 0 152.5 -31t99.5 -89t35 -138q0 -113 -49 -204
t-134.5 -143.5t-191.5 -52.5q-16 2 -65.5 7zM297 560q-6 -5 -9 -20q-63 -387 -63 -416q0 -31 16.5 -42.5t58.5 -11.5q64 0 110.5 37t72 106t25.5 162q0 190 -190 190q-15 0 -21 -5zM461 757.5q-61 -45.5 -81 -60.5h-19q-16 15 -65.5 60.5t-70.5 62.5l28 40l16 4q2 -1 54 -28
l61 -31q12 5 75 34l54 25l15 -4l20 -40q-26 -17 -87 -62.5z" />
    <glyph glyph-name="dcaron" unicode="&#x10f;" horiz-adv-x="593" 
d="M403.5 113q13.5 11 47.5 40l17 -2l16 -35q-71 -74 -107.5 -101t-64.5 -27q-43 0 -43 38q0 17 35 169l-8 1q-44 -80 -82.5 -129.5t-79.5 -78.5q-53 0 -82.5 38.5t-29.5 106.5q0 79 35.5 156.5t91.5 126.5t113 49l70 -15l24 177q1 4 1 11q0 17 -9 25t-29 8h-35l8 57
q47 0 109.5 3.5t81.5 5.5l12 -16q-6 -31 -26 -130.5t-47 -246t-41 -238.5l3 -4q6 0 19.5 11zM233 179q46 77 86 180q-17 11 -42 20t-46 9t-41.5 -29t-33.5 -75.5t-13 -94.5q0 -38 6 -62.5t16 -24.5q22 0 68 77zM622.5 637.5q-17.5 -65.5 -40.5 -131.5l-49 -19l-14 4
q11 71 16 141.5t5 85.5l100 14l5 -10q-5 -19 -22.5 -84.5z" />
    <glyph glyph-name="Dcroat" unicode="&#x110;" horiz-adv-x="682" 
d="M538.5 615q64.5 -31 99.5 -89t35 -138q0 -113 -49 -204t-134.5 -143.5t-191.5 -52.5q-16 2 -65.5 7t-83.5 5q-32 0 -72.5 -4t-53.5 -6l15 65q42 8 58.5 25t22.5 60l18 147h-114l-7 7l17 58h112l21 172q2 20 2 25q0 16 -5.5 22.5t-19.5 6.5q-11 0 -20.5 -1t-12.5 -1l-4 9
l14 59q14 0 50.5 -1.5t71.5 -1.5q28 0 78 2t66 3q88 0 152.5 -31zM425.5 107q46.5 37 72 106t25.5 162q0 190 -190 190q-15 0 -21 -5t-9 -20l-21 -131l-9 -57l119 2l6 -9l-14 -58h-121q-23 -149 -23 -163q0 -31 16.5 -42.5t58.5 -11.5q64 0 110.5 37z" />
    <glyph glyph-name="dcroat" unicode="&#x111;" horiz-adv-x="493" 
d="M457 530q-55 -284 -76 -424l3 -4q6 0 19.5 11t47.5 40l17 -2l16 -35q-71 -74 -107.5 -101t-64.5 -27q-43 0 -43 38q0 17 35 169l-8 1q-44 -80 -82.5 -129.5t-79.5 -78.5q-53 0 -82.5 38.5t-29.5 106.5q0 79 35.5 156.5t91.5 126.5t113 49l70 -15l11 80l-105 -1l-10 9
l8 48l114 -1l6 42q1 4 1 11q0 17 -9 25t-29 8h-35l8 57q47 0 109.5 3.5t81.5 5.5l12 -16l-27 -134l72 3l14 -14l-5 -45zM233 179q46 77 86 180q-17 11 -42 20t-46 9t-41.5 -29t-33.5 -75.5t-13 -94.5q0 -38 6 -62.5t16 -24.5q22 0 68 77z" />
    <glyph glyph-name="Emacron" unicode="&#x112;" horiz-adv-x="576" 
d="M234.5 81q11.5 -7 45.5 -7q64 0 93 8t44 31t29 77l81 6l6 -9q-5 -15 -21 -70t-29 -114l-10 -10q-30 1 -127.5 4t-171.5 3q-53 0 -103 -4t-64 -6l15 65q41 6 58 24t22 62l48 384l2 25q0 17 -6 23t-21 6q-9 0 -17.5 -1t-11.5 -1l-5 8l14 59q17 -1 67.5 -2t108.5 -1
q205 0 295 12l6 -10q-2 -7 -9 -31t-17.5 -66t-17.5 -83l-88 -6q2 6 5.5 25t3.5 33q0 21 -9.5 30.5t-33.5 13t-74 3.5q-24 0 -34.5 -2t-14.5 -9t-7 -23l-26 -160l90 -1q20 0 60 4t53 5l6 -9l-23 -83q-13 1 -49.5 2t-76.5 1q-23 0 -74 -6q-11 -70 -11 -69q-2 -18 -7 -51.5
t-5 -48.5q0 -24 11.5 -31zM491 710l-136 -1l-134 -1l-9 11l23 74l148 -1q30 0 70.5 2.5t52.5 3.5l7 -13z" />
    <glyph glyph-name="emacron" unicode="&#x113;" horiz-adv-x="391" 
d="M357.5 301.5q-24.5 -33.5 -77 -61.5t-141.5 -57q0 -46 17 -73t47 -27q28 0 54.5 20.5t46.5 58.5l18 -2l31 -39q-27 -57 -81 -95t-109 -38q-64 0 -101 47t-37 127q0 79 35.5 151t94 116t122.5 44q49 0 77 -25t28 -69t-24.5 -77.5zM181 346.5q-28 -40.5 -38 -103.5
q69 23 101 49t32 59q0 17 -8.5 26.5t-24.5 9.5q-34 0 -62 -40.5zM402 572l-136 -1l-134 -1l-9 11l23 74l148 -1q31 0 71.5 2.5t52.5 3.5l6 -14z" />
    <glyph glyph-name="Ebreve" unicode="&#x114;" horiz-adv-x="576" 
d="M234.5 81q11.5 -7 45.5 -7q64 0 93 8t44 31t29 77l81 6l6 -9q-5 -15 -21 -70t-29 -114l-10 -10q-30 1 -127.5 4t-171.5 3q-53 0 -103 -4t-64 -6l15 65q41 6 58 24t22 62l48 384l2 25q0 17 -6 23t-21 6q-9 0 -17.5 -1t-11.5 -1l-5 8l14 59q17 -1 67.5 -2t108.5 -1
q205 0 295 12l6 -10q-2 -7 -9 -31t-17.5 -66t-17.5 -83l-88 -6q2 6 5.5 25t3.5 33q0 21 -9.5 30.5t-33.5 13t-74 3.5q-24 0 -34.5 -2t-14.5 -9t-7 -23l-26 -160l90 -1q20 0 60 4t53 5l6 -9l-23 -83q-13 1 -49.5 2t-76.5 1q-23 0 -74 -6q-11 -70 -11 -69q-2 -18 -7 -51.5
t-5 -48.5q0 -24 11.5 -31zM424.5 813q28.5 17 45.5 51l17 -3l22 -34q-20 -53 -60.5 -88.5t-97.5 -35.5q-58 0 -89 35.5t-39 88.5l30 34l17 3q10 -34 34 -51t58 -17t62.5 17z" />
    <glyph glyph-name="ebreve" unicode="&#x115;" horiz-adv-x="391" 
d="M357.5 301.5q-24.5 -33.5 -77 -61.5t-141.5 -57q0 -46 17 -73t47 -27q28 0 54.5 20.5t46.5 58.5l18 -2l31 -39q-27 -57 -81 -95t-109 -38q-64 0 -101 47t-37 127q0 79 35.5 151t94 116t122.5 44q49 0 77 -25t28 -69t-24.5 -77.5zM181 346.5q-28 -40.5 -38 -103.5
q69 23 101 49t32 59q0 17 -8.5 26.5t-24.5 9.5q-34 0 -62 -40.5zM330.5 633q28.5 17 45.5 51l17 -3l22 -34q-20 -53 -60.5 -88.5t-97.5 -35.5q-58 0 -89 35.5t-39 88.5l30 34l17 3q10 -34 34 -51t58 -17t62.5 17z" />
    <glyph glyph-name="Edotaccent" unicode="&#x116;" horiz-adv-x="576" 
d="M234.5 81q11.5 -7 45.5 -7q64 0 93 8t44 31t29 77l81 6l6 -9q-5 -15 -21 -70t-29 -114l-10 -10q-30 1 -127.5 4t-171.5 3q-53 0 -103 -4t-64 -6l15 65q41 6 58 24t22 62l48 384l2 25q0 17 -6 23t-21 6q-9 0 -17.5 -1t-11.5 -1l-5 8l14 59q17 -1 67.5 -2t108.5 -1
q205 0 295 12l6 -10q-2 -7 -9 -31t-17.5 -66t-17.5 -83l-88 -6q2 6 5.5 25t3.5 33q0 21 -9.5 30.5t-33.5 13t-74 3.5q-24 0 -34.5 -2t-14.5 -9t-7 -23l-26 -160l90 -1q20 0 60 4t53 5l6 -9l-23 -83q-13 1 -49.5 2t-76.5 1q-23 0 -74 -6q-11 -70 -11 -69q-2 -18 -7 -51.5
t-5 -48.5q0 -24 11.5 -31zM306.5 719.5q-15.5 16.5 -15.5 44.5q0 39 24.5 64t63.5 25q28 0 44 -17t16 -44q0 -39 -24.5 -64t-62.5 -25q-30 0 -45.5 16.5z" />
    <glyph glyph-name="edotaccent" unicode="&#x117;" horiz-adv-x="391" 
d="M357.5 301.5q-24.5 -33.5 -77 -61.5t-141.5 -57q0 -46 17 -73t47 -27q28 0 54.5 20.5t46.5 58.5l18 -2l31 -39q-27 -57 -81 -95t-109 -38q-64 0 -101 47t-37 127q0 79 35.5 151t94 116t122.5 44q49 0 77 -25t28 -69t-24.5 -77.5zM181 346.5q-28 -40.5 -38 -103.5
q69 23 101 49t32 59q0 17 -8.5 26.5t-24.5 9.5q-34 0 -62 -40.5zM217.5 572.5q-15.5 16.5 -15.5 44.5q0 38 25 63.5t62 25.5q29 0 45 -17t16 -44q0 -38 -25 -63.5t-63 -25.5q-29 0 -44.5 16.5z" />
    <glyph glyph-name="Eogonek" unicode="&#x118;" horiz-adv-x="576" 
d="M234.5 81q11.5 -7 45.5 -7q64 0 93 8t44 31t29 77l81 6l6 -9q-5 -15 -21 -70t-29 -114l-10 -10q-30 1 -127.5 4t-171.5 3q-53 0 -103 -4t-64 -6l15 65q41 6 58 24t22 62l48 384l2 25q0 17 -6 23t-21 6q-9 0 -17.5 -1t-11.5 -1l-5 8l14 59q17 -1 67.5 -2t108.5 -1
q205 0 295 12l6 -10q-2 -7 -9 -31t-17.5 -66t-17.5 -83l-88 -6q2 6 5.5 25t3.5 33q0 21 -9.5 30.5t-33.5 13t-74 3.5q-24 0 -34.5 -2t-14.5 -9t-7 -23l-26 -160l90 -1q20 0 60 4t53 5l6 -9l-23 -83q-13 1 -49.5 2t-76.5 1q-23 0 -74 -6q-11 -70 -11 -69q-2 -18 -7 -51.5
t-5 -48.5q0 -24 11.5 -31zM416.5 -216.5q-25.5 -17.5 -50.5 -25.5q-51 0 -80.5 22.5t-29.5 63.5q0 38 32 78t113 119h64q-64 -65 -90 -102t-26 -66q0 -17 10.5 -27.5t28.5 -10.5t37.5 7.5t31.5 15.5l18 -32q-33 -25 -58.5 -42.5z" />
    <glyph glyph-name="eogonek" unicode="&#x119;" horiz-adv-x="391" 
d="M353 121q-23 -32 -87 -111q-43 -50 -61.5 -79t-18.5 -57q0 -17 10.5 -27.5t27.5 -10.5q18 0 38.5 8t30.5 15l18 -32q-69 -55 -108 -68q-51 0 -80.5 22.5t-29.5 63.5q0 31 21.5 64.5t69.5 81.5q-9 -3 -21 -3q-64 0 -101 47t-37 127q0 79 35.5 151t94 116t122.5 44
q49 0 77 -25t28 -69t-24 -77t-76.5 -61.5t-142.5 -57.5q0 -46 17 -73t47 -27q28 0 54.5 20.5t46.5 58.5l18 -2zM181 346.5q-28 -40.5 -38 -103.5q69 22 101 48.5t32 59.5q0 17 -8.5 26.5t-24.5 9.5q-34 0 -62 -40.5z" />
    <glyph glyph-name="Ecaron" unicode="&#x11a;" horiz-adv-x="576" 
d="M234.5 81q11.5 -7 45.5 -7q64 0 93 8t44 31t29 77l81 6l6 -9q-5 -15 -21 -70t-29 -114l-10 -10q-30 1 -127.5 4t-171.5 3q-53 0 -103 -4t-64 -6l15 65q41 6 58 24t22 62l48 384l2 25q0 17 -6 23t-21 6q-9 0 -17.5 -1t-11.5 -1l-5 8l14 59q17 -1 67.5 -2t108.5 -1
q205 0 295 12l6 -10q-2 -7 -9 -31t-17.5 -66t-17.5 -83l-88 -6q2 6 5.5 25t3.5 33q0 21 -9.5 30.5t-33.5 13t-74 3.5q-24 0 -34.5 -2t-14.5 -9t-7 -23l-26 -160l90 -1q20 0 60 4t53 5l6 -9l-23 -83q-13 1 -49.5 2t-76.5 1q-23 0 -74 -6q-11 -70 -11 -69q-2 -18 -7 -51.5
t-5 -48.5q0 -24 11.5 -31zM439 757.5q-61 -45.5 -81 -60.5h-19q-16 15 -65.5 60.5t-70.5 62.5l28 40l16 4q2 -1 54 -28l61 -31q12 5 75 34l54 25l15 -4l20 -40q-26 -17 -87 -62.5z" />
    <glyph glyph-name="ecaron" unicode="&#x11b;" horiz-adv-x="391" 
d="M357.5 301.5q-24.5 -33.5 -77 -61.5t-141.5 -57q0 -46 17 -73t47 -27q28 0 54.5 20.5t46.5 58.5l18 -2l31 -39q-27 -57 -81 -95t-109 -38q-64 0 -101 47t-37 127q0 79 35.5 151t94 116t122.5 44q49 0 77 -25t28 -69t-24.5 -77.5zM181 346.5q-28 -40.5 -38 -103.5
q69 23 101 49t32 59q0 17 -8.5 26.5t-24.5 9.5q-34 0 -62 -40.5zM164 724q42 -39 105 -87q77 50 126 87l14 -4l25 -41q-50 -44 -102.5 -93.5t-67.5 -64.5h-19q-12 15 -52 64.5t-79 93.5l34 41z" />
    <glyph glyph-name="Gcircumflex" unicode="&#x11c;" horiz-adv-x="630" 
d="M547 325.5q29 1.5 38 3.5l2 -37q-18 -12 -28.5 -31.5t-15.5 -51.5q-5 -31 -10.5 -76t-5.5 -59l1 -33l-10 -12q0 -1 -31.5 -12t-81 -20t-111.5 -9q-121 0 -191 71.5t-70 196.5q0 119 45.5 209t129.5 139t195 49q36 0 79.5 -5.5t75 -11t40.5 -7.5l4 -13q-2 -6 -10 -29.5
t-19 -63.5t-20 -87l-93 -6q1 7 5 28t4 33q0 70 -101 70q-86 0 -135 -74t-49 -211q0 -96 35 -147.5t100 -51.5q26 0 48 6t35 12.5t16 8.5l12 97q1 7 1 18q0 18 -8 24t-30 6h-51l-3 8l18 69q1 0 44 -1t90 -1q27 0 56 1.5zM332.5 820q60.5 58 80.5 78h20q16 -20 62.5 -78
t65.5 -77l-33 -40l-16 -3l-29 24q-50 43 -74 60q-16 -9 -77 -53l-45 -31l-16 3l-23 40q24 19 84.5 77z" />
    <glyph glyph-name="gcircumflex" unicode="&#x11d;" horiz-adv-x="470" 
d="M6.5 -222.5q-41.5 18.5 -64 49.5t-19.5 67l3 9q45 31 173 101l1 8q-29 15 -45.5 50.5t-16.5 84.5q0 75 35 149.5t90 122t110 47.5l88 -18l8 23l12 5l77 -13l11 -17q-25 -50 -41 -100t-21 -89q-2 -16 -4.5 -53.5t-3.5 -56.5q-6 -105 -10 -131q-6 -55 -54 -115.5
t-114.5 -101t-122.5 -40.5q-50 0 -91.5 18.5zM246 181q40 69 85 179q-56 28 -89 28q-21 0 -40.5 -27t-31.5 -70.5t-12 -88.5q0 -37 8.5 -63.5t19.5 -26.5q20 0 60 69zM240 -114q39 39 47 108l23 192l-9 3q-53 -91 -81.5 -128.5t-59.5 -59.5l-31 -21q-50 -34 -70 -49t-20 -22
q0 -15 15 -29.5t39 -23.5t49 -9q59 0 98 39zM212.5 663q60.5 58 80.5 78h20q16 -20 62.5 -78t65.5 -77l-33 -40l-16 -3l-29 24q-50 43 -74 60q-16 -9 -77 -53l-45 -31l-16 3l-23 40q24 19 84.5 77z" />
    <glyph glyph-name="Gbreve" unicode="&#x11e;" horiz-adv-x="630" 
d="M547 325.5q29 1.5 38 3.5l2 -37q-18 -12 -28.5 -31.5t-15.5 -51.5q-5 -31 -10.5 -76t-5.5 -59l1 -33l-10 -12q0 -1 -31.5 -12t-81 -20t-111.5 -9q-121 0 -191 71.5t-70 196.5q0 119 45.5 209t129.5 139t195 49q36 0 79.5 -5.5t75 -11t40.5 -7.5l4 -13q-2 -6 -10 -29.5
t-19 -63.5t-20 -87l-93 -6q1 7 5 28t4 33q0 70 -101 70q-86 0 -135 -74t-49 -211q0 -96 35 -147.5t100 -51.5q26 0 48 6t35 12.5t16 8.5l12 97q1 7 1 18q0 18 -8 24t-30 6h-51l-3 8l18 69q1 0 44 -1t90 -1q27 0 56 1.5zM460.5 806q28.5 15 45.5 44l16 -3l23 -33
q-20 -49 -60 -82t-98 -33q-57 0 -89 33t-40 82l31 33l17 3q10 -29 34.5 -44t57.5 -15q34 0 62.5 15z" />
    <glyph glyph-name="gbreve" unicode="&#x11f;" horiz-adv-x="470" 
d="M6.5 -222.5q-41.5 18.5 -64 49.5t-19.5 67l3 9q45 31 173 101l1 8q-29 15 -45.5 50.5t-16.5 84.5q0 75 35 149.5t90 122t110 47.5l88 -18l8 23l12 5l77 -13l11 -17q-25 -50 -41 -100t-21 -89q-2 -16 -4.5 -53.5t-3.5 -56.5q-6 -105 -10 -131q-6 -55 -54 -115.5
t-114.5 -101t-122.5 -40.5q-50 0 -91.5 18.5zM246 181q40 69 85 179q-56 28 -89 28q-21 0 -40.5 -27t-31.5 -70.5t-12 -88.5q0 -37 8.5 -63.5t19.5 -26.5q20 0 60 69zM240 -114q39 39 47 108l23 192l-9 3q-53 -91 -81.5 -128.5t-59.5 -59.5l-31 -21q-50 -34 -70 -49t-20 -22
q0 -15 15 -29.5t39 -23.5t49 -9q59 0 98 39zM341.5 656q28.5 17 45.5 51l17 -3l22 -34q-20 -53 -60.5 -88.5t-97.5 -35.5q-58 0 -89 35.5t-39 88.5l30 34l17 3q10 -34 34 -51t58 -17t62.5 17z" />
    <glyph glyph-name="Gdotaccent" unicode="&#x120;" horiz-adv-x="630" 
d="M547 325.5q29 1.5 38 3.5l2 -37q-18 -12 -28.5 -31.5t-15.5 -51.5q-5 -31 -10.5 -76t-5.5 -59l1 -33l-10 -12q0 -1 -31.5 -12t-81 -20t-111.5 -9q-121 0 -191 71.5t-70 196.5q0 119 45.5 209t129.5 139t195 49q36 0 79.5 -5.5t75 -11t40.5 -7.5l4 -13q-2 -6 -10 -29.5
t-19 -63.5t-20 -87l-93 -6q1 7 5 28t4 33q0 70 -101 70q-86 0 -135 -74t-49 -211q0 -96 35 -147.5t100 -51.5q26 0 48 6t35 12.5t16 8.5l12 97q1 7 1 18q0 18 -8 24t-30 6h-51l-3 8l18 69q1 0 44 -1t90 -1q27 0 56 1.5zM343.5 719.5q-15.5 16.5 -15.5 44.5q0 39 24.5 64
t63.5 25q28 0 44 -17t16 -44q0 -39 -24.5 -64t-62.5 -25q-30 0 -45.5 16.5z" />
    <glyph glyph-name="gdotaccent" unicode="&#x121;" horiz-adv-x="470" 
d="M6.5 -222.5q-41.5 18.5 -64 49.5t-19.5 67l3 9q45 31 173 101l1 8q-29 15 -45.5 50.5t-16.5 84.5q0 75 35 149.5t90 122t110 47.5l88 -18l8 23l12 5l77 -13l11 -17q-25 -50 -41 -100t-21 -89q-2 -16 -4.5 -53.5t-3.5 -56.5q-6 -105 -10 -131q-6 -55 -54 -115.5
t-114.5 -101t-122.5 -40.5q-50 0 -91.5 18.5zM246 181q40 69 85 179q-56 28 -89 28q-21 0 -40.5 -27t-31.5 -70.5t-12 -88.5q0 -37 8.5 -63.5t19.5 -26.5q20 0 60 69zM240 -114q39 39 47 108l23 192l-9 3q-53 -91 -81.5 -128.5t-59.5 -59.5l-31 -21q-50 -34 -70 -49t-20 -22
q0 -15 15 -29.5t39 -23.5t49 -9q59 0 98 39zM228.5 595.5q-15.5 16.5 -15.5 44.5q0 38 25 63.5t62 25.5q29 0 45 -17t16 -44q0 -38 -25 -63.5t-63 -25.5q-29 0 -44.5 16.5z" />
    <glyph glyph-name="Gcommaaccent" unicode="&#x122;" horiz-adv-x="630" 
d="M547 325.5q29 1.5 38 3.5l2 -37q-18 -12 -28.5 -31.5t-15.5 -51.5q-5 -31 -10.5 -76t-5.5 -59l1 -33l-10 -12q0 -1 -31.5 -12t-81 -20t-111.5 -9q-121 0 -191 71.5t-70 196.5q0 119 45.5 209t129.5 139t195 49q36 0 79.5 -5.5t75 -11t40.5 -7.5l4 -13q-2 -6 -10 -29.5
t-19 -63.5t-20 -87l-93 -6q1 7 5 28t4 33q0 70 -101 70q-86 0 -135 -74t-49 -211q0 -96 35 -147.5t100 -51.5q26 0 48 6t35 12.5t16 8.5l12 97q1 7 1 18q0 18 -8 24t-30 6h-51l-3 8l18 69q1 0 44 -1t90 -1q27 0 56 1.5zM259.5 -61.5q20.5 9.5 38.5 9.5q30 0 49 -23.5
t19 -61.5q0 -50 -41.5 -97.5t-104.5 -81.5l-36 29v16q30 21 49.5 49t19.5 53q0 19 -10 37.5t-25 31.5l2 14q19 15 39.5 24.5z" />
    <glyph glyph-name="gcommaaccent" unicode="&#x123;" horiz-adv-x="470" 
d="M6.5 -222.5q-41.5 18.5 -64 49.5t-19.5 67l3 9q45 31 173 101l1 8q-29 15 -45.5 50.5t-16.5 84.5q0 75 35 149.5t90 122t110 47.5l88 -18l8 23l12 5l77 -13l11 -17q-25 -50 -41 -100t-21 -89q-2 -16 -4.5 -53.5t-3.5 -56.5q-6 -105 -10 -131q-6 -55 -54 -115.5
t-114.5 -101t-122.5 -40.5q-50 0 -91.5 18.5zM246 181q40 69 85 179q-56 28 -89 28q-21 0 -40.5 -27t-31.5 -70.5t-12 -88.5q0 -37 8.5 -63.5t19.5 -26.5q20 0 60 69zM240 -114q39 39 47 108l23 192l-9 3q-53 -91 -81.5 -128.5t-59.5 -59.5l-31 -21q-50 -34 -70 -49t-20 -22
q0 -15 15 -29.5t39 -23.5t49 -9q59 0 98 39zM307 517q-29 0 -48.5 24t-19.5 61q0 47 34.5 95t98.5 89l37 -26l2 -17q-28 -22 -44.5 -49.5t-16.5 -52.5q0 -20 10.5 -39t28.5 -31l-1 -15q-44 -39 -81 -39z" />
    <glyph glyph-name="Hcircumflex" unicode="&#x124;" horiz-adv-x="720" 
d="M734 649l-12 -64q-37 -5 -50 -15.5t-18 -39.5q-25 -147 -43.5 -273.5t-18.5 -150.5t7.5 -33.5t26.5 -9.5q21 0 36 3q1 -2 2 -3.5t1 -3.5l-15 -62q-81 3 -119 3h-40l-68 -1q-19 -1 -47 -1l16 63q40 1 56.5 20t23.5 74l16 130l-105 1q-20 0 -57 -3t-81 -7l-15 -111l-3 -25
q-4 -28 -4 -39q0 -8 1 -11q1 -16 7.5 -22t22.5 -6q12 0 36 3l4 -6l-17 -62q-69 3 -115 3q-34 0 -81 -3t-73 -6l14 62q32 7 47.5 16.5t23 29t11.5 57.5l46 371q2 18 2 23q0 17 -6.5 23t-23.5 6l-29 -1l-5 8l15 57l115 -2q40 0 144 8l-13 -64q-26 -5 -38 -11.5t-18 -20
t-11 -42.5l-23 -145q84 -2 124 -2q47 0 116 6l20 157q2 16 2 22q0 17 -7 23.5t-24 6.5l-30 -1l-4 8l15 57l133 -2q48 0 130 8zM353 813.5q61 45.5 81 60.5h19q1 2 26 -21.5t33 -31.5q31 -29 78 -70l-29 -40l-16 -4l-38 20q-72 37 -77 39q-12 -5 -75 -34l-54 -25l-15 4
l-19 40q25 17 86 62.5z" />
    <glyph glyph-name="hcircumflex" unicode="&#x125;" horiz-adv-x="505" 
d="M405 113q12 9 49 42l17 -3l16 -35q-66 -70 -104.5 -99t-66.5 -29q-47 0 -47 43q0 17 8.5 49t25.5 87q13 43 24 84.5t11 59.5q0 17 -7 26.5t-20 9.5q-25 0 -67 -68.5t-86 -178.5l-9 -73q-2 -12 -35.5 -24t-65.5 -12l-13 15q14 89 53 337.5t42 285.5q2 22 -6.5 31.5
t-30.5 9.5h-35l9 57q46 0 109 3.5t82 5.5l11 -16q-5 -20 -20.5 -93t-36 -178.5t-35.5 -202.5l6 -1q43 88 85 146t80 81q49 0 80 -28.5t31 -72.5q0 -23 -11 -62t-32 -100q-24 -69 -32 -103l3 -3q6 0 18 9zM117 877.5q61 45.5 81 60.5h19q1 2 26 -21.5t33 -31.5q31 -29 78 -70
l-29 -40l-16 -4l-38 20q-72 37 -77 39q-12 -5 -75 -34l-54 -25l-15 4l-19 40q25 17 86 62.5z" />
    <glyph glyph-name="Hbar" unicode="&#x126;" horiz-adv-x="720" 
d="M640 445q-48 -297 -48 -339q0 -24 7.5 -33.5t26.5 -9.5q21 0 36 3q1 -2 2 -3.5t1 -3.5l-15 -62q-81 3 -119 3h-40l-68 -1q-19 -1 -47 -1l16 63q40 1 56.5 20t23.5 74l16 130l-105 1q-20 0 -57 -3t-81 -7l-15 -111l-3 -25q-4 -28 -4 -39q0 -8 1 -11q1 -16 7.5 -22t22.5 -6
q12 0 36 3l4 -6l-17 -62q-69 3 -115 3q-34 0 -81 -3t-73 -6l14 62q32 7 47.5 16.5t23 29t11.5 57.5l36 287h-90l-10 9l7 48h100l3 27q2 18 2 23q0 17 -6.5 23t-23.5 6l-29 -1l-5 8l15 57l115 -2q40 0 144 8l-13 -64q-26 -5 -38 -11.5t-18 -20t-11 -42.5l-2 -12h138
q64 0 98 1l3 27q2 16 2 22q0 17 -7 23.5t-24 6.5l-30 -1l-4 8l15 57l133 -2q48 0 130 8l-12 -64q-37 -5 -50 -15.5t-18 -39.5l-5 -28l81 2l14 -14l-4 -45h-100zM509 444h-115h-123l-12 -78q84 -2 124 -2q47 0 116 6z" />
    <glyph glyph-name="hbar" unicode="&#x127;" horiz-adv-x="505" 
d="M487 117q-66 -70 -104.5 -99t-66.5 -29q-47 0 -47 43q0 17 8.5 49t25.5 87q13 43 24 84.5t11 59.5q0 17 -7 26.5t-20 9.5q-25 0 -67 -68.5t-86 -178.5l-9 -73q-2 -12 -35.5 -24t-65.5 -12l-13 15q9 54 32.5 203t46.5 306l-84 -1l-10 10l7 47l95 -1l8 59q2 22 -6.5 31.5
t-30.5 9.5h-35l9 57q46 0 109 3.5t82 5.5l11 -16q-3 -11 -11.5 -50t-20.5 -99l111 4l14 -14l-5 -45l-131 -1q-29 -138 -49 -269l6 -1q43 88 85 146t80 81q49 0 80 -28.5t31 -72.5q0 -23 -11 -62t-32 -100q-24 -69 -32 -103l3 -3q6 0 18 9t49 42l17 -3z" />
    <glyph glyph-name="Imacron" unicode="&#x12a;" horiz-adv-x="352" 
d="M243.5 270q-21.5 -139 -21.5 -167q0 -23 7.5 -32t24.5 -9q16 0 27.5 1t14.5 2l4 -6l-16 -62q-16 0 -59 1.5t-83 1.5q-34 0 -78 -3.5t-57 -5.5l14 62q44 9 60.5 26t20.5 59l48 389q2 18 2 23q0 16 -6.5 22.5t-23.5 6.5l-34 -1l-4 8l14 57q28 0 48 -1l86 -1q27 0 74.5 3.5
t62.5 4.5l-14 -64q-37 -5 -50.5 -16t-18.5 -39q-21 -121 -42.5 -260zM378 710l-136 -1l-134 -1l-9 11l23 74l148 -1q30 0 70.5 2.5t52.5 3.5l7 -13z" />
    <glyph glyph-name="imacron" unicode="&#x12b;" horiz-adv-x="285" 
d="M303.66 572l-128.512 -1l-126.623 -1l-8.50488 11l21.7334 74l139.853 -1q29.293 0 67.5635 2.5t49.6094 3.5l5.66992 -14zM182 110q11 8 50 43l17 -2l16 -35q-64 -69 -103.5 -98.5t-67.5 -29.5q-24 0 -35 12t-11 37q48 291 48 320q0 20 -9 29t-29 9h-35l9 58q62 0 190 8
l12 -15q-21 -71 -41 -167.5t-31 -172.5l3 -4q6 0 17 8z" />
    <glyph glyph-name="Ibreve" unicode="&#x12c;" horiz-adv-x="352" 
d="M243.5 270q-21.5 -139 -21.5 -167q0 -23 7.5 -32t24.5 -9q16 0 27.5 1t14.5 2l4 -6l-16 -62q-16 0 -59 1.5t-83 1.5q-34 0 -78 -3.5t-57 -5.5l14 62q44 9 60.5 26t20.5 59l48 389q2 18 2 23q0 16 -6.5 22.5t-23.5 6.5l-34 -1l-4 8l14 57q28 0 48 -1l86 -1q27 0 74.5 3.5
t62.5 4.5l-14 -64q-37 -5 -50.5 -16t-18.5 -39q-21 -121 -42.5 -260zM310.5 806q28.5 15 45.5 44l16 -3l23 -33q-20 -49 -60 -82t-98 -33q-57 0 -89 33t-40 82l31 33l17 3q10 -29 34.5 -44t57.5 -15q34 0 62.5 15z" />
    <glyph glyph-name="ibreve" unicode="&#x12d;" horiz-adv-x="292" 
d="M269.5 628q28.5 17 45.5 51l17 -3l22 -34q-20 -53 -60.5 -88.5t-97.5 -35.5q-58 0 -89 35.5t-39 88.5l30 34l17 3q10 -34 34 -51t58 -17t62.5 17zM201 110q11 8 50 43l17 -2l16 -35q-64 -69 -103.5 -98.5t-67.5 -29.5q-24 0 -35 12t-11 37q48 291 48 320q0 20 -9 29
t-29 9h-35l9 58q62 0 190 8l12 -15q-21 -71 -41 -167.5t-31 -172.5l3 -4q6 0 17 8z" />
    <glyph glyph-name="Iogonek" unicode="&#x12e;" horiz-adv-x="352" 
d="M243.5 270q-21.5 -139 -21.5 -167q0 -23 7.5 -32t24.5 -9q16 0 27.5 1t14.5 2l4 -6l-16 -62q-16 0 -59 1.5t-83 1.5q-34 0 -78 -3.5t-57 -5.5l14 62q44 9 60.5 26t20.5 59l48 389q2 18 2 23q0 16 -6.5 22.5t-23.5 6.5l-34 -1l-4 8l14 57q28 0 48 -1l86 -1q27 0 74.5 3.5
t62.5 4.5l-14 -64q-37 -5 -50.5 -16t-18.5 -39q-21 -121 -42.5 -260zM210.5 -219.5q-25.5 -17.5 -50.5 -25.5q-51 0 -80.5 22.5t-29.5 63.5q0 38 32 78t113 119h64q-64 -65 -90 -102t-26 -66q0 -17 10.5 -27.5t28.5 -10.5t37.5 7.5t31.5 15.5l18 -32q-33 -25 -58.5 -42.5z
" />
    <glyph glyph-name="iogonek" unicode="&#x12f;" horiz-adv-x="282" 
d="M137 588q-15 16 -15 43q0 39 24 64t63 25q27 0 42 -15.5t15 -42.5q0 -39 -24.5 -64.5t-61.5 -25.5q-28 0 -43 16zM167 -156q20 8 31 15l18 -32q-69 -55 -108 -68q-51 0 -80.5 22.5t-29.5 63.5q0 31 22 63.5t71 79.5q-38 4 -38 49q8 45 28 172.5t20 147.5t-9 29t-29 9h-35
l9 58q46 0 108.5 3.5t81.5 4.5l12 -15q-4 -13 -16.5 -63t-28.5 -125.5t-27 -151.5l3 -4q6 0 17 8t50 43l17 -2l16 -35q-103 -107 -141 -155t-38 -87q0 -17 10.5 -27.5t27.5 -10.5q18 0 38 8z" />
    <glyph glyph-name="Idotaccent" unicode="&#x130;" horiz-adv-x="352" 
d="M243.5 270q-21.5 -139 -21.5 -167q0 -23 7.5 -32t24.5 -9q16 0 27.5 1t14.5 2l4 -6l-16 -62q-16 0 -59 1.5t-83 1.5q-34 0 -78 -3.5t-57 -5.5l14 62q44 9 60.5 26t20.5 59l48 389q2 18 2 23q0 16 -6.5 22.5t-23.5 6.5l-34 -1l-4 8l14 57q28 0 48 -1l86 -1q27 0 74.5 3.5
t62.5 4.5l-14 -64q-37 -5 -50.5 -16t-18.5 -39q-21 -121 -42.5 -260zM193.5 719.5q-15.5 16.5 -15.5 44.5q0 39 24.5 64t63.5 25q28 0 44 -17t16 -44q0 -39 -24.5 -64t-62.5 -25q-30 0 -45.5 16.5z" />
    <glyph glyph-name="dotlessi" unicode="&#x131;" horiz-adv-x="282" 
d="M187 110q11 8 50 43l17 -2l16 -35q-64 -69 -103.5 -98.5t-67.5 -29.5q-24 0 -35 12t-11 37q48 291 48 320q0 20 -9 29t-29 9h-35l9 58q62 0 190 8l12 -15q-21 -71 -41 -167.5t-31 -172.5l3 -4q6 0 17 8z" />
    <glyph glyph-name="IJ" unicode="&#x132;" horiz-adv-x="672" 
d="M243.5 270q-21.5 -139 -21.5 -167q0 -23 7.5 -32t24.5 -9q16 0 27.5 1t14.5 2l4 -6l-16 -62q-16 0 -59 1.5t-83 1.5q-34 0 -78 -3.5t-57 -5.5l14 62q44 9 60.5 26t20.5 59l48 389q2 18 2 23q0 16 -6.5 22.5t-23.5 6.5l-34 -1l-4 8l14 57q28 0 48 -1l86 -1q27 0 74.5 3.5
t62.5 4.5l-14 -64q-37 -5 -50.5 -16t-18.5 -39q-21 -121 -42.5 -260zM495 550q0 17 -6.5 23t-22.5 6q-12 0 -24 -1.5t-17 -1.5l-3 8l13 57h119q41 1 86.5 4.5t59.5 4.5l-13 -65q-32 -6 -42.5 -15.5t-15.5 -39.5q-12 -67 -33 -207t-32 -220q-13 -100 -68 -160.5t-162 -94.5
l-22 39l3 11q44 28 68.5 55.5t38 66t21.5 102.5l50 405q2 18 2 23z" />
    <glyph glyph-name="ij" unicode="&#x133;" horiz-adv-x="552" 
d="M187 110q11 8 50 43l17 -2l16 -35q-64 -69 -103.5 -98.5t-67.5 -29.5q-24 0 -35 12t-11 37q48 291 48 320q0 20 -9 29t-29 9h-35l9 58q62 0 190 8l12 -15q-21 -71 -41 -167.5t-31 -172.5l3 -4q6 0 17 8zM126.5 569.5q-15.5 16.5 -15.5 44.5q0 38 25 63.5t62 25.5
q29 0 45 -17t16 -44q0 -38 -25 -63.5t-63 -25.5q-29 0 -44.5 16.5zM426.5 588q-15.5 16 -15.5 43q0 40 24.5 64.5t62.5 24.5q27 0 42 -15.5t15 -42.5q0 -39 -24.5 -64.5t-61.5 -25.5q-27 0 -42.5 16zM381.5 -137.5q-50.5 -65.5 -135.5 -106.5l-27 30l3 11q57 42 82 92
t38 147q8 45 28.5 172.5t20.5 147.5t-9 29.5t-30 9.5h-35l10 58q46 0 107.5 3.5t80.5 4.5l13 -15q-4 -17 -18.5 -79t-33 -157t-32.5 -192q-12 -90 -62.5 -155.5z" />
    <glyph glyph-name="Jcircumflex" unicode="&#x134;" horiz-adv-x="320" 
d="M143 550q0 17 -6.5 23t-22.5 6q-12 0 -24 -1.5t-17 -1.5l-3 8l13 57h119q41 1 86.5 4.5t59.5 4.5l-13 -65q-32 -6 -42.5 -15.5t-15.5 -39.5q-12 -67 -33 -207t-32 -220q-13 -100 -68 -160.5t-162 -94.5l-22 39l3 11q44 28 68.5 55.5t38 66t21.5 102.5l50 405q2 18 2 23z
M158.5 820q60.5 58 80.5 78h20q16 -20 62.5 -78t65.5 -77l-33 -40l-16 -3l-29 24q-50 43 -74 60q-16 -9 -77 -53l-45 -31l-16 3l-23 40q24 19 84.5 77z" />
    <glyph glyph-name="jcircumflex" unicode="&#x135;" horiz-adv-x="270" 
d="M99.5 -137.5q-50.5 -65.5 -135.5 -106.5l-27 30l3 11q57 42 82 92t38 147q8 45 28.5 172.5t20.5 147.5t-9 29.5t-30 9.5h-35l10 58q46 0 107.5 3.5t80.5 4.5l13 -15q-4 -17 -18.5 -79t-33 -157t-32.5 -192q-12 -90 -62.5 -155.5zM111.5 640q60.5 58 80.5 78h20
q16 -20 62.5 -78t65.5 -77l-33 -40l-16 -3l-29 24q-50 43 -74 60q-16 -9 -77 -53l-45 -31l-16 3l-23 40q24 19 84.5 77z" />
    <glyph glyph-name="Kcommaaccent" unicode="&#x136;" horiz-adv-x="635" 
d="M152 550q0 17 -6.5 23t-23.5 6l-29 -1l-5 8l15 58q16 0 56.5 -1.5t72.5 -1.5q26 0 72 3.5t61 4.5l-13 -64q-37 -7 -51 -19.5t-18 -39.5l-58 -396q-3 -19 -3 -33q0 -20 7.5 -27.5t24.5 -7.5q14 0 24.5 1t13.5 2l4 -6l-16 -62q-16 0 -57.5 1.5t-80.5 1.5q-44 0 -82.5 -1
t-51.5 -2l16 62q43 6 58.5 21.5t19.5 57.5l48 389q2 18 2 23zM432 497q35 33 35 56q0 13 -11 19.5t-36 8.5l-3 6l15 60q13 -1 54 -3.5t66 -2.5q33 0 66.5 1.5t45.5 2.5l5 -10l-14 -55q-33 -13 -60 -35t-71 -69l-128 -131l104 -202q23 -45 45.5 -65t53.5 -22l6 -8l-14 -51
q-15 -2 -57 -7t-53 -5q-30 0 -53.5 20.5t-43.5 63.5l-117 247l5 21zM333.5 -61.5q20.5 9.5 38.5 9.5q30 0 49 -23.5t19 -61.5q0 -50 -41.5 -97.5t-104.5 -81.5l-36 29v16q30 21 49.5 49t19.5 53q0 19 -10 37.5t-25 31.5l2 14q19 15 39.5 24.5z" />
    <glyph glyph-name="kcommaaccent" unicode="&#x137;" horiz-adv-x="459" 
d="M229 204q48 24 79 51.5t31 61.5q0 15 -7 23t-20 8q-25 0 -69.5 -69.5t-88.5 -178.5l-9 -72q-2 -12 -35.5 -24t-65.5 -12l-13 15q15 93 55.5 348.5t40.5 278.5q0 19 -9 28t-29 9h-35l8 57q46 0 109 3.5t83 5.5l11 -16q-5 -20 -20.5 -93t-36 -178.5t-35.5 -202.5l6 -1
q89 182 165 227q51 0 82 -28t31 -72q0 -46 -34.5 -92.5t-100.5 -89.5q29 -53 61.5 -102.5t42.5 -63.5l-1 -17l-106 -27l-13 7l-83 199zM182.5 -61.5q20.5 9.5 38.5 9.5q30 0 49 -23.5t19 -61.5q0 -50 -41.5 -97.5t-104.5 -81.5l-36 29v16q30 21 49.5 49t19.5 53
q0 19 -10 37.5t-25 31.5l2 14q19 15 39.5 24.5z" />
    <glyph glyph-name="kgreenlandic" unicode="&#x138;" horiz-adv-x="495" 
d="M327 -12l-83 199l7 17q48 25 79 52t31 61q0 15 -7.5 23t-19.5 8q-26 0 -70.5 -70t-87.5 -178l-9 -72q-2 -12 -35.5 -24t-65.5 -12l-13 15q8 48 30 184t24 163q2 22 -7 31.5t-31 9.5h-34l9 58q46 0 107.5 3.5t80.5 4.5l11 -16q-3 -8 -11.5 -37t-19 -72.5t-17.5 -87.5l6 -2
q42 88 84.5 146.5t80.5 80.5q50 0 81.5 -28t31.5 -72q0 -46 -35 -92.5t-101 -89.5q30 -52 62 -102t42 -64v-17l-107 -27z" />
    <glyph glyph-name="Lacute" unicode="&#x139;" horiz-adv-x="511" 
d="M75 -4q-49 -4 -63 -6l16 65q37 6 53 24.5t21 61.5l48 386q1 8 1 21q0 18 -6.5 24.5t-23.5 6.5l-29 -1l-4 8l14 57q27 0 47 -1l83 -1q28 0 79.5 3.5t68.5 4.5l-15 -67q-33 -5 -47.5 -11t-22 -20t-13.5 -46q-16 -83 -37 -223.5t-21 -165.5t11.5 -33.5t43.5 -8.5
q48 0 73 11.5t40 42t31 97.5l81 8l6 -9q-5 -18 -21.5 -84t-32.5 -138l-10 -10q-26 1 -112 4.5t-157 3.5q-53 0 -102 -4zM293.5 732q-68.5 -19 -139.5 -42l-13 9l-13 45q67 30 134.5 62.5t87.5 42.5l12 -6l25 -75l-5 -12q-20 -5 -88.5 -24z" />
    <glyph glyph-name="lacute" unicode="&#x13a;" horiz-adv-x="268" 
d="M179 114q15 12 46 39l17 -2l16 -35q-65 -69 -104.5 -98.5t-67.5 -29.5q-46 0 -46 46q0 14 40 264q51 310 51 336q0 19 -9 28t-29 9h-35l9 57q46 0 108.5 3.5t81.5 5.5l12 -16q-7 -31 -29 -139.5t-47.5 -245.5t-38.5 -230l4 -4q6 0 21 12zM243 873q-57 -38 -115 -81l-15 4
l-29 38q51 49 102 101.5t65 68.5l13 -1l53 -68l-1 -14q-16 -10 -73 -48z" />
    <glyph glyph-name="Lcommaaccent" unicode="&#x13b;" horiz-adv-x="511" 
d="M75 -4q-49 -4 -63 -6l16 65q37 6 53 24.5t21 61.5l48 386q1 8 1 21q0 18 -6.5 24.5t-23.5 6.5l-29 -1l-4 8l14 57q27 0 47 -1l83 -1q28 0 79.5 3.5t68.5 4.5l-15 -67q-33 -5 -47.5 -11t-22 -20t-13.5 -46q-16 -83 -37 -223.5t-21 -165.5t11.5 -33.5t43.5 -8.5
q48 0 73 11.5t40 42t31 97.5l81 8l6 -9q-5 -18 -21.5 -84t-32.5 -138l-10 -10q-26 1 -112 4.5t-157 3.5q-53 0 -102 -4zM211.5 -61.5q20.5 9.5 38.5 9.5q30 0 49 -23.5t19 -61.5q0 -50 -41.5 -97.5t-104.5 -81.5l-36 29v16q30 21 49.5 49t19.5 53q0 19 -10 37.5t-25 31.5
l2 14q19 15 39.5 24.5z" />
    <glyph glyph-name="lcommaaccent" unicode="&#x13c;" horiz-adv-x="268" 
d="M179 114q15 12 46 39l17 -2l16 -35q-65 -69 -104.5 -98.5t-67.5 -29.5q-46 0 -46 46q0 14 40 264q51 310 51 336q0 19 -9 28t-29 9h-35l9 57q46 0 108.5 3.5t81.5 5.5l12 -16q-7 -31 -29 -139.5t-47.5 -245.5t-38.5 -230l4 -4q6 0 21 12zM67.5 -61.5q20.5 9.5 38.5 9.5
q30 0 49 -23.5t19 -61.5q0 -50 -41.5 -97.5t-104.5 -81.5l-36 29v16q30 21 49.5 49t19.5 53q0 19 -10 37.5t-25 31.5l2 14q19 15 39.5 24.5z" />
    <glyph glyph-name="Lcaron" unicode="&#x13d;" horiz-adv-x="530" 
d="M75 -4q-49 -4 -63 -6l16 65q37 6 53 24.5t21 61.5l48 386q1 8 1 21q0 18 -6.5 24.5t-23.5 6.5l-29 -1l-4 8l14 57q27 0 47 -1l83 -1q28 0 79.5 3.5t68.5 4.5l-15 -67q-33 -5 -47.5 -11t-22 -20t-13.5 -46q-16 -83 -37 -223.5t-21 -165.5t11.5 -33.5t43.5 -8.5
q48 0 73 11.5t40 42t31 97.5l81 8l6 -9q-5 -18 -21.5 -84t-32.5 -138l-10 -10q-26 1 -112 4.5t-157 3.5q-53 0 -102 -4zM542.5 546q-18.5 -65 -41.5 -132l-49 -19l-14 4q11 71 16 141.5t5 85.5l100 14l7 -10q-5 -19 -23.5 -84z" />
    <glyph glyph-name="lcaron" unicode="&#x13e;" horiz-adv-x="368" 
d="M179 114q15 12 46 39l17 -2l16 -35q-65 -69 -104.5 -98.5t-67.5 -29.5q-46 0 -46 46q0 14 40 264q51 310 51 336q0 19 -9 28t-29 9h-35l9 57q46 0 108.5 3.5t81.5 5.5l12 -16q-7 -31 -29 -139.5t-47.5 -245.5t-38.5 -230l4 -4q6 0 21 12zM398.5 637.5
q-17.5 -65.5 -40.5 -131.5l-49 -19l-14 4q11 71 16 141.5t5 85.5l100 14l5 -10q-5 -19 -22.5 -84.5z" />
    <glyph glyph-name="Ldot" unicode="&#x13f;" horiz-adv-x="548" 
d="M75 -4q-49 -4 -63 -6l16 65q37 6 53 24.5t21 61.5l48 386q1 8 1 21q0 18 -6.5 24.5t-23.5 6.5l-29 -1l-4 8l14 57q27 0 47 -1l83 -1q28 0 79.5 3.5t68.5 4.5l-15 -67q-33 -5 -47.5 -11t-22 -20t-13.5 -46q-16 -83 -37 -223.5t-21 -165.5t11.5 -33.5t43.5 -8.5
q48 0 73 11.5t40 42t31 97.5l81 8l6 -9q-5 -18 -21.5 -84t-32.5 -138l-10 -10q-26 1 -112 4.5t-157 3.5q-53 0 -102 -4zM407 415q-16 17 -16 46q0 40 25 66t64 26q31 0 47.5 -17.5t16.5 -46.5q0 -40 -25 -65.5t-65 -25.5q-31 0 -47 17z" />
    <glyph glyph-name="ldot" unicode="&#x140;" horiz-adv-x="394" 
d="M179 114q15 12 46 39l17 -2l16 -35q-65 -69 -104.5 -98.5t-67.5 -29.5q-46 0 -46 46q0 14 40 264q51 310 51 336q0 19 -9 28t-29 9h-35l9 57q46 0 108.5 3.5t81.5 5.5l12 -16q-7 -31 -29 -139.5t-47.5 -245.5t-38.5 -230l4 -4q6 0 21 12zM249 230q-16 17 -16 46
q0 40 25 66t64 26q31 0 47.5 -17.5t16.5 -46.5q0 -40 -25 -65.5t-65 -25.5q-31 0 -47 17z" />
    <glyph glyph-name="Lslash" unicode="&#x141;" horiz-adv-x="517" 
d="M515 224q-5 -18 -21.5 -83.5t-32.5 -138.5l-10 -10q-26 1 -112 4.5t-157 3.5q-53 0 -102 -4t-63 -6l16 65q37 6 53 24.5t21 61.5l16 131l-72 -36l-10 3l-16 60l108 55l22 173q1 8 1 21q0 18 -6.5 24.5t-23.5 6.5l-29 -1l-4 8l14 57q27 0 47 -1l83 -1q28 0 79.5 3.5
t68.5 4.5l-15 -67q-33 -5 -47.5 -11t-22 -20t-13.5 -46q-8 -40 -17 -97l112 55l8 -4l17 -59l-150 -74q-28 -177 -28 -210q0 -25 11.5 -33.5t43.5 -8.5q48 0 73 11.5t40 42t31 97.5l81 8z" />
    <glyph glyph-name="lslash" unicode="&#x142;" horiz-adv-x="296" 
d="M256 151l16 -35q-65 -69 -104.5 -98.5t-67.5 -29.5q-46 0 -46 46q0 17 42 273l-55 -29l-10 2l-17 60l95 50q36 229 36 244q0 19 -9 28t-29 9h-35l9 57q46 0 108.5 3.5t81.5 5.5l12 -16q-5 -23 -20.5 -98t-36.5 -183l55 29l9 -4l17 -59l-97 -51q-25 -135 -42 -249l4 -4
q6 0 21 12t46 39z" />
    <glyph glyph-name="Nacute" unicode="&#x143;" horiz-adv-x="702" 
d="M548 536q2 23 -4 33t-22 10l-34 -1l-3 7l15 60q13 -1 49.5 -2.5t73.5 -1.5q29 0 65.5 2.5t47.5 3.5l-12 -64q-33 -4 -48.5 -19t-20.5 -44l-79 -535l-100 -14q-75 159 -151.5 309.5t-76.5 148.5h-9l-42 -323q-1 -6 -1 -15q0 -16 7 -22.5t23 -6.5l41 2l5 -6l-17 -62
q-13 1 -49.5 2.5t-73.5 1.5q-33 0 -70.5 -3.5t-48.5 -4.5l16 64q30 4 45.5 18.5t19.5 44.5l61 401q1 6 1 15q0 23 -15.5 32.5t-56.5 14.5q-1 2 -2.5 4t-2.5 5l13 55q11 -1 46 -3t64 -2q26 0 54.5 1.5t37.5 2.5q44 -97 90.5 -190.5t77.5 -154t40 -76.5h9zM452.5 732
q-68.5 -19 -139.5 -42l-13 9l-13 45q67 30 134.5 62.5t87.5 42.5l12 -6l25 -75l-5 -12q-20 -5 -88.5 -24z" />
    <glyph glyph-name="nacute" unicode="&#x144;" horiz-adv-x="518" 
d="M501 117q-66 -70 -104.5 -99t-66.5 -29q-46 0 -46 43q0 17 8.5 49t25.5 87q13 43 24 84.5t11 59.5q0 17 -7 26.5t-19 9.5q-24 0 -66.5 -70t-85.5 -181l-8 -69q-2 -12 -35.5 -24t-65.5 -12l-13 15q18 108 32.5 203.5t21.5 143.5q2 22 -7 31.5t-31 9.5h-34l9 58q76 0 188 8
l11 -16q-13 -41 -26.5 -97t-21.5 -101l6 -1q42 88 83.5 146.5t78.5 80.5q49 0 78.5 -28t29.5 -72q0 -23 -11 -63.5t-31 -102.5q-25 -75 -30 -100l3 -3q7 0 18.5 9t47.5 42l18 -3zM347 604q-57 -38 -115 -81l-15 4l-29 38q51 49 102 101.5t65 68.5l13 -1l53 -68l-1 -14
q-16 -10 -73 -48z" />
    <glyph glyph-name="Ncommaaccent" unicode="&#x145;" horiz-adv-x="702" 
d="M548 536q2 23 -4 33t-22 10l-34 -1l-3 7l15 60q13 -1 49.5 -2.5t73.5 -1.5q29 0 65.5 2.5t47.5 3.5l-12 -64q-33 -4 -48.5 -19t-20.5 -44l-79 -535l-100 -14q-75 159 -151.5 309.5t-76.5 148.5h-9l-42 -323q-1 -6 -1 -15q0 -16 7 -22.5t23 -6.5l41 2l5 -6l-17 -62
q-13 1 -49.5 2.5t-73.5 1.5q-33 0 -70.5 -3.5t-48.5 -4.5l16 64q30 4 45.5 18.5t19.5 44.5l61 401q1 6 1 15q0 23 -15.5 32.5t-56.5 14.5q-1 2 -2.5 4t-2.5 5l13 55q11 -1 46 -3t64 -2q26 0 54.5 1.5t37.5 2.5q44 -97 90.5 -190.5t77.5 -154t40 -76.5h9zM284.5 -61.5
q20.5 9.5 38.5 9.5q30 0 49 -23.5t19 -61.5q0 -50 -41.5 -97.5t-104.5 -81.5l-36 29v16q30 21 49.5 49t19.5 53q0 19 -10 37.5t-25 31.5l2 14q19 15 39.5 24.5z" />
    <glyph glyph-name="ncommaaccent" unicode="&#x146;" horiz-adv-x="518" 
d="M501 117q-66 -70 -104.5 -99t-66.5 -29q-46 0 -46 43q0 17 8.5 49t25.5 87q13 43 24 84.5t11 59.5q0 17 -7 26.5t-19 9.5q-24 0 -66.5 -70t-85.5 -181l-8 -69q-2 -12 -35.5 -24t-65.5 -12l-13 15q18 108 32.5 203.5t21.5 143.5q2 22 -7 31.5t-31 9.5h-34l9 58q76 0 188 8
l11 -16q-13 -41 -26.5 -97t-21.5 -101l6 -1q42 88 83.5 146.5t78.5 80.5q49 0 78.5 -28t29.5 -72q0 -23 -11 -63.5t-31 -102.5q-25 -75 -30 -100l3 -3q7 0 18.5 9t47.5 42l18 -3zM195.5 -61.5q20.5 9.5 38.5 9.5q30 0 49 -23.5t19 -61.5q0 -50 -41.5 -97.5t-104.5 -81.5
l-36 29v16q30 21 49.5 49t19.5 53q0 19 -10 37.5t-25 31.5l2 14q19 15 39.5 24.5z" />
    <glyph glyph-name="Ncaron" unicode="&#x147;" horiz-adv-x="702" 
d="M548 536q2 23 -4 33t-22 10l-34 -1l-3 7l15 60q13 -1 49.5 -2.5t73.5 -1.5q29 0 65.5 2.5t47.5 3.5l-12 -64q-33 -4 -48.5 -19t-20.5 -44l-79 -535l-100 -14q-75 159 -151.5 309.5t-76.5 148.5h-9l-42 -323q-1 -6 -1 -15q0 -16 7 -22.5t23 -6.5l41 2l5 -6l-17 -62
q-13 1 -49.5 2.5t-73.5 1.5q-33 0 -70.5 -3.5t-48.5 -4.5l16 64q30 4 45.5 18.5t19.5 44.5l61 401q1 6 1 15q0 23 -15.5 32.5t-56.5 14.5q-1 2 -2.5 4t-2.5 5l13 55q11 -1 46 -3t64 -2q26 0 54.5 1.5t37.5 2.5q44 -97 90.5 -190.5t77.5 -154t40 -76.5h9zM492 757.5
q-61 -45.5 -81 -60.5h-19q-16 15 -65.5 60.5t-70.5 62.5l28 40l16 4q2 -1 54 -28l61 -31q12 5 75 34l54 25l15 -4l20 -40q-26 -17 -87 -62.5z" />
    <glyph glyph-name="ncaron" unicode="&#x148;" horiz-adv-x="518" 
d="M501 117q-66 -70 -104.5 -99t-66.5 -29q-46 0 -46 43q0 17 8.5 49t25.5 87q13 43 24 84.5t11 59.5q0 17 -7 26.5t-19 9.5q-24 0 -66.5 -70t-85.5 -181l-8 -69q-2 -12 -35.5 -24t-65.5 -12l-13 15q18 108 32.5 203.5t21.5 143.5q2 22 -7 31.5t-31 9.5h-34l9 58q76 0 188 8
l11 -16q-13 -41 -26.5 -97t-21.5 -101l6 -1q42 88 83.5 146.5t78.5 80.5q49 0 78.5 -28t29.5 -72q0 -23 -11 -63.5t-31 -102.5q-25 -75 -30 -100l3 -3q7 0 18.5 9t47.5 42l18 -3zM201 724q42 -39 105 -87q77 50 126 87l14 -4l25 -41q-50 -44 -102.5 -93.5t-67.5 -64.5h-19
q-12 15 -52 64.5t-79 93.5l34 41z" />
    <glyph glyph-name="Eng" unicode="&#x14a;" horiz-adv-x="702" 
d="M256.5 643.5q27.5 1.5 37.5 2.5q40 -88 86 -182t80 -158.5t43 -82.5h9l37 314q1 5 1 13q0 30 -28 30l-33 -1l-3 6l15 61q15 -1 53 -2.5t70 -1.5q27 0 64 2.5t49 3.5l-12 -65q-34 -4 -49.5 -18.5t-20.5 -44.5l-63 -434q-16 -100 -70 -158t-161 -90l-24 40l4 11
q46 21 75 48.5t46 66.5q-72 150 -134.5 271.5t-79.5 154.5h-9l-41 -324q-1 -6 -1 -16q0 -16 6.5 -22t22.5 -6l41 2l5 -6l-17 -62q-13 1 -57.5 2.5t-82.5 1.5q-24 0 -57.5 -3.5t-43.5 -4.5l16 64q31 3 45.5 20t21.5 57l59 387q1 5 1 14q0 23 -15 33t-57 15l-6 10l13 55
q12 -1 49 -3t60 -2q28 0 55.5 1.5z" />
    <glyph glyph-name="eng" unicode="&#x14b;" horiz-adv-x="513" 
d="M299 69q25 94 38.5 153.5t13.5 89.5q0 17 -7 26.5t-20 9.5q-25 0 -67 -69t-86 -179l-9 -72q-2 -12 -35.5 -24t-65.5 -12l-13 15q8 48 30 184t24 163q2 22 -7 31.5t-31 9.5h-35l9 58q46 0 108 3.5t81 4.5l12 -16q-3 -8 -11.5 -37.5t-19.5 -73.5t-18 -87l6 -1q43 88 85 146
t80 81q49 0 79 -28t30 -72q0 -50 -66 -298l-14 -56q-26 -98 -76 -161t-136 -102l-27 30l4 11q40 27 63 56.5t37.5 69t34.5 112.5q4 17 9 34z" />
    <glyph glyph-name="Omacron" unicode="&#x14c;" horiz-adv-x="651" 
d="M155.5 21q-58.5 33 -90.5 93t-32 141q0 117 43 207.5t122 140.5t182 50q79 0 138 -32t91 -91.5t32 -140.5q0 -117 -44 -208t-123.5 -142t-183.5 -51q-76 0 -134.5 33zM442 150q48 79 48 220q0 90 -36 140.5t-98 50.5q-53 0 -92.5 -35.5t-61 -103t-21.5 -160.5
q0 -90 34.5 -140.5t95.5 -50.5q83 0 131 79zM519 710l-136 -1l-134 -1l-9 11l23 74l148 -1q30 0 70.5 2.5t52.5 3.5l7 -13z" />
    <glyph glyph-name="omacron" unicode="&#x14d;" horiz-adv-x="442" 
d="M65 35.5q-38 47.5 -38 130.5q0 85 32.5 155.5t89 111t125.5 40.5q68 0 105.5 -43.5t37.5 -123.5q0 -89 -32 -161.5t-89 -114.5t-127 -42q-66 0 -104 47.5zM272 116q23 50 23 144q0 62 -15.5 94t-46.5 32q-40 0 -63 -46.5t-23 -131.5q0 -69 16.5 -105.5t45.5 -36.5
q40 0 63 50zM397 572l-136 -1l-134 -1l-9 11l23 74l148 -1q31 0 71.5 2.5t52.5 3.5l6 -14z" />
    <glyph glyph-name="Obreve" unicode="&#x14e;" horiz-adv-x="651" 
d="M155.5 21q-58.5 33 -90.5 93t-32 141q0 117 43 207.5t122 140.5t182 50q79 0 138 -32t91 -91.5t32 -140.5q0 -117 -44 -208t-123.5 -142t-183.5 -51q-76 0 -134.5 33zM442 150q48 79 48 220q0 90 -36 140.5t-98 50.5q-53 0 -92.5 -35.5t-61 -103t-21.5 -160.5
q0 -90 34.5 -140.5t95.5 -50.5q83 0 131 79zM452.5 813q28.5 17 45.5 51l17 -3l22 -34q-20 -53 -60.5 -88.5t-97.5 -35.5q-58 0 -89 35.5t-39 88.5l30 34l17 3q10 -34 34 -51t58 -17t62.5 17z" />
    <glyph glyph-name="obreve" unicode="&#x14f;" horiz-adv-x="442" 
d="M65 35.5q-38 47.5 -38 130.5q0 85 32.5 155.5t89 111t125.5 40.5q68 0 105.5 -43.5t37.5 -123.5q0 -89 -32 -161.5t-89 -114.5t-127 -42q-66 0 -104 47.5zM272 116q23 50 23 144q0 62 -15.5 94t-46.5 32q-40 0 -63 -46.5t-23 -131.5q0 -69 16.5 -105.5t45.5 -36.5
q40 0 63 50zM325.5 633q28.5 17 45.5 51l17 -3l22 -34q-20 -53 -60.5 -88.5t-97.5 -35.5q-58 0 -89 35.5t-39 88.5l30 34l17 3q10 -34 34 -51t58 -17t62.5 17z" />
    <glyph glyph-name="Ohungarumlaut" unicode="&#x150;" horiz-adv-x="651" 
d="M155.5 21q-58.5 33 -90.5 93t-32 141q0 117 43 207.5t122 140.5t182 50q79 0 138 -32t91 -91.5t32 -140.5q0 -117 -44 -208t-123.5 -142t-183.5 -51q-76 0 -134.5 33zM442 150q48 79 48 220q0 90 -36 140.5t-98 50.5q-53 0 -92.5 -35.5t-61 -103t-21.5 -160.5
q0 -90 34.5 -140.5t95.5 -50.5q83 0 131 79zM378 746q-51 -28 -103 -61l-13 5l-22 33q46 39 92 80t59 53l12 -2l42 -60l-2 -12q-14 -8 -65 -36zM544 740.5q-51 -28.5 -103 -60.5l-12 5l-23 33q46 39 92 80t59 53l12 -2l42 -60l-2 -12q-14 -8 -65 -36.5z" />
    <glyph glyph-name="ohungarumlaut" unicode="&#x151;" horiz-adv-x="442" 
d="M65 35.5q-38 47.5 -38 130.5q0 85 32.5 155.5t89 111t125.5 40.5q68 0 105.5 -43.5t37.5 -123.5q0 -89 -32 -161.5t-89 -114.5t-127 -42q-66 0 -104 47.5zM272 116q23 50 23 144q0 62 -15.5 94t-46.5 32q-40 0 -63 -46.5t-23 -131.5q0 -69 16.5 -105.5t45.5 -36.5
q40 0 63 50zM267 614.5q-45 -39.5 -91 -83.5l-14 1l-30 27q38 49 76 100t49 66h11l56 -49l1 -11q-13 -11 -58 -50.5zM410.5 614.5q-44.5 -39.5 -90.5 -83.5l-14 1l-31 27q46 59 80.5 105t45.5 61h11l56 -49v-11q-13 -11 -57.5 -50.5z" />
    <glyph glyph-name="OE" unicode="&#x152;" horiz-adv-x="906" 
d="M555 110q0 -21 11 -27t46 -6q62 0 91 7.5t43.5 30.5t28.5 76l83 7l6 -9q-5 -16 -20.5 -71t-28.5 -114l-11 -11q-30 2 -128.5 5.5t-173.5 3.5q-37 0 -128 -7q-64 -6 -90 -6q-75 0 -132 32.5t-88 93t-31 141.5q0 117 43 206t121.5 138t181.5 49q29 0 99 -6q10 -1 49.5 -4
t76.5 -3q172 0 303 18l6 -11l-9 -31.5t-17.5 -66.5t-17.5 -83l-90 -6q1 6 4.5 24.5t3.5 32.5q0 21 -9 30.5t-33 13t-73 3.5q-24 0 -34 -2t-14 -8.5t-6 -23.5l-27 -157l89 -1q21 0 61 4t53 5l7 -9l-24 -85q-13 1 -49.5 2t-75.5 1l-75 -6l-20 -143q-2 -22 -2 -27zM402.5 101.5
q31.5 30.5 40.5 101.5l32 251q2 20 2 27q0 45 -27 63.5t-91 18.5q-51 0 -90.5 -37t-61.5 -105.5t-22 -160.5q0 -90 31.5 -139.5t90.5 -49.5q64 0 95.5 30.5z" />
    <glyph glyph-name="oe" unicode="&#x153;" horiz-adv-x="679" 
d="M610 160l32 -39q-27 -57 -81.5 -95t-109.5 -38q-41 0 -69.5 23.5t-42.5 67.5q-31 -43 -74.5 -67t-95.5 -24q-66 0 -104 47.5t-38 130.5q0 85 32.5 155.5t89 111t125.5 40.5q97 0 120 -99q34 46 78.5 72.5t92.5 26.5q50 0 78 -25t28 -69t-24.5 -77.5t-77 -61.5t-141.5 -57
q0 -46 16.5 -73t46.5 -27q28 0 54.5 20.5t47.5 58.5zM470 346.5q-28 -40.5 -38 -103.5q69 23 101 49t32 59q0 17 -8.5 26.5t-24.5 9.5q-34 0 -62 -40.5zM271 118.5q23 52.5 23 144.5q0 123 -61 123q-38 0 -62 -52t-24 -135q0 -62 16.5 -97.5t45.5 -35.5q39 0 62 52.5z" />
    <glyph glyph-name="Racute" unicode="&#x154;" horiz-adv-x="619" 
d="M226 139q-3 -22 -3 -36q0 -26 12.5 -33.5t50.5 -8.5l2 -5l-16 -60q-17 0 -61 1.5t-81 1.5q-35 0 -73.5 -2t-49.5 -3l17 65q42 5 58 21.5t21 59.5l48 389q1 8 1 20q0 17 -6 23.5t-20 6.5q-11 0 -20.5 -1t-12.5 -1l-5 8l16 59q13 0 49 -1.5t71 -1.5q24 0 70.5 2t61.5 3
q102 0 162.5 -39.5t60.5 -109.5q0 -67 -38 -121t-112 -91l67 -144q22 -46 44.5 -66.5t53.5 -20.5l5 -9l-13 -50l-114 -11q-64 0 -94 93l-62 177h-74zM407.5 374.5q33.5 33.5 33.5 98.5q0 96 -133 96q-10 0 -13.5 -4.5t-6.5 -18.5q-21 -108 -33 -206l87 -10q32 11 65.5 44.5z
M411.5 732q-68.5 -19 -139.5 -42l-13 9l-13 45q67 30 134.5 62.5t87.5 42.5l12 -6l25 -75l-5 -12q-20 -5 -88.5 -24z" />
    <glyph glyph-name="racute" unicode="&#x155;" horiz-adv-x="378" 
d="M79.5 194q22.5 138 22.5 163q0 20 -8.5 29t-29.5 9h-35l9 58q46 0 108 3.5t81 4.5l12 -16q-5 -15 -19.5 -67.5t-23.5 -104.5h6q40 88 87 141.5t88 55.5q9 -5 17 -19t9 -28q-1 -24 -8 -53.5t-13.5 -51t-8.5 -27.5l-38 -2q1 35 -18 35q-29 0 -67.5 -53.5t-75.5 -146.5
l-12 -96q-2 -12 -35.5 -24t-65.5 -12l-13 15q9 49 31.5 187zM289 604q-57 -38 -115 -81l-15 4l-29 38q51 49 102 101.5t65 68.5l13 -1l53 -68l-1 -14q-16 -10 -73 -48z" />
    <glyph glyph-name="Rcommaaccent" unicode="&#x156;" horiz-adv-x="619" 
d="M226 139q-3 -22 -3 -36q0 -26 12.5 -33.5t50.5 -8.5l2 -5l-16 -60q-17 0 -61 1.5t-81 1.5q-35 0 -73.5 -2t-49.5 -3l17 65q42 5 58 21.5t21 59.5l48 389q1 8 1 20q0 17 -6 23.5t-20 6.5q-11 0 -20.5 -1t-12.5 -1l-5 8l16 59q13 0 49 -1.5t71 -1.5q24 0 70.5 2t61.5 3
q102 0 162.5 -39.5t60.5 -109.5q0 -67 -38 -121t-112 -91l67 -144q22 -46 44.5 -66.5t53.5 -20.5l5 -9l-13 -50l-114 -11q-64 0 -94 93l-62 177h-74zM407.5 374.5q33.5 33.5 33.5 98.5q0 96 -133 96q-10 0 -13.5 -4.5t-6.5 -18.5q-21 -108 -33 -206l87 -10q32 11 65.5 44.5z
M243.5 -61.5q20.5 9.5 38.5 9.5q30 0 49 -23.5t19 -61.5q0 -50 -41.5 -97.5t-104.5 -81.5l-36 29v16q30 21 49.5 49t19.5 53q0 19 -10 37.5t-25 31.5l2 14q19 15 39.5 24.5z" />
    <glyph glyph-name="rcommaaccent" unicode="&#x157;" horiz-adv-x="378" 
d="M79.5 194q22.5 138 22.5 163q0 20 -8.5 29t-29.5 9h-35l9 58q46 0 108 3.5t81 4.5l12 -16q-5 -15 -19.5 -67.5t-23.5 -104.5h6q40 88 87 141.5t88 55.5q9 -5 17 -19t9 -28q-1 -24 -8 -53.5t-13.5 -51t-8.5 -27.5l-38 -2q1 35 -18 35q-29 0 -67.5 -53.5t-75.5 -146.5
l-12 -96q-2 -12 -35.5 -24t-65.5 -12l-13 15q9 49 31.5 187zM69.5 -61.5q20.5 9.5 38.5 9.5q30 0 49 -23.5t19 -61.5q0 -50 -41.5 -97.5t-104.5 -81.5l-36 29v16q30 21 49.5 49t19.5 53q0 19 -10 37.5t-25 31.5l2 14q19 15 39.5 24.5z" />
    <glyph glyph-name="Rcaron" unicode="&#x158;" horiz-adv-x="619" 
d="M226 139q-3 -22 -3 -36q0 -26 12.5 -33.5t50.5 -8.5l2 -5l-16 -60q-17 0 -61 1.5t-81 1.5q-35 0 -73.5 -2t-49.5 -3l17 65q42 5 58 21.5t21 59.5l48 389q1 8 1 20q0 17 -6 23.5t-20 6.5q-11 0 -20.5 -1t-12.5 -1l-5 8l16 59q13 0 49 -1.5t71 -1.5q24 0 70.5 2t61.5 3
q102 0 162.5 -39.5t60.5 -109.5q0 -67 -38 -121t-112 -91l67 -144q22 -46 44.5 -66.5t53.5 -20.5l5 -9l-13 -50l-114 -11q-64 0 -94 93l-62 177h-74zM407.5 374.5q33.5 33.5 33.5 98.5q0 96 -133 96q-10 0 -13.5 -4.5t-6.5 -18.5q-21 -108 -33 -206l87 -10q32 11 65.5 44.5z
M451 757.5q-61 -45.5 -81 -60.5h-19q-16 15 -65.5 60.5t-70.5 62.5l28 40l16 4q2 -1 54 -28l61 -31q12 5 75 34l54 25l15 -4l20 -40q-26 -17 -87 -62.5z" />
    <glyph glyph-name="rcaron" unicode="&#x159;" horiz-adv-x="378" 
d="M79.5 194q22.5 138 22.5 163q0 20 -8.5 29t-29.5 9h-35l9 58q46 0 108 3.5t81 4.5l12 -16q-5 -15 -19.5 -67.5t-23.5 -104.5h6q40 88 87 141.5t88 55.5q9 -5 17 -19t9 -28q-1 -24 -8 -53.5t-13.5 -51t-8.5 -27.5l-38 -2q1 35 -18 35q-29 0 -67.5 -53.5t-75.5 -146.5
l-12 -96q-2 -12 -35.5 -24t-65.5 -12l-13 15q9 49 31.5 187zM143 724q42 -39 105 -87q77 50 126 87l14 -4l25 -41q-50 -44 -102.5 -93.5t-67.5 -64.5h-19q-12 15 -52 64.5t-79 93.5l34 41z" />
    <glyph glyph-name="Sacute" unicode="&#x15a;" horiz-adv-x="520" 
d="M109 -3.5q-39 8.5 -65 18.5t-26 11l-6 13q2 7 9 32t15 63t13 75l80 7q-4 -40 -4 -53q0 -51 21 -71t72 -20q50 0 81 24t31 63q0 31 -26 53.5t-78 50.5q-51 27 -81.5 48t-52.5 53t-22 75q0 61 35 109.5t97 76.5t140 28q42 0 80 -6t61.5 -12t29.5 -8l5 -12
q-5 -14 -18.5 -64.5t-24.5 -107.5l-73 -6l-8 7q1 6 4.5 23.5t3.5 29.5q0 36 -20.5 51.5t-65.5 15.5q-44 0 -73.5 -23t-29.5 -58q0 -25 18 -45t53 -40q12 -7 22.5 -12.5t18.5 -10.5q49 -27 79 -47.5t51.5 -51.5t21.5 -72q0 -64 -35 -113t-99.5 -76t-149.5 -27q-45 0 -84 8.5z
M376.5 732q-68.5 -19 -139.5 -42l-13 9l-13 45q67 30 134.5 62.5t87.5 42.5l12 -6l25 -75l-5 -12q-20 -5 -88.5 -24z" />
    <glyph glyph-name="sacute" unicode="&#x15b;" horiz-adv-x="367" 
d="M93 90.5q24 -24.5 64 -24.5q25 0 41 13.5t16 33.5q0 19 -16 34.5t-48 37.5t-50 37.5t-31.5 38.5t-13.5 53q0 44 25 80.5t68 57.5t94 21q39 0 72 -11t52 -30q-21 -55 -47 -100h-19q-11 28 -31 43.5t-44 15.5q-20 0 -33.5 -12t-13.5 -30q0 -24 30 -47q9 -7 18 -13.5
t16 -11.5q45 -31 69 -58.5t24 -67.5q0 -44 -26.5 -81.5t-72 -59.5t-99.5 -22q-52 0 -89.5 16.5t-46.5 43.5q5 25 19.5 58t27.5 51l19 -1q2 -41 26 -65.5zM268 604q-57 -38 -115 -81l-15 4l-29 38q51 49 102 101.5t65 68.5l13 -1l53 -68l-1 -14q-16 -10 -73 -48z" />
    <glyph glyph-name="Scircumflex" unicode="&#x15c;" horiz-adv-x="520" 
d="M109 -3.5q-39 8.5 -65 18.5t-26 11l-6 13q2 7 9 32t15 63t13 75l80 7q-4 -40 -4 -53q0 -51 21 -71t72 -20q50 0 81 24t31 63q0 31 -26 53.5t-78 50.5q-51 27 -81.5 48t-52.5 53t-22 75q0 61 35 109.5t97 76.5t140 28q42 0 80 -6t61.5 -12t29.5 -8l5 -12
q-5 -14 -18.5 -64.5t-24.5 -107.5l-73 -6l-8 7q1 6 4.5 23.5t3.5 29.5q0 36 -20.5 51.5t-65.5 15.5q-44 0 -73.5 -23t-29.5 -58q0 -25 18 -45t53 -40q12 -7 22.5 -12.5t18.5 -10.5q49 -27 79 -47.5t51.5 -51.5t21.5 -72q0 -64 -35 -113t-99.5 -76t-149.5 -27q-45 0 -84 8.5z
M268 813.5q61 45.5 81 60.5h19q1 2 26 -21.5t33 -31.5q31 -29 78 -70l-29 -40l-16 -4l-38 20q-72 37 -77 39q-12 -5 -75 -34l-54 -25l-15 4l-19 40q25 17 86 62.5z" />
    <glyph glyph-name="scircumflex" unicode="&#x15d;" horiz-adv-x="367" 
d="M93 90.5q24 -24.5 64 -24.5q25 0 41 13.5t16 33.5q0 19 -16 34.5t-48 37.5t-50 37.5t-31.5 38.5t-13.5 53q0 44 25 80.5t68 57.5t94 21q39 0 72 -11t52 -30q-21 -55 -47 -100h-19q-11 28 -31 43.5t-44 15.5q-20 0 -33.5 -12t-13.5 -30q0 -24 30 -47q9 -7 18 -13.5
t16 -11.5q45 -31 69 -58.5t24 -67.5q0 -44 -26.5 -81.5t-72 -59.5t-99.5 -22q-52 0 -89.5 16.5t-46.5 43.5q5 25 19.5 58t27.5 51l19 -1q2 -41 26 -65.5zM159.5 640q60.5 58 80.5 78h20q16 -20 62.5 -78t65.5 -77l-33 -40l-16 -3l-29 24q-50 43 -74 60q-16 -9 -77 -53
l-45 -31l-16 3l-23 40q24 19 84.5 77z" />
    <glyph glyph-name="Scedilla" unicode="&#x15e;" horiz-adv-x="520" 
d="M109 -3.5q-39 8.5 -65 18.5t-26 11l-6 13q2 7 9 32t15 63t13 75l80 7q-4 -40 -4 -53q0 -51 21 -71t72 -20q50 0 81 24t31 63q0 31 -26 53.5t-78 50.5q-51 27 -81.5 48t-52.5 53t-22 75q0 61 35 109.5t97 76.5t140 28q42 0 80 -6t61.5 -12t29.5 -8l5 -12
q-5 -14 -18.5 -64.5t-24.5 -107.5l-73 -6l-8 7q1 6 4.5 23.5t3.5 29.5q0 36 -20.5 51.5t-65.5 15.5q-44 0 -73.5 -23t-29.5 -58q0 -25 18 -45t53 -40q12 -7 22.5 -12.5t18.5 -10.5q49 -27 79 -47.5t51.5 -51.5t21.5 -72q0 -64 -35 -113t-99.5 -76t-149.5 -27q-45 0 -84 8.5z
M270 29l-29 -73q37 -24 60 -45.5t23 -46.5q0 -27 -21 -50.5t-54 -37.5t-68 -14q-26 0 -48.5 12t-22.5 30q0 10 14 29t31 36h8q-2 -27 9.5 -41.5t33.5 -14.5q18 0 30 9t12 24q0 24 -74 68l45 115h51z" />
    <glyph glyph-name="scedilla" unicode="&#x15f;" horiz-adv-x="367" 
d="M93 90.5q24 -24.5 64 -24.5q25 0 41 13.5t16 33.5q0 19 -16 34.5t-48 37.5t-50 37.5t-31.5 38.5t-13.5 53q0 44 25 80.5t68 57.5t94 21q39 0 72 -11t52 -30q-21 -55 -47 -100h-19q-11 28 -31 43.5t-44 15.5q-20 0 -33.5 -12t-13.5 -30q0 -24 30 -47q9 -7 18 -13.5
t16 -11.5q45 -31 69 -58.5t24 -67.5q0 -44 -26.5 -81.5t-72 -59.5t-99.5 -22q-52 0 -89.5 16.5t-46.5 43.5q5 25 19.5 58t27.5 51l19 -1q2 -41 26 -65.5zM193 29l-29 -73q37 -24 60 -45.5t23 -46.5q0 -27 -21 -50.5t-54 -37.5t-68 -14q-26 0 -48.5 12t-22.5 30q0 10 14 29
t31 36h8q-2 -27 9.5 -41.5t33.5 -14.5q18 0 30 9t12 24q0 24 -74 68l45 115h51z" />
    <glyph glyph-name="Scaron" unicode="&#x160;" horiz-adv-x="520" 
d="M109 -3.5q-39 8.5 -65 18.5t-26 11l-6 13q2 7 9 32t15 63t13 75l80 7q-4 -40 -4 -53q0 -51 21 -71t72 -20q50 0 81 24t31 63q0 31 -26 53.5t-78 50.5q-51 27 -81.5 48t-52.5 53t-22 75q0 61 35 109.5t97 76.5t140 28q42 0 80 -6t61.5 -12t29.5 -8l5 -12
q-5 -14 -18.5 -64.5t-24.5 -107.5l-73 -6l-8 7q1 6 4.5 23.5t3.5 29.5q0 36 -20.5 51.5t-65.5 15.5q-44 0 -73.5 -23t-29.5 -58q0 -25 18 -45t53 -40q12 -7 22.5 -12.5t18.5 -10.5q49 -27 79 -47.5t51.5 -51.5t21.5 -72q0 -64 -35 -113t-99.5 -76t-149.5 -27q-45 0 -84 8.5z
M416 757.5q-61 -45.5 -81 -60.5h-19q-16 15 -65.5 60.5t-70.5 62.5l28 40l16 4q2 -1 54 -28l61 -31q12 5 75 34l54 25l15 -4l20 -40q-26 -17 -87 -62.5z" />
    <glyph glyph-name="scaron" unicode="&#x161;" horiz-adv-x="367" 
d="M93 90.5q24 -24.5 64 -24.5q25 0 41 13.5t16 33.5q0 19 -16 34.5t-48 37.5t-50 37.5t-31.5 38.5t-13.5 53q0 44 25 80.5t68 57.5t94 21q39 0 72 -11t52 -30q-21 -55 -47 -100h-19q-11 28 -31 43.5t-44 15.5q-20 0 -33.5 -12t-13.5 -30q0 -24 30 -47q9 -7 18 -13.5
t16 -11.5q45 -31 69 -58.5t24 -67.5q0 -44 -26.5 -81.5t-72 -59.5t-99.5 -22q-52 0 -89.5 16.5t-46.5 43.5q5 25 19.5 58t27.5 51l19 -1q2 -41 26 -65.5zM122 724q42 -39 105 -87q77 50 126 87l14 -4l25 -41q-50 -44 -102.5 -93.5t-67.5 -64.5h-19q-12 15 -52 64.5t-79 93.5
l34 41z" />
    <glyph glyph-name="uni0162" unicode="&#x162;" horiz-adv-x="548" 
d="M170.5 556.5q-23.5 -8.5 -34.5 -32.5t-25 -87l-81 -5q4 19 16 84t21 126l12 10l94 -11h301l99 11l10 -10q-7 -61 -11 -124t-5 -81l-80 -5q1 67 -4 91.5t-24.5 33t-72.5 10.5q-14 -77 -40 -252t-26 -201q0 -27 10.5 -38.5t34.5 -11.5q21 0 35 1t18 2l3 -5l-17 -66
q-19 1 -69 2.5t-98 1.5q-33 0 -88 -2.5t-73 -3.5l16 63q45 4 65 12.5t29 29t15 66.5l49 402q-56 -2 -79.5 -10.5zM284 29l-29 -73q37 -24 60 -45.5t23 -46.5q0 -27 -21 -50.5t-54 -37.5t-68 -14q-26 0 -48.5 12t-22.5 30q0 10 14 29t31 36h8q-2 -27 9.5 -41.5t33.5 -14.5
q18 0 30 9t12 24q0 24 -74 68l45 115h51z" />
    <glyph glyph-name="uni0163" unicode="&#x163;" horiz-adv-x="306" 
d="M297 121q-46 -58 -88.5 -95.5t-65.5 -37.5q-43 0 -67.5 21.5t-24.5 59.5q0 11 1 17l50 300l-7 6l-62 1l-3 5l6 46l76 12l15 116l125 35l10 -12q-3 -12 -14.5 -53.5t-21.5 -87.5l110 1l5 -5l-10 -56l-107 1l-12 -6l-49 -256l-1 -10q0 -22 22 -22q12 0 30.5 13t49.5 45
l17 -3zM162 29l-29 -73q37 -24 60 -45.5t23 -46.5q0 -27 -21 -50.5t-54 -37.5t-68 -14q-26 0 -48.5 12t-22.5 30q0 10 14 29t31 36h8q-2 -27 9.5 -41.5t33.5 -14.5q18 0 30 9t12 24q0 24 -74 68l45 115h51z" />
    <glyph glyph-name="Tcaron" unicode="&#x164;" horiz-adv-x="548" 
d="M170.5 556.5q-23.5 -8.5 -34.5 -32.5t-25 -87l-81 -5q4 19 16 84t21 126l12 10l94 -11h301l99 11l10 -10q-7 -61 -11 -124t-5 -81l-80 -5q1 67 -4 91.5t-24.5 33t-72.5 10.5q-14 -77 -40 -252t-26 -201q0 -27 10.5 -38.5t34.5 -11.5q21 0 35 1t18 2l3 -5l-17 -66
q-19 1 -69 2.5t-98 1.5q-33 0 -88 -2.5t-73 -3.5l16 63q45 4 65 12.5t29 29t15 66.5l49 402q-56 -2 -79.5 -10.5zM415 757.5q-61 -45.5 -81 -60.5h-19q-16 15 -65.5 60.5t-70.5 62.5l28 40l16 4q2 -1 54 -28l61 -31q12 5 75 34l54 25l15 -4l20 -40q-26 -17 -87 -62.5z" />
    <glyph glyph-name="tcaron" unicode="&#x165;" horiz-adv-x="376" 
d="M297 121q-46 -58 -88.5 -95.5t-65.5 -37.5q-43 0 -67.5 21.5t-24.5 59.5q0 11 1 17l50 300l-7 6l-62 1l-3 5l6 46l76 12l15 116l125 35l10 -12q-3 -12 -14.5 -53.5t-21.5 -87.5l110 1l5 -5l-10 -56l-107 1l-12 -6l-49 -256l-1 -10q0 -22 22 -22q12 0 30.5 13t49.5 45
l17 -3zM421.5 654.5q-17.5 -65.5 -40.5 -131.5l-49 -19l-14 4q11 71 16 141.5t5 85.5l100 14l5 -10q-5 -19 -22.5 -84.5z" />
    <glyph glyph-name="Tbar" unicode="&#x166;" horiz-adv-x="549" 
d="M583 642q-7 -61 -11 -124t-5 -81l-80 -5q1 67 -4 91.5t-24.5 33t-72.5 10.5q-14 -76 -39 -242l91 3l14 -14l-5 -45l-108 -1q-19 -130 -19 -154q0 -27 10.5 -38.5t34.5 -11.5q21 0 35 1t18 2l3 -5l-17 -66q-19 1 -69 2.5t-98 1.5q-33 0 -88 -2.5t-73 -3.5l16 63
q45 4 65 12.5t29 29t15 66.5l13 103l-99 -1l-10 9l7 48l108 -1l30 244q-56 -2 -79.5 -10.5t-34.5 -32.5t-25 -87l-81 -5q4 19 16 84t21 126l12 10l94 -11h301l99 11z" />
    <glyph glyph-name="tbar" unicode="&#x167;" horiz-adv-x="306" 
d="M212 389l-19 -98l93 4l14 -14l-4 -45l-113 -1l-20 -102l-1 -10q0 -22 22 -22q12 0 30.5 13t49.5 45l17 -3l16 -35q-46 -58 -88.5 -95.5t-65.5 -37.5q-43 0 -67.5 21.5t-24.5 59.5q0 11 1 17l25 149l-72 -1l-10 9l8 48l83 -1l16 96l-7 6l-62 1l-3 5l6 46l76 12l15 116
l125 35l10 -12q-3 -12 -14.5 -53.5t-21.5 -87.5l110 1l5 -5l-10 -56l-107 1z" />
    <glyph glyph-name="Umacron" unicode="&#x16a;" horiz-adv-x="633" 
d="M208 198q0 -61 26 -92.5t78 -31.5q120 0 136 136q9 77 20 176t15 139q1 10 1 24q0 18 -5.5 24t-19.5 6q-9 0 -19 -1t-14 -1l-1 4l16 63q12 0 45 -1.5t66 -1.5q31 0 68 3t48 4l-14 -64q-37 -7 -48.5 -16.5t-14.5 -34.5l-39 -314q-14 -113 -83 -172t-188 -59
q-101 0 -152.5 44.5t-51.5 130.5q0 20 3 42l39 320q2 20 2 26q0 16 -6 22t-21 6q-9 0 -18.5 -1t-12.5 -1l-1 4l16 63q14 -1 53 -2t83 -1q25 0 64 3t51 4l-14 -65q-32 -5 -44.5 -16t-16.5 -38l-43 -291q-3 -21 -3 -40zM515 710l-136 -1l-134 -1l-9 11l23 74l148 -1
q30 0 70.5 2.5t52.5 3.5l7 -13z" />
    <glyph glyph-name="umacron" unicode="&#x16b;" horiz-adv-x="507" 
d="M495 116q-71 -73 -108 -100.5t-65 -27.5q-42 0 -42 37q0 21 36 177l-8 2q-77 -159 -153 -215q-52 0 -81.5 25.5t-29.5 69.5q0 19 9 53.5t26 95.5q31 105 31 127q0 18 -9 26.5t-29 8.5h-35l10 58q57 0 189 8l12 -15q-39 -117 -63 -203t-24 -106q0 -15 5 -22t18 -7
q22 0 64.5 69t91.5 185l15 95l14 7l100 -5l10 -14q-23 -73 -45 -166.5t-33 -163.5l3 -4q8 2 19.5 10.5t38.5 31.5l17 -2zM430 572l-136 -1l-134 -1l-9 11l23 74l148 -1q31 0 71.5 2.5t52.5 3.5l6 -14z" />
    <glyph glyph-name="Ubreve" unicode="&#x16c;" horiz-adv-x="633" 
d="M208 198q0 -61 26 -92.5t78 -31.5q120 0 136 136q9 77 20 176t15 139q1 10 1 24q0 18 -5.5 24t-19.5 6q-9 0 -19 -1t-14 -1l-1 4l16 63q12 0 45 -1.5t66 -1.5q31 0 68 3t48 4l-14 -64q-37 -7 -48.5 -16.5t-14.5 -34.5l-39 -314q-14 -113 -83 -172t-188 -59
q-101 0 -152.5 44.5t-51.5 130.5q0 20 3 42l39 320q2 20 2 26q0 16 -6 22t-21 6q-9 0 -18.5 -1t-12.5 -1l-1 4l16 63q14 -1 53 -2t83 -1q25 0 64 3t51 4l-14 -65q-32 -5 -44.5 -16t-16.5 -38l-43 -291q-3 -21 -3 -40zM448.5 813q28.5 17 45.5 51l17 -3l22 -34
q-20 -53 -60.5 -88.5t-97.5 -35.5q-58 0 -89 35.5t-39 88.5l30 34l17 3q10 -34 34 -51t58 -17t62.5 17z" />
    <glyph glyph-name="ubreve" unicode="&#x16d;" horiz-adv-x="507" 
d="M495 116q-71 -73 -108 -100.5t-65 -27.5q-42 0 -42 37q0 21 36 177l-8 2q-77 -159 -153 -215q-52 0 -81.5 25.5t-29.5 69.5q0 19 9 53.5t26 95.5q31 105 31 127q0 18 -9 26.5t-29 8.5h-35l10 58q57 0 189 8l12 -15q-39 -117 -63 -203t-24 -106q0 -15 5 -22t18 -7
q22 0 64.5 69t91.5 185l15 95l14 7l100 -5l10 -14q-23 -73 -45 -166.5t-33 -163.5l3 -4q8 2 19.5 10.5t38.5 31.5l17 -2zM358.5 633q28.5 17 45.5 51l17 -3l22 -34q-20 -53 -60.5 -88.5t-97.5 -35.5q-58 0 -89 35.5t-39 88.5l30 34l17 3q10 -34 34 -51t58 -17t62.5 17z" />
    <glyph glyph-name="Uring" unicode="&#x16e;" horiz-adv-x="633" 
d="M208 198q0 -61 26 -92.5t78 -31.5q120 0 136 136q9 77 20 176t15 139q1 10 1 24q0 18 -5.5 24t-19.5 6q-9 0 -19 -1t-14 -1l-1 4l16 63q12 0 45 -1.5t66 -1.5q31 0 68 3t48 4l-14 -64q-37 -7 -48.5 -16.5t-14.5 -34.5l-39 -314q-14 -113 -83 -172t-188 -59
q-101 0 -152.5 44.5t-51.5 130.5q0 20 3 42l39 320q2 20 2 26q0 16 -6 22t-21 6q-9 0 -18.5 -1t-12.5 -1l-1 4l16 63q14 -1 53 -2t83 -1q25 0 64 3t51 4l-14 -65q-32 -5 -44.5 -16t-16.5 -38l-43 -291q-3 -21 -3 -40zM316.5 699q-19.5 21 -19.5 56q0 46 30 76.5t76 30.5
q39 0 57.5 -21t18.5 -53q0 -44 -29.5 -77t-77.5 -33q-36 0 -55.5 21zM415 739q14 9 14 33q0 17 -10.5 26.5t-29.5 9.5q-20 0 -31 -11t-11 -30q0 -18 12 -27.5t26 -9.5q16 0 30 9z" />
    <glyph glyph-name="uring" unicode="&#x16f;" horiz-adv-x="507" 
d="M495 116q-71 -73 -108 -100.5t-65 -27.5q-42 0 -42 37q0 21 36 177l-8 2q-77 -159 -153 -215q-52 0 -81.5 25.5t-29.5 69.5q0 19 9 53.5t26 95.5q31 105 31 127q0 18 -9 26.5t-29 8.5h-35l10 58q57 0 189 8l12 -15q-39 -117 -63 -203t-24 -106q0 -15 5 -22t18 -7
q22 0 64.5 69t91.5 185l15 95l14 7l100 -5l10 -14q-23 -73 -45 -166.5t-33 -163.5l3 -4q8 2 19.5 10.5t38.5 31.5l17 -2zM259.5 553q-19.5 21 -19.5 57q0 45 30 76t76 31q39 0 57.5 -21.5t18.5 -53.5q0 -44 -29.5 -77t-77.5 -33q-36 0 -55.5 21zM357.5 593.5
q13.5 8.5 13.5 32.5q0 18 -10 27.5t-29 9.5q-21 0 -32 -11t-11 -30t12 -28t27 -9q16 0 29.5 8.5z" />
    <glyph glyph-name="Uhungarumlaut" unicode="&#x170;" horiz-adv-x="633" 
d="M208 198q0 -61 26 -92.5t78 -31.5q120 0 136 136q9 77 20 176t15 139q1 10 1 24q0 18 -5.5 24t-19.5 6q-9 0 -19 -1t-14 -1l-1 4l16 63q12 0 45 -1.5t66 -1.5q31 0 68 3t48 4l-14 -64q-37 -7 -48.5 -16.5t-14.5 -34.5l-39 -314q-14 -113 -83 -172t-188 -59
q-101 0 -152.5 44.5t-51.5 130.5q0 20 3 42l39 320q2 20 2 26q0 16 -6 22t-21 6q-9 0 -18.5 -1t-12.5 -1l-1 4l16 63q14 -1 53 -2t83 -1q25 0 64 3t51 4l-14 -65q-32 -5 -44.5 -16t-16.5 -38l-43 -291q-3 -21 -3 -40zM374 746q-51 -28 -103 -61l-13 5l-22 33q46 39 92 80
t59 53l12 -2l42 -60l-2 -12q-14 -8 -65 -36zM540 740.5q-51 -28.5 -103 -60.5l-12 5l-23 33q46 39 92 80t59 53l12 -2l42 -60l-2 -12q-14 -8 -65 -36.5z" />
    <glyph glyph-name="uhungarumlaut" unicode="&#x171;" horiz-adv-x="507" 
d="M495 116q-71 -73 -108 -100.5t-65 -27.5q-42 0 -42 37q0 21 36 177l-8 2q-77 -159 -153 -215q-52 0 -81.5 25.5t-29.5 69.5q0 19 9 53.5t26 95.5q31 105 31 127q0 18 -9 26.5t-29 8.5h-35l10 58q57 0 189 8l12 -15q-39 -117 -63 -203t-24 -106q0 -15 5 -22t18 -7
q22 0 64.5 69t91.5 185l15 95l14 7l100 -5l10 -14q-23 -73 -45 -166.5t-33 -163.5l3 -4q8 2 19.5 10.5t38.5 31.5l17 -2zM300 614.5q-45 -39.5 -91 -83.5l-14 1l-30 27q38 49 76 100t49 66h11l56 -49l1 -11q-13 -11 -58 -50.5zM443.5 614.5q-44.5 -39.5 -90.5 -83.5l-14 1
l-31 27q46 59 80.5 105t45.5 61h11l56 -49v-11q-13 -11 -57.5 -50.5z" />
    <glyph glyph-name="Uogonek" unicode="&#x172;" horiz-adv-x="631" 
d="M620 644q37 3 48 4l-14 -64q-27 -6 -39.5 -11.5t-17 -14t-6.5 -25.5l-39 -314q-9 -68 -40.5 -118t-84.5 -108q-38 -42 -55 -67t-17 -52q0 -18 10.5 -28t27.5 -10q18 0 38.5 8t30.5 15l18 -32q-69 -55 -108 -68q-52 0 -81 23t-29 63q0 29 21 64t72 87q-37 -8 -74 -8
q-101 0 -152.5 44.5t-51.5 130.5q0 20 3 42l39 320q2 22 2 26q0 17 -6 22.5t-21 5.5q-9 0 -18.5 -1t-12.5 -1l-1 4l16 63q14 -1 53 -2t83 -1q25 0 64 3t51 4l-14 -65q-32 -5 -44.5 -16t-16.5 -38l-43 -291q-3 -22 -3 -40q0 -61 26.5 -92.5t77.5 -31.5q118 0 136 136
q9 77 20 176t15 139q1 10 1 24q0 18 -5.5 24t-19.5 6q-9 0 -19 -1t-14 -1l-1 4l16 63q12 0 45 -1.5t66 -1.5q31 0 68 3z" />
    <glyph glyph-name="uogonek" unicode="&#x173;" horiz-adv-x="506" 
d="M399.5 -156q20.5 8 30.5 15l18 -32q-69 -55 -108 -68q-51 0 -80.5 22.5t-29.5 63.5q0 30 20 63t64 81q-34 4 -34 36q0 21 36 177l-8 2q-77 -159 -153 -215q-52 0 -81.5 25.5t-29.5 69.5q0 19 9 53.5t26 95.5q31 105 31 127q0 18 -9 26.5t-29 8.5h-35l10 58q57 0 189 8
l12 -15q-39 -117 -63 -203t-24 -106q0 -15 5 -22t18 -7q22 0 64.5 69t91.5 185l15 95l14 7l100 -5l10 -14q-23 -73 -45 -166.5t-33 -163.5l3 -4q8 2 19.5 10.5t38.5 31.5l17 -2l16 -35l-18 -19q-85 -93 -119.5 -139.5t-34.5 -83.5q0 -17 10.5 -27.5t27.5 -10.5q18 0 38.5 8z
" />
    <glyph glyph-name="Wcircumflex" unicode="&#x174;" horiz-adv-x="928" 
d="M483 345h-9l-144 -340l-154 -20q-7 56 -30 233.5t-42 299.5q-6 31 -20 45t-42 16l-4 7l15 58q12 -1 46.5 -2t69.5 -1q48 0 96 3.5t62 5.5l4 -8l-12 -58q-48 -5 -64.5 -15t-16.5 -33q0 -43 15.5 -199t21.5 -210h13q16 39 30.5 73.5t26.5 62.5q22 53 95 227l2 21q0 9 -2 14
t-3 8q-3 26 -16.5 35.5t-47.5 10.5l-3 7l15 58q14 0 53 -1.5t77 -1.5q45 0 94 3.5t64 5.5l3 -8l-12 -58q-49 -4 -65.5 -14t-16.5 -33q0 -41 16 -198t22 -212h13q56 130 113.5 270.5t57.5 157.5q0 14 -10 19.5t-35 5.5h-34l-4 7l15 60q13 -1 57 -3.5t80 -2.5q37 0 67.5 1
t40.5 2l-15 -64q-22 -4 -33 -13.5t-24 -37.5l-233 -524l-153 -20zM458 813.5q61 45.5 81 60.5h19q1 2 26 -21.5t33 -31.5q31 -29 78 -70l-29 -40l-16 -4l-38 20q-72 37 -77 39q-12 -5 -75 -34l-54 -25l-15 4l-19 40q25 17 86 62.5z" />
    <glyph glyph-name="wcircumflex" unicode="&#x175;" horiz-adv-x="680" 
d="M319 302l-20 133l8 14l99 24q15 -13 23.5 -35.5t8.5 -48.5q0 -16 -3 -31t-12 -39l20 -222h13q100 181 100 247q0 23 -13.5 43t-36.5 31l7 31l130 24q14 -13 22.5 -36.5t8.5 -51.5q0 -104 -197 -391l-96 -5l-17 15l-17 170h-8q-40 -81 -100 -180l-105 -5l-17 15
q-4 80 -15 181t-23 173q-4 20 -11 27.5t-23 7.5q-4 0 -43 -3l4 56l175 21l11 -10q18 -157 18 -360h12q68 121 97 205zM324.5 640q60.5 58 80.5 78h20q16 -20 62.5 -78t65.5 -77l-33 -40l-16 -3l-29 24q-50 43 -74 60q-16 -9 -77 -53l-45 -31l-16 3l-23 40q24 19 84.5 77z
" />
    <glyph glyph-name="Ycircumflex" unicode="&#x176;" horiz-adv-x="574" 
d="M277 454q23 -78 27 -90l7 -23h9l99 172q19 32 19 49q0 11 -9.5 16t-34.5 6l-2 5l14 56l47 -2q52 -2 80 -2t59 1.5t40 2.5l3 -7l-14 -59q-41 -12 -67 -38.5t-66 -89.5l-114 -178q-14 -22 -19.5 -43.5t-13.5 -76.5l-3 -23q-2 -20 -2 -27q0 -22 8.5 -30.5t30.5 -8.5
q17 0 30.5 1t17.5 2l3 -5l-16 -66q-18 1 -65.5 2.5t-92.5 1.5q-34 0 -84 -4.5t-66 -6.5l15 65q39 6 58 15.5t27.5 27.5t12.5 53l4 32q2 20 2 27q0 32 -17 77l-71 190q-18 51 -36.5 72.5t-60.5 29.5l-3 5l16 61q14 0 51 -1.5t72 -1.5q31 0 84.5 3.5t70.5 4.5l4 -9l-13 -55
q-37 -3 -50.5 -10t-13.5 -23q0 -20 23 -98zM296 813.5q61 45.5 81 60.5h19q1 2 26 -21.5t33 -31.5q31 -29 78 -70l-29 -40l-16 -4l-38 20q-72 37 -77 39q-12 -5 -75 -34l-54 -25l-15 4l-19 40q25 17 86 62.5z" />
    <glyph glyph-name="ycircumflex" unicode="&#x177;" horiz-adv-x="456" 
d="M420 473q14 -12 22 -35t8 -51q0 -107 -186 -375q-92 -132 -158 -191t-121 -59q-33 0 -58.5 13t-32.5 34q13 57 39 95l15 1q35 -41 69 -41q26 0 55 21.5t65 65.5q-25 264 -48 407q-4 20 -12 27.5t-24 7.5q-1 0 -40 -3l4 56l174 21l11 -10q14 -128 14 -330v-41h12
q49 86 77 154t28 103q0 23 -13 42.5t-36 32.5l7 31zM204.5 640q60.5 58 80.5 78h20q16 -20 62.5 -78t65.5 -77l-33 -40l-16 -3l-29 24q-50 43 -74 60q-16 -9 -77 -53l-45 -31l-16 3l-23 40q24 19 84.5 77z" />
    <glyph glyph-name="Ydieresis" unicode="&#x178;" horiz-adv-x="574" 
d="M277 454q23 -78 27 -90l7 -23h9l99 172q19 32 19 49q0 11 -9.5 16t-34.5 6l-2 5l14 56l47 -2q52 -2 80 -2t59 1.5t40 2.5l3 -7l-14 -59q-41 -12 -67 -38.5t-66 -89.5l-114 -178q-14 -22 -19.5 -43.5t-13.5 -76.5l-3 -23q-2 -20 -2 -27q0 -22 8.5 -30.5t30.5 -8.5
q17 0 30.5 1t17.5 2l3 -5l-16 -66q-18 1 -65.5 2.5t-92.5 1.5q-34 0 -84 -4.5t-66 -6.5l15 65q39 6 58 15.5t27.5 27.5t12.5 53l4 32q2 20 2 27q0 32 -17 77l-71 190q-18 51 -36.5 72.5t-60.5 29.5l-3 5l16 61q14 0 51 -1.5t72 -1.5q31 0 84.5 3.5t70.5 4.5l4 -9l-13 -55
q-37 -3 -50.5 -10t-13.5 -23q0 -20 23 -98zM233.5 721q-12.5 14 -12.5 37q0 33 20.5 54t53.5 21q24 0 37 -14t13 -37q0 -33 -20.5 -54t-53.5 -21q-25 0 -37.5 14zM406 721q-13 14 -13 37q0 32 21 53.5t53 21.5q24 0 37.5 -14t13.5 -37q0 -32 -21 -53.5t-53 -21.5
q-25 0 -38 14z" />
    <glyph glyph-name="Zacute" unicode="&#x179;" horiz-adv-x="559" 
d="M88 3l-74 -8l-18 43l404 532l-125 -8q-43 -3 -66.5 -14.5t-37 -37t-22.5 -74.5l-82 -6q5 20 19.5 88t22.5 126l12 9l170 -11l281 -3l12 -40q-180 -218 -412 -528l151 11q49 4 79.5 39.5t52.5 113.5l81 7q-3 -10 -11.5 -43.5t-20.5 -86.5t-19 -96l-19 -19zM401.5 732
q-68.5 -19 -139.5 -42l-13 9l-13 45q67 30 134.5 62.5t87.5 42.5l12 -6l25 -75l-5 -12q-20 -5 -88.5 -24z" />
    <glyph glyph-name="zacute" unicode="&#x17a;" horiz-adv-x="423" 
d="M62.5 358.5q13.5 54.5 21.5 104.5l27 10q25 -4 98.5 -15.5t103.5 -11.5q17 0 26 3.5t19 14.5l20 24l55 -33l4 -19q-163 -177 -286 -324l26 5q12 0 31.5 -3t26.5 -4q44 -8 63 -8q25 0 43.5 19.5t25.5 54.5l23 -1q13 -31 13 -65q0 -51 -32 -86.5t-78 -35.5q-19 0 -38 5.5
t-47 16.5q-33 12 -52 17.5t-41 5.5q-24 0 -51.5 -9t-53.5 -25l-19 30l277 331l-74 1q-42 0 -62.5 -14.5t-32.5 -52.5l-54 -6q4 16 17.5 70.5zM296 604q-57 -38 -115 -81l-15 4l-29 38q51 49 102 101.5t65 68.5l13 -1l53 -68l-1 -14q-16 -10 -73 -48z" />
    <glyph glyph-name="Zdotaccent" unicode="&#x17b;" horiz-adv-x="559" 
d="M88 3l-74 -8l-18 43l404 532l-125 -8q-43 -3 -66.5 -14.5t-37 -37t-22.5 -74.5l-82 -6q5 20 19.5 88t22.5 126l12 9l170 -11l281 -3l12 -40q-180 -218 -412 -528l151 11q49 4 79.5 39.5t52.5 113.5l81 7q-3 -10 -11.5 -43.5t-20.5 -86.5t-19 -96l-19 -19zM308.5 719.5
q-15.5 16.5 -15.5 44.5q0 39 24.5 64t63.5 25q28 0 44 -17t16 -44q0 -39 -24.5 -64t-62.5 -25q-30 0 -45.5 16.5z" />
    <glyph glyph-name="zdotaccent" unicode="&#x17c;" horiz-adv-x="423" 
d="M62.5 358.5q13.5 54.5 21.5 104.5l27 10q25 -4 98.5 -15.5t103.5 -11.5q17 0 26 3.5t19 14.5l20 24l55 -33l4 -19q-163 -177 -286 -324l26 5q12 0 31.5 -3t26.5 -4q44 -8 63 -8q25 0 43.5 19.5t25.5 54.5l23 -1q13 -31 13 -65q0 -51 -32 -86.5t-78 -35.5q-19 0 -38 5.5
t-47 16.5q-33 12 -52 17.5t-41 5.5q-24 0 -51.5 -9t-53.5 -25l-19 30l277 331l-74 1q-42 0 -62.5 -14.5t-32.5 -52.5l-54 -6q4 16 17.5 70.5zM203.5 572.5q-15.5 16.5 -15.5 44.5q0 38 25 63.5t62 25.5q29 0 45 -17t16 -44q0 -38 -25 -63.5t-63 -25.5q-29 0 -44.5 16.5z" />
    <glyph glyph-name="Zcaron" unicode="&#x17d;" horiz-adv-x="559" 
d="M88 3l-74 -8l-18 43l404 532l-125 -8q-43 -3 -66.5 -14.5t-37 -37t-22.5 -74.5l-82 -6q5 20 19.5 88t22.5 126l12 9l170 -11l281 -3l12 -40q-180 -218 -412 -528l151 11q49 4 79.5 39.5t52.5 113.5l81 7q-3 -10 -11.5 -43.5t-20.5 -86.5t-19 -96l-19 -19zM441 757.5
q-61 -45.5 -81 -60.5h-19q-16 15 -65.5 60.5t-70.5 62.5l28 40l16 4q2 -1 54 -28l61 -31q12 5 75 34l54 25l15 -4l20 -40q-26 -17 -87 -62.5z" />
    <glyph glyph-name="zcaron" unicode="&#x17e;" horiz-adv-x="423" 
d="M62.5 358.5q13.5 54.5 21.5 104.5l27 10q25 -4 98.5 -15.5t103.5 -11.5q17 0 26 3.5t19 14.5l20 24l55 -33l4 -19q-163 -177 -286 -324l26 5q12 0 31.5 -3t26.5 -4q44 -8 63 -8q25 0 43.5 19.5t25.5 54.5l23 -1q13 -31 13 -65q0 -51 -32 -86.5t-78 -35.5q-19 0 -38 5.5
t-47 16.5q-33 12 -52 17.5t-41 5.5q-24 0 -51.5 -9t-53.5 -25l-19 30l277 331l-74 1q-42 0 -62.5 -14.5t-32.5 -52.5l-54 -6q4 16 17.5 70.5zM150 724q42 -39 105 -87q77 50 126 87l14 -4l25 -41q-50 -44 -102.5 -93.5t-67.5 -64.5h-19q-12 15 -52 64.5t-79 93.5l34 41z" />
    <glyph glyph-name="uni018F" unicode="&#x18f;" horiz-adv-x="633" 
d="M496 616.5q61 -35.5 94.5 -100t33.5 -147.5q0 -22 -3 -45q-11 -96 -60.5 -172.5t-126.5 -120t-168 -43.5q-117 0 -182 69.5t-65 192.5q0 24 3 51h1l10 17h441q1 12 1 34q0 94 -42.5 143t-123.5 49q-41 0 -92 -12t-95 -31l-11 5l-13 51q86 54 142.5 74.5t115.5 20.5
q79 0 140 -35.5zM402 119.5q46 50.5 64 138.5l-301 -7q3 -89 36 -135.5t92 -46.5q63 0 109 50.5z" />
    <glyph glyph-name="florin" unicode="&#x192;" horiz-adv-x="392" 
d="M134 289q-5 7 -20 9.5t-48 3.5l-3 6l7 45l76 12l5 59q2 45 31.5 85t75.5 64.5t96 24.5q36 0 65.5 -9t29.5 -21q0 -15 -9.5 -49.5t-17.5 -46.5l-16 -1q-40 55 -86 55q-33 0 -44 -26t-16 -80l-5 -58l123 2l4 -5l-10 -60l-122 1l-20 -267q-4 -51 -30 -96t-67.5 -71.5
t-90.5 -26.5q-31 0 -59.5 13t-28.5 28q0 18 10 49.5t20 42.5h14q8 -27 28 -45t44 -18t37.5 20.5t15.5 67.5l17 268q-1 17 -6 24z" />
    <glyph glyph-name="Ohorn" unicode="&#x1a0;" horiz-adv-x="676" 
d="M703 643q-21 -32 -54.5 -51.5t-66.5 -19.5q59 -70 59 -183q0 -116 -45 -207.5t-126 -142.5t-185 -51q-76 0 -133 32.5t-88 92.5t-31 142q0 116 44.5 206.5t124.5 141.5t184 51h1q37 0 62 -5.5t52 -15.5q31 -11 49 -11q26 0 43 15t17 39q0 15 -6 30.5t-16 26.5l4 14
q44 34 76 34q26 0 41 -19t15 -51q0 -36 -21 -68zM442 150q48 79 48 220q0 90 -36 140.5t-98 50.5q-53 0 -92.5 -35.5t-61 -103t-21.5 -160.5q0 -90 34.5 -140.5t95.5 -50.5q83 0 131 79z" />
    <glyph glyph-name="ohorn" unicode="&#x1a1;" horiz-adv-x="461" 
d="M73 28.5q-37 40.5 -43 111.5q-2 20 -2 31q0 85 32 154t87 108.5t122 39.5q31 0 72 -15q25 -9 38 -9q19 0 30 12t11 33q0 16 -8.5 33t-22.5 31l3 14q32 27 58 30q12 2 19 2q28 0 45 -22.5t17 -59.5q0 -31 -19.5 -59.5t-51 -46.5t-65.5 -19q22 -41 22 -91q0 -89 -32.5 -162
t-89 -114.5t-126.5 -41.5q-59 0 -96 40.5zM271 118.5q23 52.5 23 144.5q0 123 -61 123q-38 0 -62 -52t-24 -135q0 -62 16.5 -97.5t45.5 -35.5q39 0 62 52.5z" />
    <glyph glyph-name="Uhorn" unicode="&#x1af;" horiz-adv-x="657" 
d="M714.5 774q15.5 -17 15.5 -45q0 -44 -18 -71.5t-56 -49.5q-36 -20 -48.5 -33t-16.5 -42l-39 -314q-14 -113 -83 -172t-188 -59q-101 0 -152.5 44.5t-51.5 130.5q0 20 3 42l39 320q2 20 2 26q0 16 -6 22t-21 6q-9 0 -18.5 -1t-12.5 -1l-1 4l16 63q14 -1 53 -2t83 -1
q25 0 64 3t51 4l-14 -65q-32 -5 -44.5 -16t-16.5 -38l-43 -291q-3 -21 -3 -40q0 -61 26 -92.5t78 -31.5q120 0 136 136q9 77 20 176t15 139q1 10 1 24q0 18 -5.5 24t-19.5 6q-9 0 -19 -1t-14 -1l-1 4l16 63q13 0 48.5 -1t69.5 -1q31 0 44 12.5t13 36.5q0 14 -6 28t-16 24
l4 14q20 16 40 25t35 9q26 0 41.5 -17z" />
    <glyph glyph-name="uhorn" unicode="&#x1b0;" horiz-adv-x="506" 
d="M524.5 472.5q-18.5 -24.5 -49.5 -39.5q-22 -75 -43 -163t-31 -155l3 -4q8 2 19.5 10.5t38.5 31.5l17 -2l16 -35q-71 -73 -108 -100.5t-65 -27.5q-42 0 -42 37q0 21 36 177l-8 2q-77 -159 -153 -215q-52 0 -81.5 25.5t-29.5 69.5q0 19 9 53.5t26 95.5q31 105 31 127
q0 18 -9 26.5t-29 8.5h-35l10 58q57 0 189 8l12 -15q-39 -117 -63 -203t-24 -106q0 -15 5 -22t18 -7q22 0 64.5 69t91.5 185l15 95l14 7q63 6 63 40q0 15 -8.5 30t-22.5 26l3 14q30 27 58 30q6 2 17 2q10 0 14 -1q23 -4 36.5 -26t13.5 -55q0 -27 -18.5 -51.5z" />
    <glyph glyph-name="uni01C4" unicode="&#x1c4;" horiz-adv-x="1227" 
d="M217.5 -5q-49.5 5 -83.5 5q-32 0 -72.5 -4t-53.5 -6l15 65q42 8 58.5 25t22.5 60l47 384q2 20 2 25q0 16 -5.5 22.5t-19.5 6.5q-11 0 -20.5 -1t-12.5 -1l-4 9l14 59q14 0 50.5 -1.5t71.5 -1.5q28 0 78 2t66 3q88 0 152.5 -31t99.5 -89t35 -138q0 -113 -49 -204
t-134.5 -143.5t-191.5 -52.5q-16 2 -65.5 7zM297 560q-6 -5 -9 -20q-63 -387 -63 -416q0 -31 16.5 -42.5t58.5 -11.5q64 0 110.5 37t72 106t25.5 162q0 190 -190 190q-15 0 -21 -5zM756 3l-74 -8l-18 43l404 532l-125 -8q-43 -3 -66.5 -14.5t-37 -37t-22.5 -74.5l-82 -6
q5 20 19.5 88t22.5 126l12 9l170 -11l281 -3l12 -40q-180 -218 -412 -528l151 11q49 4 79.5 39.5t52.5 113.5l81 7q-3 -10 -11.5 -43.5t-20.5 -86.5t-19 -96l-19 -19zM1109 757.5q-61 -45.5 -81 -60.5h-19q-16 15 -65.5 60.5t-70.5 62.5l28 40l16 4q2 -1 54 -28l61 -31
q12 5 75 34l54 25l15 -4l20 -40q-26 -17 -87 -62.5z" />
    <glyph glyph-name="uni01C5" unicode="&#x1c5;" horiz-adv-x="1091" 
d="M217.5 -5q-49.5 5 -83.5 5q-32 0 -72.5 -4t-53.5 -6l15 65q42 8 58.5 25t22.5 60l47 384q2 20 2 25q0 16 -5.5 22.5t-19.5 6.5q-11 0 -20.5 -1t-12.5 -1l-4 9l14 59q14 0 50.5 -1.5t71.5 -1.5q28 0 78 2t66 3q88 0 152.5 -31t99.5 -89t35 -138q0 -113 -49 -204
t-134.5 -143.5t-191.5 -52.5q-16 2 -65.5 7zM297 560q-6 -5 -9 -20q-63 -387 -63 -416q0 -31 16.5 -42.5t58.5 -11.5q64 0 110.5 37t72 106t25.5 162q0 190 -190 190q-15 0 -21 -5zM730.5 358.5q13.5 54.5 21.5 104.5l27 10q25 -4 98.5 -15.5t103.5 -11.5q17 0 26 3.5
t19 14.5l20 24l55 -33l4 -19q-163 -177 -286 -324l26 5q12 0 31.5 -3t26.5 -4q44 -8 63 -8q25 0 43.5 19.5t25.5 54.5l23 -1q13 -31 13 -65q0 -51 -32 -86.5t-78 -35.5q-19 0 -38 5.5t-47 16.5q-33 12 -52 17.5t-41 5.5q-24 0 -51.5 -9t-53.5 -25l-19 30l277 331l-74 1
q-42 0 -62.5 -14.5t-32.5 -52.5l-54 -6q4 16 17.5 70.5zM818 724q42 -39 105 -87q77 50 126 87l14 -4l25 -41q-50 -44 -102.5 -93.5t-67.5 -64.5h-19q-12 15 -52 64.5t-79 93.5l34 41z" />
    <glyph glyph-name="uni01C6" unicode="&#x1c6;" horiz-adv-x="916" 
d="M403.5 113q13.5 11 47.5 40l17 -2l16 -35q-71 -74 -107.5 -101t-64.5 -27q-43 0 -43 38q0 17 35 169l-8 1q-44 -80 -82.5 -129.5t-79.5 -78.5q-53 0 -82.5 38.5t-29.5 106.5q0 79 35.5 156.5t91.5 126.5t113 49l70 -15l24 177q1 4 1 11q0 17 -9 25t-29 8h-35l8 57
q47 0 109.5 3.5t81.5 5.5l12 -16q-6 -31 -26 -130.5t-47 -246t-41 -238.5l3 -4q6 0 19.5 11zM233 179q46 77 86 180q-17 11 -42 20t-46 9t-41.5 -29t-33.5 -75.5t-13 -94.5q0 -38 6 -62.5t16 -24.5q22 0 68 77zM555.5 358.5q13.5 54.5 21.5 104.5l27 10q25 -4 98.5 -15.5
t103.5 -11.5q17 0 26 3.5t19 14.5l20 24l55 -33l4 -19q-163 -177 -286 -324l26 5q12 0 31.5 -3t26.5 -4q44 -8 63 -8q25 0 43.5 19.5t25.5 54.5l23 -1q13 -31 13 -65q0 -51 -32 -86.5t-78 -35.5q-19 0 -38 5.5t-47 16.5q-33 12 -52 17.5t-41 5.5q-24 0 -51.5 -9t-53.5 -25
l-19 30l277 331l-74 1q-42 0 -62.5 -14.5t-32.5 -52.5l-54 -6q4 16 17.5 70.5zM643 724q42 -39 105 -87q77 50 126 87l14 -4l25 -41q-50 -44 -102.5 -93.5t-67.5 -64.5h-19q-12 15 -52 64.5t-79 93.5l34 41z" />
    <glyph glyph-name="uni01C7" unicode="&#x1c7;" horiz-adv-x="831" 
d="M75 -4q-49 -4 -63 -6l16 65q37 6 53 24.5t21 61.5l48 386q1 8 1 21q0 18 -6.5 24.5t-23.5 6.5l-29 -1l-4 8l14 57q27 0 47 -1l83 -1q28 0 79.5 3.5t68.5 4.5l-15 -67q-33 -5 -47.5 -11t-22 -20t-13.5 -46q-16 -83 -37 -223.5t-21 -165.5t11.5 -33.5t43.5 -8.5
q48 0 73 11.5t40 42t31 97.5l81 8l6 -9q-5 -18 -21.5 -84t-32.5 -138l-10 -10q-26 1 -112 4.5t-157 3.5q-53 0 -102 -4zM654 550q0 17 -6.5 23t-22.5 6q-12 0 -24 -1.5t-17 -1.5l-3 8l13 57h119q41 1 86.5 4.5t59.5 4.5l-13 -65q-32 -6 -42.5 -15.5t-15.5 -39.5
q-12 -67 -33 -207t-32 -220q-13 -100 -68 -160.5t-162 -94.5l-22 39l3 11q44 28 68.5 55.5t38 66t21.5 102.5l50 405q2 18 2 23z" />
    <glyph glyph-name="uni01C8" unicode="&#x1c8;" horiz-adv-x="781" 
d="M75 -4q-49 -4 -63 -6l16 65q37 6 53 24.5t21 61.5l48 386q1 8 1 21q0 18 -6.5 24.5t-23.5 6.5l-29 -1l-4 8l14 57q27 0 47 -1l83 -1q28 0 79.5 3.5t68.5 4.5l-15 -67q-33 -5 -47.5 -11t-22 -20t-13.5 -46q-16 -83 -37 -223.5t-21 -165.5t11.5 -33.5t43.5 -8.5
q48 0 73 11.5t40 42t31 97.5l81 8l6 -9q-5 -18 -21.5 -84t-32.5 -138l-10 -10q-26 1 -112 4.5t-157 3.5q-53 0 -102 -4zM655.5 588q-15.5 16 -15.5 43q0 40 24.5 64.5t62.5 24.5q27 0 42 -15.5t15 -42.5q0 -39 -24.5 -64.5t-61.5 -25.5q-27 0 -42.5 16zM610.5 -137.5
q-50.5 -65.5 -135.5 -106.5l-27 30l3 11q57 42 82 92t38 147q8 45 28.5 172.5t20.5 147.5t-9 29.5t-30 9.5h-35l10 58q46 0 107.5 3.5t80.5 4.5l13 -15q-4 -17 -18.5 -79t-33 -157t-32.5 -192q-12 -90 -62.5 -155.5z" />
    <glyph glyph-name="uni01C9" unicode="&#x1c9;" horiz-adv-x="538" 
d="M179 114q15 12 46 39l17 -2l16 -35q-65 -69 -104.5 -98.5t-67.5 -29.5q-46 0 -46 46q0 14 40 264q51 310 51 336q0 19 -9 28t-29 9h-35l9 57q46 0 108.5 3.5t81.5 5.5l12 -16q-7 -31 -29 -139.5t-47.5 -245.5t-38.5 -230l4 -4q6 0 21 12zM412.5 588q-15.5 16 -15.5 43
q0 40 24.5 64.5t62.5 24.5q27 0 42 -15.5t15 -42.5q0 -39 -24.5 -64.5t-61.5 -25.5q-27 0 -42.5 16zM367.5 -137.5q-50.5 -65.5 -135.5 -106.5l-27 30l3 11q57 42 82 92t38 147q8 45 28.5 172.5t20.5 147.5t-9 29.5t-30 9.5h-35l10 58q46 0 107.5 3.5t80.5 4.5l13 -15
q-4 -17 -18.5 -79t-33 -157t-32.5 -192q-12 -90 -62.5 -155.5z" />
    <glyph glyph-name="uni01CA" unicode="&#x1ca;" horiz-adv-x="1022" 
d="M548 536q2 23 -4 33t-22 10l-34 -1l-3 7l15 60q13 -1 49.5 -2.5t73.5 -1.5q29 0 65.5 2.5t47.5 3.5l-12 -64q-33 -4 -48.5 -19t-20.5 -44l-79 -535l-100 -14q-75 159 -151.5 309.5t-76.5 148.5h-9l-42 -323q-1 -6 -1 -15q0 -16 7 -22.5t23 -6.5l41 2l5 -6l-17 -62
q-13 1 -49.5 2.5t-73.5 1.5q-33 0 -70.5 -3.5t-48.5 -4.5l16 64q30 4 45.5 18.5t19.5 44.5l61 401q1 6 1 15q0 23 -15.5 32.5t-56.5 14.5q-1 2 -2.5 4t-2.5 5l13 55q11 -1 46 -3t64 -2q26 0 54.5 1.5t37.5 2.5q44 -97 90.5 -190.5t77.5 -154t40 -76.5h9zM845 550
q0 17 -6.5 23t-22.5 6q-12 0 -24 -1.5t-17 -1.5l-3 8l13 57h119q41 1 86.5 4.5t59.5 4.5l-13 -65q-32 -6 -42.5 -15.5t-15.5 -39.5q-12 -67 -33 -207t-32 -220q-13 -100 -68 -160.5t-162 -94.5l-22 39l3 11q44 28 68.5 55.5t38 66t21.5 102.5l50 405q2 18 2 23z" />
    <glyph glyph-name="uni01CB" unicode="&#x1cb;" horiz-adv-x="972" 
d="M548 536q2 23 -4 33t-22 10l-34 -1l-3 7l15 60q13 -1 49.5 -2.5t73.5 -1.5q29 0 65.5 2.5t47.5 3.5l-12 -64q-33 -4 -48.5 -19t-20.5 -44l-79 -535l-100 -14q-75 159 -151.5 309.5t-76.5 148.5h-9l-42 -323q-1 -6 -1 -15q0 -16 7 -22.5t23 -6.5l41 2l5 -6l-17 -62
q-13 1 -49.5 2.5t-73.5 1.5q-33 0 -70.5 -3.5t-48.5 -4.5l16 64q30 4 45.5 18.5t19.5 44.5l61 401q1 6 1 15q0 23 -15.5 32.5t-56.5 14.5q-1 2 -2.5 4t-2.5 5l13 55q11 -1 46 -3t64 -2q26 0 54.5 1.5t37.5 2.5q44 -97 90.5 -190.5t77.5 -154t40 -76.5h9zM846.5 588
q-15.5 16 -15.5 43q0 40 24.5 64.5t62.5 24.5q27 0 42 -15.5t15 -42.5q0 -39 -24.5 -64.5t-61.5 -25.5q-27 0 -42.5 16zM801.5 -137.5q-50.5 -65.5 -135.5 -106.5l-27 30l3 11q57 42 82 92t38 147q8 45 28.5 172.5t20.5 147.5t-9 29.5t-30 9.5h-35l10 58q46 0 107.5 3.5
t80.5 4.5l13 -15q-4 -17 -18.5 -79t-33 -157t-32.5 -192q-12 -90 -62.5 -155.5z" />
    <glyph glyph-name="uni01CC" unicode="&#x1cc;" horiz-adv-x="788" 
d="M501 117q-66 -70 -104.5 -99t-66.5 -29q-46 0 -46 43q0 17 8.5 49t25.5 87q13 43 24 84.5t11 59.5q0 17 -7 26.5t-19 9.5q-24 0 -66.5 -70t-85.5 -181l-8 -69q-2 -12 -35.5 -24t-65.5 -12l-13 15q18 108 32.5 203.5t21.5 143.5q2 22 -7 31.5t-31 9.5h-34l9 58q76 0 188 8
l11 -16q-13 -41 -26.5 -97t-21.5 -101l6 -1q42 88 83.5 146.5t78.5 80.5q49 0 78.5 -28t29.5 -72q0 -23 -11 -63.5t-31 -102.5q-25 -75 -30 -100l3 -3q7 0 18.5 9t47.5 42l18 -3zM662.5 588q-15.5 16 -15.5 43q0 40 24.5 64.5t62.5 24.5q27 0 42 -15.5t15 -42.5
q0 -39 -24.5 -64.5t-61.5 -25.5q-27 0 -42.5 16zM617.5 -137.5q-50.5 -65.5 -135.5 -106.5l-27 30l3 11q57 42 82 92t38 147q8 45 28.5 172.5t20.5 147.5t-9 29.5t-30 9.5h-35l10 58q46 0 107.5 3.5t80.5 4.5l13 -15q-4 -17 -18.5 -79t-33 -157t-32.5 -192
q-12 -90 -62.5 -155.5z" />
    <glyph glyph-name="uni01CD" unicode="&#x1cd;" horiz-adv-x="603" 
d="M539.5 79q14.5 -15 46.5 -19l4 -6l-14 -57q-13 1 -47.5 2t-70.5 1q-51 0 -100 -3.5l-63 -4.5l-4 8l11 57q49 4 65 12.5t16 30.5q0 7 -1 14.5t-2 14.5l-10 80l-87 1q-16 0 -94 -6l-33 -80q-10 -24 -10 -37q0 -14 9.5 -20.5t29.5 -6.5h43l3 -6l-13 -60q-13 1 -57 3.5
t-83 2.5q-40 0 -73 -1t-44 -2l15 64q24 4 40.5 19t31.5 49l232 507l151 17l10 -6q8 -56 33 -231.5t45 -285.5q6 -36 20.5 -51zM291 285q30 0 72 4l-28 225h-14l-98 -229h68zM443 757.5q-61 -45.5 -81 -60.5h-19q-16 15 -65.5 60.5t-70.5 62.5l28 40l16 4q2 -1 54 -28l61 -31
q12 5 75 34l54 25l15 -4l20 -40q-26 -17 -87 -62.5z" />
    <glyph glyph-name="uni01CE" unicode="&#x1ce;" horiz-adv-x="491" 
d="M404 112q13 10 47 41l17 -2l16 -35q-73 -76 -109 -102t-65 -26q-20 0 -30.5 9.5t-10.5 26.5q0 20 35 171l-8 1q-45 -80 -83.5 -129.5t-78.5 -78.5q-53 0 -82.5 38t-29.5 106q0 80 35.5 157.5t91 126.5t113.5 49l87 -17l8 22l11 6l77 -13l8 -17q-22 -84 -41.5 -178
t-30.5 -162l3 -4q7 0 20 10zM207 138.5q27 36.5 57.5 96t55.5 124.5q-21 13 -45 21t-42 8q-22 0 -43 -29t-34 -75.5t-13 -95.5q0 -37 6.5 -61.5t16.5 -24.5q14 0 41 36.5zM188 737q42 -39 105 -87q77 50 126 87l14 -4l25 -41q-50 -44 -102.5 -93.5t-67.5 -64.5h-19
q-12 15 -52 64.5t-79 93.5l34 41z" />
    <glyph glyph-name="uni01CF" unicode="&#x1cf;" horiz-adv-x="352" 
d="M243.5 270q-21.5 -139 -21.5 -167q0 -23 7.5 -32t24.5 -9q16 0 27.5 1t14.5 2l4 -6l-16 -62q-16 0 -59 1.5t-83 1.5q-34 0 -78 -3.5t-57 -5.5l14 62q44 9 60.5 26t20.5 59l48 389q2 18 2 23q0 16 -6.5 22.5t-23.5 6.5l-34 -1l-4 8l14 57q28 0 48 -1l86 -1q27 0 74.5 3.5
t62.5 4.5l-14 -64q-37 -5 -50.5 -16t-18.5 -39q-21 -121 -42.5 -260zM326 757.5q-61 -45.5 -81 -60.5h-19q-16 15 -65.5 60.5t-70.5 62.5l28 40l16 4q2 -1 54 -28l61 -31q12 5 75 34l54 25l15 -4l20 -40q-26 -17 -87 -62.5z" />
    <glyph glyph-name="uni01D0" unicode="&#x1d0;" horiz-adv-x="282" 
d="M187 110q11 8 50 43l17 -2l16 -35q-64 -69 -103.5 -98.5t-67.5 -29.5q-24 0 -35 12t-11 37q48 291 48 320q0 20 -9 29t-29 9h-35l9 58q62 0 190 8l12 -15q-21 -71 -41 -167.5t-31 -172.5l3 -4q6 0 17 8zM73 721q42 -39 105 -87q77 50 126 87l14 -4l25 -41
q-50 -44 -102.5 -93.5t-67.5 -64.5h-19q-12 15 -52 64.5t-79 93.5l34 41z" />
    <glyph glyph-name="uni01D1" unicode="&#x1d1;" horiz-adv-x="651" 
d="M155.5 21q-58.5 33 -90.5 93t-32 141q0 117 43 207.5t122 140.5t182 50q79 0 138 -32t91 -91.5t32 -140.5q0 -117 -44 -208t-123.5 -142t-183.5 -51q-76 0 -134.5 33zM442 150q48 79 48 220q0 90 -36 140.5t-98 50.5q-53 0 -92.5 -35.5t-61 -103t-21.5 -160.5
q0 -90 34.5 -140.5t95.5 -50.5q83 0 131 79zM467 757.5q-61 -45.5 -81 -60.5h-19q-16 15 -65.5 60.5t-70.5 62.5l28 40l16 4q2 -1 54 -28l61 -31q12 5 75 34l54 25l15 -4l20 -40q-26 -17 -87 -62.5z" />
    <glyph glyph-name="uni01D2" unicode="&#x1d2;" horiz-adv-x="442" 
d="M65 35.5q-38 47.5 -38 130.5q0 85 32.5 155.5t89 111t125.5 40.5q68 0 105.5 -43.5t37.5 -123.5q0 -89 -32 -161.5t-89 -114.5t-127 -42q-66 0 -104 47.5zM272 116q23 50 23 144q0 62 -15.5 94t-46.5 32q-40 0 -63 -46.5t-23 -131.5q0 -69 16.5 -105.5t45.5 -36.5
q40 0 63 50zM159 724q42 -39 105 -87q77 50 126 87l14 -4l25 -41q-50 -44 -102.5 -93.5t-67.5 -64.5h-19q-12 15 -52 64.5t-79 93.5l34 41z" />
    <glyph glyph-name="uni01D3" unicode="&#x1d3;" horiz-adv-x="633" 
d="M208 198q0 -61 26 -92.5t78 -31.5q120 0 136 136q9 77 20 176t15 139q1 10 1 24q0 18 -5.5 24t-19.5 6q-9 0 -19 -1t-14 -1l-1 4l16 63q12 0 45 -1.5t66 -1.5q31 0 68 3t48 4l-14 -64q-37 -7 -48.5 -16.5t-14.5 -34.5l-39 -314q-14 -113 -83 -172t-188 -59
q-101 0 -152.5 44.5t-51.5 130.5q0 20 3 42l39 320q2 20 2 26q0 16 -6 22t-21 6q-9 0 -18.5 -1t-12.5 -1l-1 4l16 63q14 -1 53 -2t83 -1q25 0 64 3t51 4l-14 -65q-32 -5 -44.5 -16t-16.5 -38l-43 -291q-3 -21 -3 -40zM463 757.5q-61 -45.5 -81 -60.5h-19q-16 15 -65.5 60.5
t-70.5 62.5l28 40l16 4q2 -1 54 -28l61 -31q12 5 75 34l54 25l15 -4l20 -40q-26 -17 -87 -62.5z" />
    <glyph glyph-name="uni01D4" unicode="&#x1d4;" horiz-adv-x="507" 
d="M495 116q-71 -73 -108 -100.5t-65 -27.5q-42 0 -42 37q0 21 36 177l-8 2q-77 -159 -153 -215q-52 0 -81.5 25.5t-29.5 69.5q0 19 9 53.5t26 95.5q31 105 31 127q0 18 -9 26.5t-29 8.5h-35l10 58q57 0 189 8l12 -15q-39 -117 -63 -203t-24 -106q0 -15 5 -22t18 -7
q22 0 64.5 69t91.5 185l15 95l14 7l100 -5l10 -14q-23 -73 -45 -166.5t-33 -163.5l3 -4q8 2 19.5 10.5t38.5 31.5l17 -2zM192 724q42 -39 105 -87q77 50 126 87l14 -4l25 -41q-50 -44 -102.5 -93.5t-67.5 -64.5h-19q-12 15 -52 64.5t-79 93.5l34 41z" />
    <glyph glyph-name="uni01D5" unicode="&#x1d5;" horiz-adv-x="633" 
d="M208 198q0 -61 26 -92.5t78 -31.5q120 0 136 136q9 77 20 176t15 139q1 10 1 24q0 18 -5.5 24t-19.5 6q-9 0 -19 -1t-14 -1l-1 4l16 63q12 0 45 -1.5t66 -1.5q31 0 68 3t48 4l-14 -64q-37 -7 -48.5 -16.5t-14.5 -34.5l-39 -314q-14 -113 -83 -172t-188 -59
q-101 0 -152.5 44.5t-51.5 130.5q0 20 3 42l39 320q2 20 2 26q0 16 -6 22t-21 6q-9 0 -18.5 -1t-12.5 -1l-1 4l16 63q14 -1 53 -2t83 -1q25 0 64 3t51 4l-14 -65q-32 -5 -44.5 -16t-16.5 -38l-43 -291q-3 -21 -3 -40zM537 879l-136 -1l-135 -1l-9 11l23 74l149 -1
q30 0 70.5 2.5t52.5 3.5l6 -14zM250.5 720q-12.5 14 -12.5 37q0 32 21 53.5t52 21.5q25 0 38 -14t13 -37q0 -32 -21 -53.5t-53 -21.5q-25 0 -37.5 14zM423 720q-13 14 -13 37q0 32 21 53.5t53 21.5q24 0 37.5 -14t13.5 -37q0 -32 -21 -53.5t-53 -21.5q-25 0 -38 14z" />
    <glyph glyph-name="uni01D6" unicode="&#x1d6;" horiz-adv-x="507" 
d="M495 116q-71 -73 -108 -100.5t-65 -27.5q-42 0 -42 37q0 21 36 177l-8 2q-77 -159 -153 -215q-52 0 -81.5 25.5t-29.5 69.5q0 19 9 53.5t26 95.5q31 105 31 127q0 18 -9 26.5t-29 8.5h-35l10 58q57 0 189 8l12 -15q-39 -117 -63 -203t-24 -106q0 -15 5 -22t18 -7
q22 0 64.5 69t91.5 185l15 95l14 7l100 -5l10 -14q-23 -73 -45 -166.5t-33 -163.5l3 -4q8 2 19.5 10.5t38.5 31.5l17 -2zM447 699l-136 -1l-135 -1l-9 11l23 74l149 -1q30 0 70.5 2.5t52.5 3.5l6 -14zM160.5 540q-12.5 14 -12.5 37q0 32 21 53.5t52 21.5q25 0 38 -14t13 -37
q0 -32 -21 -53.5t-53 -21.5q-25 0 -37.5 14zM333 540q-13 14 -13 37q0 32 21 53.5t53 21.5q24 0 37.5 -14t13.5 -37q0 -32 -21 -53.5t-53 -21.5q-25 0 -38 14z" />
    <glyph glyph-name="uni01D7" unicode="&#x1d7;" horiz-adv-x="633" 
d="M208 198q0 -61 26 -92.5t78 -31.5q120 0 136 136q9 77 20 176t15 139q1 10 1 24q0 18 -5.5 24t-19.5 6q-9 0 -19 -1t-14 -1l-1 4l16 63q12 0 45 -1.5t66 -1.5q31 0 68 3t48 4l-14 -64q-37 -7 -48.5 -16.5t-14.5 -34.5l-39 -314q-14 -113 -83 -172t-188 -59
q-101 0 -152.5 44.5t-51.5 130.5q0 20 3 42l39 320q2 20 2 26q0 16 -6 22t-21 6q-9 0 -18.5 -1t-12.5 -1l-1 4l16 63q14 -1 53 -2t83 -1q25 0 64 3t51 4l-14 -65q-32 -5 -44.5 -16t-16.5 -38l-43 -291q-3 -21 -3 -40zM451.5 907.5q-68.5 -18.5 -139.5 -41.5l-13 8l-12 45
q67 30 134.5 62.5t86.5 42.5l12 -5l25 -75l-5 -13q-20 -5 -88.5 -23.5zM264.5 731q-12.5 14 -12.5 37q0 32 21 53.5t52 21.5q25 0 38 -14t13 -37q0 -32 -21 -53.5t-53 -21.5q-25 0 -37.5 14zM437 731q-13 14 -13 37q0 32 21 53.5t53 21.5q24 0 37.5 -14t13.5 -37
q0 -32 -21 -53.5t-53 -21.5q-25 0 -38 14z" />
    <glyph glyph-name="uni01D8" unicode="&#x1d8;" horiz-adv-x="507" 
d="M495 116q-71 -73 -108 -100.5t-65 -27.5q-42 0 -42 37q0 21 36 177l-8 2q-77 -159 -153 -215q-52 0 -81.5 25.5t-29.5 69.5q0 19 9 53.5t26 95.5q31 105 31 127q0 18 -9 26.5t-29 8.5h-35l10 58q57 0 189 8l12 -15q-39 -117 -63 -203t-24 -106q0 -15 5 -22t18 -7
q22 0 64.5 69t91.5 185l15 95l14 7l100 -5l10 -14q-23 -73 -45 -166.5t-33 -163.5l3 -4q8 2 19.5 10.5t38.5 31.5l17 -2zM361.5 727.5q-68.5 -18.5 -139.5 -41.5l-13 8l-12 45q67 30 134.5 62.5t86.5 42.5l12 -5l25 -75l-5 -13q-20 -5 -88.5 -23.5zM174.5 551
q-12.5 14 -12.5 37q0 32 21 53.5t52 21.5q25 0 38 -14t13 -37q0 -32 -21 -53.5t-53 -21.5q-25 0 -37.5 14zM347 551q-13 14 -13 37q0 32 21 53.5t53 21.5q24 0 37.5 -14t13.5 -37q0 -32 -21 -53.5t-53 -21.5q-25 0 -38 14z" />
    <glyph glyph-name="uni01D9" unicode="&#x1d9;" horiz-adv-x="633" 
d="M208 198q0 -61 26 -92.5t78 -31.5q120 0 136 136q9 77 20 176t15 139q1 10 1 24q0 18 -5.5 24t-19.5 6q-9 0 -19 -1t-14 -1l-1 4l16 63q12 0 45 -1.5t66 -1.5q31 0 68 3t48 4l-14 -64q-37 -7 -48.5 -16.5t-14.5 -34.5l-39 -314q-14 -113 -83 -172t-188 -59
q-101 0 -152.5 44.5t-51.5 130.5q0 20 3 42l39 320q2 20 2 26q0 16 -6 22t-21 6q-9 0 -18.5 -1t-12.5 -1l-1 4l16 63q14 -1 53 -2t83 -1q25 0 64 3t51 4l-14 -65q-32 -5 -44.5 -16t-16.5 -38l-43 -291q-3 -21 -3 -40zM466.5 897.5q-51.5 -38.5 -66.5 -50.5h-19
q-12 12 -54 50.5t-82 72.5l29 40l15 4q69 -38 115 -59q55 22 129 59l15 -4l19 -40q-49 -34 -100.5 -72.5zM246.5 731q-12.5 14 -12.5 37q0 32 21 53.5t52 21.5q25 0 38 -14t13 -37q0 -32 -21 -53.5t-53 -21.5q-25 0 -37.5 14zM419 731q-13 14 -13 37q0 32 21 53.5t53 21.5
q24 0 37.5 -14t13.5 -37q0 -32 -21 -53.5t-53 -21.5q-25 0 -38 14z" />
    <glyph glyph-name="uni01DA" unicode="&#x1da;" horiz-adv-x="507" 
d="M495 116q-71 -73 -108 -100.5t-65 -27.5q-42 0 -42 37q0 21 36 177l-8 2q-77 -159 -153 -215q-52 0 -81.5 25.5t-29.5 69.5q0 19 9 53.5t26 95.5q31 105 31 127q0 18 -9 26.5t-29 8.5h-35l10 58q57 0 189 8l12 -15q-39 -117 -63 -203t-24 -106q0 -15 5 -22t18 -7
q22 0 64.5 69t91.5 185l15 95l14 7l100 -5l10 -14q-23 -73 -45 -166.5t-33 -163.5l3 -4q8 2 19.5 10.5t38.5 31.5l17 -2zM376.5 717.5q-51.5 -38.5 -66.5 -50.5h-19q-12 12 -54 50.5t-82 72.5l29 40l15 4q69 -38 115 -59q55 22 129 59l15 -4l19 -40q-49 -34 -100.5 -72.5z
M156.5 551q-12.5 14 -12.5 37q0 32 21 53.5t52 21.5q25 0 38 -14t13 -37q0 -32 -21 -53.5t-53 -21.5q-25 0 -37.5 14zM329 551q-13 14 -13 37q0 32 21 53.5t53 21.5q24 0 37.5 -14t13.5 -37q0 -32 -21 -53.5t-53 -21.5q-25 0 -38 14z" />
    <glyph glyph-name="uni01DB" unicode="&#x1db;" horiz-adv-x="633" 
d="M208 198q0 -61 26 -92.5t78 -31.5q120 0 136 136q9 77 20 176t15 139q1 10 1 24q0 18 -5.5 24t-19.5 6q-9 0 -19 -1t-14 -1l-1 4l16 63q12 0 45 -1.5t66 -1.5q31 0 68 3t48 4l-14 -64q-37 -7 -48.5 -16.5t-14.5 -34.5l-39 -314q-14 -113 -83 -172t-188 -59
q-101 0 -152.5 44.5t-51.5 130.5q0 20 3 42l39 320q2 20 2 26q0 16 -6 22t-21 6q-9 0 -18.5 -1t-12.5 -1l-1 4l16 63q14 -1 53 -2t83 -1q25 0 64 3t51 4l-14 -65q-32 -5 -44.5 -16t-16.5 -38l-43 -291q-3 -21 -3 -40zM311 1019l12 5q20 -10 87.5 -42.5t134.5 -62.5l-13 -45
l-13 -8q-71 22 -139.5 41t-88.5 24l-5 13zM264.5 731q-12.5 14 -12.5 37q0 32 21 53.5t52 21.5q25 0 38 -14t13 -37q0 -32 -21 -53.5t-53 -21.5q-25 0 -37.5 14zM437 731q-13 14 -13 37q0 32 21 53.5t53 21.5q24 0 37.5 -14t13.5 -37q0 -32 -21 -53.5t-53 -21.5
q-25 0 -38 14z" />
    <glyph glyph-name="uni01DC" unicode="&#x1dc;" horiz-adv-x="507" 
d="M495 116q-71 -73 -108 -100.5t-65 -27.5q-42 0 -42 37q0 21 36 177l-8 2q-77 -159 -153 -215q-52 0 -81.5 25.5t-29.5 69.5q0 19 9 53.5t26 95.5q31 105 31 127q0 18 -9 26.5t-29 8.5h-35l10 58q57 0 189 8l12 -15q-39 -117 -63 -203t-24 -106q0 -15 5 -22t18 -7
q22 0 64.5 69t91.5 185l15 95l14 7l100 -5l10 -14q-23 -73 -45 -166.5t-33 -163.5l3 -4q8 2 19.5 10.5t38.5 31.5l17 -2zM221 839l12 5q20 -10 87.5 -42.5t134.5 -62.5l-13 -45l-13 -8q-71 22 -139.5 41t-88.5 24l-5 13zM174.5 551q-12.5 14 -12.5 37q0 32 21 53.5t52 21.5
q25 0 38 -14t13 -37q0 -32 -21 -53.5t-53 -21.5q-25 0 -37.5 14zM347 551q-13 14 -13 37q0 32 21 53.5t53 21.5q24 0 37.5 -14t13.5 -37q0 -32 -21 -53.5t-53 -21.5q-25 0 -38 14z" />
    <glyph glyph-name="Gcaron" unicode="&#x1e6;" horiz-adv-x="630" 
d="M547 325.5q29 1.5 38 3.5l2 -37q-18 -12 -28.5 -31.5t-15.5 -51.5q-5 -31 -10.5 -76t-5.5 -59l1 -33l-10 -12q0 -1 -31.5 -12t-81 -20t-111.5 -9q-121 0 -191 71.5t-70 196.5q0 119 45.5 209t129.5 139t195 49q36 0 79.5 -5.5t75 -11t40.5 -7.5l4 -13q-2 -6 -10 -29.5
t-19 -63.5t-20 -87l-93 -6q1 7 5 28t4 33q0 70 -101 70q-86 0 -135 -74t-49 -211q0 -96 35 -147.5t100 -51.5q26 0 48 6t35 12.5t16 8.5l12 97q1 7 1 18q0 18 -8 24t-30 6h-51l-3 8l18 69q1 0 44 -1t90 -1q27 0 56 1.5zM476 757.5q-61 -45.5 -81 -60.5h-19
q-16 15 -65.5 60.5t-70.5 62.5l28 40l16 4q2 -1 54 -28l61 -31q12 5 75 34l54 25l15 -4l20 -40q-26 -17 -87 -62.5z" />
    <glyph glyph-name="gcaron" unicode="&#x1e7;" horiz-adv-x="470" 
d="M6.5 -222.5q-41.5 18.5 -64 49.5t-19.5 67l3 9q45 31 173 101l1 8q-29 15 -45.5 50.5t-16.5 84.5q0 75 35 149.5t90 122t110 47.5l88 -18l8 23l12 5l77 -13l11 -17q-25 -50 -41 -100t-21 -89q-2 -16 -4.5 -53.5t-3.5 -56.5q-6 -105 -10 -131q-6 -55 -54 -115.5
t-114.5 -101t-122.5 -40.5q-50 0 -91.5 18.5zM246 181q40 69 85 179q-56 28 -89 28q-21 0 -40.5 -27t-31.5 -70.5t-12 -88.5q0 -37 8.5 -63.5t19.5 -26.5q20 0 60 69zM240 -114q39 39 47 108l23 192l-9 3q-53 -91 -81.5 -128.5t-59.5 -59.5l-31 -21q-50 -34 -70 -49t-20 -22
q0 -15 15 -29.5t39 -23.5t49 -9q59 0 98 39zM175 747q42 -39 105 -87q77 50 126 87l14 -4l25 -41q-50 -44 -102.5 -93.5t-67.5 -64.5h-19q-12 15 -52 64.5t-79 93.5l34 41z" />
    <glyph glyph-name="uni01EA" unicode="&#x1ea;" horiz-adv-x="651" 
d="M155.5 21q-58.5 33 -90.5 93t-32 141q0 117 43 207.5t122 140.5t182 50q79 0 138 -32t91 -91.5t32 -140.5q0 -117 -44 -208t-123.5 -142t-183.5 -51q-76 0 -134.5 33zM442 150q48 79 48 220q0 90 -36 140.5t-98 50.5q-53 0 -92.5 -35.5t-61 -103t-21.5 -160.5
q0 -90 34.5 -140.5t95.5 -50.5q83 0 131 79zM378.5 -231.5q-25.5 -17.5 -50.5 -25.5q-51 0 -80.5 22.5t-29.5 63.5q0 38 32 78t113 119h64q-64 -65 -90 -102t-26 -66q0 -17 10.5 -27.5t28.5 -10.5t37.5 7.5t31.5 15.5l18 -32q-33 -25 -58.5 -42.5z" />
    <glyph glyph-name="uni01EB" unicode="&#x1eb;" horiz-adv-x="442" 
d="M65 35.5q-38 47.5 -38 130.5q0 85 32.5 155.5t89 111t125.5 40.5q68 0 105.5 -43.5t37.5 -123.5q0 -89 -32 -161.5t-89 -114.5t-127 -42q-66 0 -104 47.5zM272 116q23 50 23 144q0 62 -15.5 94t-46.5 32q-40 0 -63 -46.5t-23 -131.5q0 -69 16.5 -105.5t45.5 -36.5
q40 0 63 50zM237.5 -215.5q-25.5 -17.5 -50.5 -25.5q-51 0 -80.5 22.5t-29.5 63.5q0 38 32 78t113 119h64q-64 -65 -90 -102t-26 -66q0 -17 10.5 -27.5t28.5 -10.5t37.5 7.5t31.5 15.5l18 -32q-33 -25 -58.5 -42.5z" />
    <glyph glyph-name="Aringacute" unicode="&#x1fa;" horiz-adv-x="603" 
d="M539.5 79q14.5 -15 46.5 -19l4 -6l-14 -57q-13 1 -47.5 2t-70.5 1q-51 0 -100 -3.5l-63 -4.5l-4 8l11 57q49 4 65 12.5t16 30.5q0 7 -1 14.5t-2 14.5l-10 80l-87 1q-16 0 -94 -6l-33 -80q-10 -24 -10 -37q0 -14 9.5 -20.5t29.5 -6.5h43l3 -6l-13 -60q-13 1 -57 3.5
t-83 2.5q-40 0 -73 -1t-44 -2l15 64q24 4 40.5 19t31.5 49l232 507l151 17l10 -6q8 -56 33 -231.5t45 -285.5q6 -36 20.5 -51zM291 285q30 0 72 4l-28 225h-14l-98 -229h68zM302.049 692.458q-17.5596 18.9111 -17.5596 50.4287q0 41.4238 27.0156 68.8896
q27.0146 27.4658 68.4385 27.4658q35.1201 0 51.7793 -18.9111q16.6602 -18.9111 16.6602 -47.7275q0 -39.6221 -26.5654 -69.3389t-69.79 -29.7168q-32.418 0 -49.9785 18.9102zM390.75 728.479q12.6074 8.10547 12.6074 29.7168q0 15.3096 -9.45605 23.8643
q-9.45508 8.55469 -26.5654 8.55469q-18.0098 0 -27.915 -9.90527q-9.90625 -9.90625 -9.90625 -27.0156q0 -16.209 10.8066 -24.7646q10.8057 -8.55469 23.4131 -8.55469q14.4082 0 27.0156 8.10449zM422.652 878.773q-61.6475 -17.0996 -125.545 -37.7988
l-11.6992 8.09961l-11.6992 40.498q60.2969 26.999 121.045 56.248q60.7471 29.249 78.7471 38.249l10.7988 -5.40039l22.499 -67.4971l-4.49902 -10.7998q-18 -4.5 -79.6475 -21.5986z" />
    <glyph glyph-name="aringacute" unicode="&#x1fb;" horiz-adv-x="491" 
d="M404 112q13 10 47 41l17 -2l16 -35q-73 -76 -109 -102t-65 -26q-20 0 -30.5 9.5t-10.5 26.5q0 20 35 171l-8 1q-45 -80 -83.5 -129.5t-78.5 -78.5q-53 0 -82.5 38t-29.5 106q0 80 35.5 157.5t91 126.5t113.5 49l87 -17l8 22l11 6l77 -13l8 -17q-22 -84 -41.5 -178
t-30.5 -162l3 -4q7 0 20 10zM207 138.5q27 36.5 57.5 96t55.5 124.5q-21 13 -45 21t-42 8q-22 0 -43 -29t-34 -75.5t-13 -95.5q0 -37 6.5 -61.5t16.5 -24.5q14 0 41 36.5zM228.049 525.458q-17.5596 18.9111 -17.5596 50.4287q0 41.4238 27.0156 68.8896
q27.0146 27.4658 68.4385 27.4658q35.1201 0 51.7793 -18.9111q16.6602 -18.9111 16.6602 -47.7275q0 -39.6221 -26.5654 -69.3389t-69.79 -29.7168q-32.418 0 -49.9785 18.9102zM316.75 561.479q12.6074 8.10547 12.6074 29.7168q0 15.3096 -9.45605 23.8643
q-9.45508 8.55469 -26.5654 8.55469q-18.0098 0 -27.915 -9.90527q-9.90625 -9.90625 -9.90625 -27.0156q0 -16.209 10.8066 -24.7646q10.8057 -8.55469 23.4131 -8.55469q14.4082 0 27.0156 8.10449zM348.652 711.773q-61.6475 -17.0996 -125.545 -37.7988
l-11.6992 8.09961l-11.6992 40.498q60.2969 26.999 121.045 56.248q60.7471 29.249 78.7471 38.249l10.7988 -5.40039l22.499 -67.4971l-4.49902 -10.7998q-18 -4.5 -79.6475 -21.5986z" />
    <glyph glyph-name="AEacute" unicode="&#x1fc;" horiz-adv-x="840" 
d="M351.5 77.5q20.5 15.5 22.5 45.5l1 34v94l-85 -10l-84 -16l-55 -100q-15 -30 -15 -42q0 -13 10 -17t40 -4l31 -5l-14 -63q-17 2 -69.5 4t-89.5 2q-24 0 -44.5 -1t-27.5 -2l3 58q9 2 28.5 22.5t38.5 52.5l250 427q-1 12 -6 17t-16 5q-9 0 -17.5 -1t-11.5 -1l-6 8l15 60
q20 -1 84 -2t149 -1q239 0 311 12l6 -11q-5 -15 -19 -68.5t-25 -111.5l-89 -7q1 6 4.5 25t3.5 32q0 21 -9.5 31t-34 13.5t-75.5 3.5q-31 0 -42 -6t-11 -22l4 -186l95 12l95 19l9 -10l-21 -81l-89 -7l-88 -10l4 -127q1 -36 15 -51.5t46 -15.5q56 0 82.5 8t40.5 31t28 76l83 7
l6 -10q-5 -15 -21 -70t-29 -114l-10 -11q1 1 -112.5 4t-206.5 3q-49 0 -95.5 -3.5t-59.5 -4.5l-3 8l11 58q44 4 64.5 19.5zM377 328l1 184h-15l-109 -196l62 5zM555 790q-57 -38 -115 -81l-15 4l-29 38q51 49 102 101.5t65 68.5l13 -1l53 -68l-1 -14q-16 -10 -73 -48z" />
    <glyph glyph-name="aeacute" unicode="&#x1fd;" horiz-adv-x="632" 
d="M563 160l31 -39q-27 -57 -81 -95t-109 -38q-59 0 -96 42.5t-42 114.5q-66 -110 -132 -157q-53 0 -82.5 38.5t-29.5 106.5q0 79 35.5 156.5t91.5 126.5t113 49l153 -23q50 31 103 31q49 0 77 -25t28 -69t-24.5 -77.5t-77 -61.5t-141.5 -57q0 -46 17 -73t47 -27
q28 0 54.5 20.5t46.5 58.5zM234 182.5q47 80.5 86 186.5q-47 19 -89 19q-21 0 -41.5 -29t-33.5 -75.5t-13 -94.5q0 -37 6 -62t16 -25q22 0 69 80.5zM508.5 377.5q-8.5 9.5 -24.5 9.5q-34 0 -62 -40.5t-38 -103.5q69 23 101 49t32 59q0 17 -8.5 26.5zM463 604
q-57 -38 -115 -81l-15 4l-29 38q51 49 102 101.5t65 68.5l13 -1l53 -68l-1 -14q-16 -10 -73 -48z" />
    <glyph glyph-name="Oslashacute" unicode="&#x1fe;" horiz-adv-x="650" 
d="M615.5 515q25.5 -55 25.5 -126q0 -117 -44 -208t-123.5 -142t-183.5 -51q-52 0 -98 16l-68 -111l-58 28l-3 10l66 107q-46 35 -71 90.5t-25 126.5q0 117 43 207.5t122 140.5t182 50q54 0 98 -15l53 90l60 -28l2 -13l-49 -83q46 -34 71.5 -89zM263.5 525.5
q-39.5 -35.5 -61 -103t-21.5 -160.5q0 -62 17 -107l224 387q-30 19 -66 19q-53 0 -92.5 -35.5zM442 150q48 79 48 220q0 64 -19 111l-227 -389q29 -21 67 -21q83 0 131 79zM379.5 738q-68.5 -19 -139.5 -42l-13 9l-13 45q67 30 134.5 62.5t87.5 42.5l12 -6l25 -75l-5 -12
q-20 -5 -88.5 -24z" />
    <glyph glyph-name="oslashacute" unicode="&#x1ff;" horiz-adv-x="442" 
d="M381 427q36 -44 36 -121q0 -89 -32 -161.5t-89 -114.5t-127 -42q-22 0 -42 6l-67 -110l-58 28l-3 10l68 112q-40 46 -40 132q0 85 32.5 155.5t89 111t125.5 40.5q25 0 46 -6l61 103l60 -29l2 -12zM170 339.5q-23 -46.5 -23 -131.5q0 -26 1 -37l117 202q-12 13 -32 13
q-40 0 -63 -46.5zM272 116q23 50 23 144v20l-117 -200q14 -14 31 -14q40 0 63 50zM311 615q-57 -38 -115 -81l-15 4l-29 38q51 49 102 101.5t65 68.5l13 -1l53 -68l-1 -14q-16 -10 -73 -48z" />
    <glyph glyph-name="uni0200" unicode="&#x200;" horiz-adv-x="603" 
d="M539.5 79q14.5 -15 46.5 -19l4 -6l-14 -57q-13 1 -47.5 2t-70.5 1q-51 0 -100 -3.5l-63 -4.5l-4 8l11 57q49 4 65 12.5t16 30.5q0 7 -1 14.5t-2 14.5l-10 80l-87 1q-16 0 -94 -6l-33 -80q-10 -24 -10 -37q0 -14 9.5 -20.5t29.5 -6.5h43l3 -6l-13 -60q-13 1 -57 3.5
t-83 2.5q-40 0 -73 -1t-44 -2l15 64q24 4 40.5 19t31.5 49l232 507l151 17l10 -6q8 -56 33 -231.5t45 -285.5q6 -36 20.5 -51zM291 285q30 0 72 4l-28 225h-14l-98 -229h68zM371.5 740q-50.5 28 -64.5 36l-1 12l41 60l12 2q13 -12 54.5 -49t96.5 -84l-22 -33l-13 -5
q-53 33 -103.5 61zM205.5 735q-50.5 28 -64.5 36l-1 12l41 60l12 2q13 -12 59 -53t92 -80l-22 -33l-13 -5q-53 33 -103.5 61z" />
    <glyph glyph-name="uni0201" unicode="&#x201;" horiz-adv-x="491" 
d="M404 112q13 10 47 41l17 -2l16 -35q-73 -76 -109 -102t-65 -26q-20 0 -30.5 9.5t-10.5 26.5q0 20 35 171l-8 1q-45 -80 -83.5 -129.5t-78.5 -78.5q-53 0 -82.5 38t-29.5 106q0 80 35.5 157.5t91 126.5t113.5 49l87 -17l8 22l11 6l77 -13l8 -17q-22 -84 -41.5 -178
t-30.5 -162l3 -4q7 0 20 10zM207 138.5q27 36.5 57.5 96t55.5 124.5q-21 13 -45 21t-42 8q-22 0 -43 -29t-34 -75.5t-13 -95.5q0 -37 6.5 -61.5t16.5 -24.5q14 0 41 36.5zM156.5 627.5q-44.5 39.5 -57.5 50.5v11l56 49h11q11 -15 45.5 -61t80.5 -105l-31 -27l-13 -1
q-47 44 -91.5 83.5zM300.5 627.5q-44.5 39.5 -57.5 50.5v11l56 49h11q11 -15 45.5 -61t80.5 -105l-31 -27l-14 -1q-46 44 -90.5 83.5z" />
    </font>
</defs>
</svg>
